<?xml version="1.0" encoding="utf-8"?>
<!-- Generator: Adobe Illustrator 25.2.0, SVG Export Plug-In . SVG Version: 6.00 Build 0)  -->
<svg version="1.1" id="Vrstva_1" xmlns="http://www.w3.org/2000/svg" xmlns:xlink="http://www.w3.org/1999/xlink" x="0px" y="0px"
	 viewBox="0 0 62.5 115.3" style="enable-background:new 0 0 62.5 115.3;" xml:space="preserve">
<style type="text/css">
	.st0{fill:url(#SVGID_1_);}
	.st1{fill:#B3B7B6;}
	.st2{fill:#332A04;}
	.st3{fill:#F7E4AD;}
	.st4{fill:#020100;}
	.st5{fill:#070604;}
	.st6{fill:#7A5426;}
	.st7{fill:url(#SVGID_2_);}
	.st8{fill:#EDEBAE;}
	.st9{fill:url(#SVGID_3_);}
	.st10{fill:#493C05;stroke:#B3B7B6;stroke-miterlimit:10;}
</style>
<linearGradient id="SVGID_1_" gradientUnits="userSpaceOnUse" x1="5.3714" y1="93.2256" x2="24.9114" y2="83.2656" gradientTransform="matrix(-1 0 0 -1 62.4837 115.3228)">
	<stop  offset="0" style="stop-color:#F7E4AD"/>
	<stop  offset="1" style="stop-color:#CCB37D"/>
</linearGradient>
<circle class="st0" cx="44.4" cy="28.6" r="15.5"/>
<path d="M31.9,34.2c0.7,1,2,1.3,3.1,0.8c0.6-0.5,1-1.3,0.8-2.1"/>
<path d="M38.9,38.1v1c-0.3,0.3-0.7,0.7-1,1c-0.7,0-1.3,0-2,0c-0.8-0.1-1.5-0.2-2.3-0.4L38.9,38.1z"/>
<polygon class="st1" points="10.6,35.7 14.6,29.9 19.2,39.6 11.4,39.2 4.7,46.6 0,36.9 "/>
<path class="st2" d="M10.5,32.5c-0.6-1.8-3.5-1-2.9,0.8c1.9,5.5,3.8,10.9,5.7,16.4c1.8,5.3,3.8,10.4,6.2,15.4
	c0.9,1.7,3.5,0.2,2.6-1.5c-2.3-4.9-4.4-10-6.1-15.1C14.2,43.1,12.3,37.8,10.5,32.5L10.5,32.5z"/>
<path class="st3" d="M30.3,53.3c-10.1,3.7-13.5,4.8-14.1,7.5c-0.4,2.2,0.7,4.5,2.6,5.6c2.5,1.3,5.4-0.7,13.3-5.2
	c4.4-2.5,8.3-4.6,11.7-6.4l-2.6-5.6C39.1,50,35.3,51.5,30.3,53.3z"/>
<path class="st4" d="M47,95c0.2,13.3,0,17.6,3,19.4c2.4,1.3,5.5,1,7.6-0.8c2.5-2.3,1.3-6.6-0.7-17.5c-1.1-6.1-2-11.5-2.7-16.2
	l-7.6,0.8C46.7,83.5,46.9,88.5,47,95z"/>
<path class="st5" d="M29.5,93.3c-3,12.9-4.1,17.1-1.7,19.6c2,1.9,5.1,2.3,7.5,1.1c3-1.7,2.9-6,3.6-17.1c0.4-6.2,0.8-11.7,1.2-16.3
	l-7.5-1.1C32,82.1,30.9,87,29.5,93.3z"/>
<path class="st6" d="M31.9,82.1v-31l7.7-7.9l9.2,0.2l7.1,6.6c-0.3,11-0.7,22-1,33L31.9,82.1z"/>
<linearGradient id="SVGID_2_" gradientUnits="userSpaceOnUse" x1="891.91" y1="629.5765" x2="895.48" y2="635.9564" gradientTransform="matrix(-0.7106 0.7036 -0.7036 -0.7106 1116.9662 -110.4702)">
	<stop  offset="0" style="stop-color:#F7E4AD"/>
	<stop  offset="0.17" style="stop-color:#EDD8A2"/>
	<stop  offset="0.43" style="stop-color:#E2CC96"/>
	<stop  offset="0.68" style="stop-color:#DEC892"/>
	<stop  offset="0.71" style="stop-color:#DCC690"/>
	<stop  offset="1" style="stop-color:#CCB37D"/>
</linearGradient>
<path class="st7" d="M34.3,64.7c-5.5,10.8-7.5,14.3-5.9,17c1.4,2.1,4,3.2,6.5,2.6c3.1-0.8,4-4.7,7-14.4c1.7-5.4,3.3-10.2,4.7-14.3
	l-6.5-2.6C39.1,55.1,37.1,59.3,34.3,64.7z"/>
<path class="st6" d="M48.8,58.2c-0.1,0.2-0.5,0.1-1.4,0s-5.5-0.7-7.9-4.8c-0.5-0.9-1-1.8-0.8-2.1C39.7,50.2,49.3,57.1,48.8,58.2z"/>
<path class="st8" d="M27.7,12.5c1.1,3.8,3.4,7.1,6.5,9.5l2.5-3.5c-1.8-1.6-3.3-3.4-4.5-5.5c-3.6-6.6-2.2-12.9-3-13
	C28.5-0.1,26,6.1,27.7,12.5z"/>
<linearGradient id="SVGID_3_" gradientUnits="userSpaceOnUse" x1="914.4836" y1="72.3095" x2="950.57" y2="72.3095" gradientTransform="matrix(-1 0 0 -1 976.9636 93.4528)">
	<stop  offset="0" style="stop-color:#808080"/>
	<stop  offset="1" style="stop-color:#E6E6E6"/>
</linearGradient>
<path class="st9" d="M26.4,29.9c0-6.4,3.5-12.3,9-15.5c3.7-2.1,8-2.9,12.2-2.2c0.7,0.1,9.7,1.8,13.4,9.9c1.2,2.5,1.7,5.3,1.5,8.1
	L26.4,29.9z"/>
<path class="st8" d="M49,13.1c-1.1,3.8-3.4,7.1-6.5,9.5L40,19.1c1.8-1.6,3.3-3.4,4.5-5.5c3.7-6.5,2.2-12.9,3-13S50.7,6.7,49,13.1z"
	/>
<circle class="st10" cx="39" cy="69.1" r="16"/>
<circle class="st1" cx="39" cy="69.1" r="2"/>
</svg>
