<svg id="Vrstva_1" data-name="Vrstva 1" xmlns="http://www.w3.org/2000/svg" xmlns:xlink="http://www.w3.org/1999/xlink" viewBox="0 0 62.47 115.27"><defs><style>.cls-1{fill:url(#Nepojmenovaný_přechod_16);}.cls-2{fill:#b3b7b6;}.cls-3{fill:#332a04;}.cls-4{fill:#f7e4ad;}.cls-5{fill:#020100;}.cls-6{fill:#070604;}.cls-7{fill:#7a5426;}.cls-8{fill:url(#Nepojmenovaný_přechod_20);}.cls-9{fill:#edebae;}.cls-10{fill:url(#Nepojmenovaný_přechod_48);}.cls-11{fill:#493c05;stroke:#b3b7b6;stroke-miterlimit:10;}</style><linearGradient id="Nepojmenovaný_přechod_16" x1="5.37" y1="22.1" x2="24.91" y2="32.06" gradientUnits="userSpaceOnUse"><stop offset="0" stop-color="#f7e4ad"/><stop offset="1" stop-color="#ccb37d"/></linearGradient><linearGradient id="Nepojmenovaný_přechod_20" x1="629.79" y1="150.54" x2="633.36" y2="144.16" gradientTransform="translate(595.17 -458.48) rotate(44.72)" gradientUnits="userSpaceOnUse"><stop offset="0" stop-color="#f7e4ad"/><stop offset="0.17" stop-color="#edd8a2"/><stop offset="0.43" stop-color="#e2cc96"/><stop offset="0.68" stop-color="#dec892"/><stop offset="0.71" stop-color="#dcc690"/><stop offset="1" stop-color="#ccb37d"/></linearGradient><linearGradient id="Nepojmenovaný_přechod_48" x1="914.48" y1="43.02" x2="950.57" y2="43.02" gradientUnits="userSpaceOnUse"><stop offset="0" stop-color="gray"/><stop offset="1" stop-color="#e6e6e6"/></linearGradient></defs><circle class="cls-1" cx="18.07" cy="28.57" r="15.5"/><path d="M941.15,54.78a2.19,2.19,0,0,0,.84,2.08,2.32,2.32,0,0,0,3.07-.75" transform="translate(-914.48 -21.87)"/><path d="M943.35,61.58a13.25,13.25,0,0,1-2.3.36,14.78,14.78,0,0,1-2,0c-.33-.33-.66-.67-1-1v-1Z" transform="translate(-914.48 -21.87)"/><polygon class="cls-2" points="62.48 36.89 57.83 46.6 51.05 39.24 43.25 39.63 47.9 29.91 51.91 35.74 62.48 36.89"/><path class="cls-3" d="M966.5,54.36c-1.86,5.31-3.7,10.62-5.56,15.93a129.1,129.1,0,0,1-6.1,15.12c-.86,1.72,1.72,3.24,2.59,1.51a132.55,132.55,0,0,0,6.25-15.39q2.87-8.19,5.71-16.38c.64-1.82-2.26-2.61-2.89-.79Z" transform="translate(-914.48 -21.87)"/><path class="cls-4" d="M935.8,71.14l-2.61,5.63c3.37,1.79,7.32,3.93,11.69,6.42,7.85,4.46,10.78,6.45,13.26,5.17a5.47,5.47,0,0,0,2.61-5.63c-.6-2.75-4-3.81-14.11-7.54C941.71,73.38,937.84,71.91,935.8,71.14Z" transform="translate(-914.48 -21.87)"/><path class="cls-5" d="M930.29,102.66l-7.59-.76c-.71,4.65-1.6,10.09-2.71,16.17-2,10.91-3.14,15.12-.66,17.47a6.74,6.74,0,0,0,7.6.76c3-1.82,2.81-6.16,3-19.42C930.08,110.42,930.22,105.34,930.29,102.66Z" transform="translate(-914.48 -21.87)"/><path class="cls-6" d="M944.4,101.32l-7.55,1.09c.43,4.67.87,10.17,1.25,16.34.67,11.07.58,15.43,3.56,17.12a6.74,6.74,0,0,0,7.55-1.09c2.43-2.47,1.25-6.65-1.71-19.58C946.06,108.9,945,103.94,944.4,101.32Z" transform="translate(-914.48 -21.87)"/><path class="cls-7" d="M922.05,104.94q-.49-16.5-1-33l7.07-6.62,9.19-.25,7.74,7.87v31Z" transform="translate(-914.48 -21.87)"/><path class="cls-8" d="M936.75,74.82l-6.48,2.64c1.41,4.07,3,8.86,4.73,14.27,3,9.7,3.94,13.6,7,14.44a6.18,6.18,0,0,0,6.48-2.64c1.61-2.74-.36-6.2-5.86-17C939.9,81.2,937.83,77,936.75,74.82Z" transform="translate(-914.48 -21.87)"/><path class="cls-7" d="M938.22,73.15c.29.31-.23,1.22-.75,2.11-2.35,4.09-7,4.69-7.87,4.8s-1.31.17-1.41,0C927.62,79,937.24,72.11,938.22,73.15Z" transform="translate(-914.48 -21.87)"/><path class="cls-9" d="M947.72,21.87c-.76.06.64,6.45-3,13a20.46,20.46,0,0,1-4.5,5.5l2.5,3.5a18.74,18.74,0,0,0,6.5-9.5C951,28,948.46,21.81,947.72,21.87Z" transform="translate(-914.48 -21.87)"/><path class="cls-10" d="M914.52,52.13A17,17,0,0,1,916,44c3.75-8.12,12.71-9.76,13.4-9.87a18.55,18.55,0,0,1,12.17,2.23,18,18,0,0,1,9,15.46Z" transform="translate(-914.48 -21.87)"/><path class="cls-9" d="M929.5,22.5c.75.06-.65,6.45,3,13A20.46,20.46,0,0,0,937,41l-2.5,3.5A18.68,18.68,0,0,1,928,35C926.25,28.59,928.75,22.44,929.5,22.5Z" transform="translate(-914.48 -21.87)"/><circle class="cls-11" cx="23.52" cy="69.13" r="16"/><circle class="cls-2" cx="23.52" cy="69.13" r="2"/></svg>