<?xml version="1.0" encoding="utf-8"?>
<!-- Generator: Adobe Illustrator 25.2.0, SVG Export Plug-In . SVG Version: 6.00 Build 0)  -->
<svg version="1.1" id="Vrstva_1" xmlns="http://www.w3.org/2000/svg" xmlns:xlink="http://www.w3.org/1999/xlink" x="0px" y="0px"
	 viewBox="0 0 14400 14400" style="enable-background:new 0 0 14400 14400;" xml:space="preserve">
<style type="text/css">
	.st0{fill:url(#SVGID_1_);}
	.st1{fill:#FFFFFF;}
	.st2{fill:#332D12;stroke:#E51A4F;stroke-miterlimit:10;}
	.st3{fill:#EACC4E;}
	.st4{fill:url(#SVGID_2_);}
	.st5{fill:url(#SVGID_3_);}
	.st6{fill:url(#SVGID_4_);}
	.st7{fill:url(#SVGID_5_);}
	.st8{fill:url(#SVGID_6_);}
	.st9{fill:url(#SVGID_7_);}
	.st10{fill:url(#SVGID_8_);}
	.st11{fill:url(#SVGID_9_);}
	.st12{fill:url(#SVGID_10_);}
	.st13{fill:url(#SVGID_11_);}
	.st14{fill:url(#SVGID_12_);}
	.st15{fill:url(#SVGID_13_);}
	.st16{fill:url(#SVGID_14_);}
	.st17{fill:url(#SVGID_15_);}
	.st18{fill:url(#SVGID_16_);}
	.st19{fill:url(#SVGID_17_);}
	.st20{fill:url(#SVGID_18_);}
	.st21{fill:url(#SVGID_19_);}
	.st22{fill:url(#SVGID_20_);}
	.st23{fill:url(#SVGID_21_);}
	.st24{fill:url(#SVGID_22_);}
	.st25{fill:url(#SVGID_23_);}
	.st26{fill:url(#SVGID_24_);}
	.st27{fill:url(#SVGID_25_);}
	.st28{fill:url(#SVGID_26_);}
	.st29{fill:url(#SVGID_27_);}
	.st30{fill:url(#SVGID_28_);}
	.st31{fill:url(#SVGID_29_);}
	.st32{fill:url(#SVGID_30_);}
	.st33{fill:url(#SVGID_31_);}
	.st34{fill:url(#SVGID_32_);}
	.st35{fill:url(#SVGID_33_);}
	.st36{fill:url(#SVGID_34_);}
	.st37{fill:url(#SVGID_35_);}
	.st38{fill:url(#SVGID_36_);}
	.st39{fill:url(#SVGID_37_);}
	.st40{fill:url(#SVGID_38_);}
	.st41{fill:url(#SVGID_39_);}
	.st42{fill:url(#SVGID_40_);}
	.st43{fill:url(#SVGID_41_);}
	.st44{fill:url(#SVGID_42_);}
	.st45{fill:url(#SVGID_43_);}
	.st46{fill:url(#SVGID_44_);}
	.st47{fill:url(#SVGID_45_);}
	.st48{fill:url(#SVGID_46_);}
	.st49{fill:url(#SVGID_47_);}
	.st50{fill:url(#SVGID_48_);}
	.st51{fill:url(#SVGID_49_);}
	.st52{fill:url(#SVGID_50_);}
	.st53{fill:#E51A4F;}
</style>
<g>
	<linearGradient id="SVGID_1_" gradientUnits="userSpaceOnUse" x1="7011.7944" y1="7413.8379" x2="7387.2056" y2="6763.6074">
		<stop  offset="4.466094e-03" style="stop-color:#3FA9F5"/>
		<stop  offset="1" style="stop-color:#0071BC"/>
	</linearGradient>
	<rect x="6690.03" y="6949.38" class="st0" width="1018.93" height="278.69"/>
	<path class="st1" d="M7016.1,7128.54c37.56-1.66,46.83-19.55,67.83-12.53c14.92,4.99,28.19,20.02,25.81,30.23
		c-0.85,3.65-4.4,9.7-56.03,19.91c-54.71,10.81-63.15,6.48-67.83,2.21c-10.37-9.46-13.17-28.6-5.9-36.86
		C6986.04,7124.58,6995.44,7129.45,7016.1,7128.54z"/>
	<path class="st1" d="M7436.35,7121.9c5.97,9.9-3.69,30.69-17.69,38.34c-14.33,7.83-26.14-1.97-75.2-10.32
		c-25.28-4.3-32.1-3.4-32.44-5.9C7309.63,7133.75,7421.69,7097.58,7436.35,7121.9z"/>
	<rect x="6690.03" y="7207.79" class="st2" width="1018.93" height="241.83"/>
	<g>
		<g>
			<path class="st3" d="M6971.71,7276.47c60.02,1.29,120.05,2.58,180.07,3.87c59.9,1.29,119.89,3.42,179.79,1.52
				c34.28-1.08,68.42-3.79,102.39-8.54c8.58-1.2,14.02-12.58,11.52-20.3c-3.05-9.41-11.1-12.81-20.3-11.52
				c-55.8,7.79-116.54,8.6-174.41,7.82c-59.52-0.8-119.03-2.42-178.54-3.7c-33.51-0.72-67.02-1.44-100.54-2.16
				c-8.63-0.19-16.89,7.72-16.5,16.5C6955.62,7269.07,6962.46,7276.27,6971.71,7276.47L6971.71,7276.47z"/>
		</g>
	</g>
	<g>
		<g>
			<path class="st3" d="M6931.11,7318.52c65.54,9.54,131.42,4.82,197.35,4.93c64.76,0.11,129.44,4.72,194.21,4.1
				c37.36-0.35,74.59-2.73,111.58-8.11c8.57-1.25,14.03-12.55,11.52-20.3c-3.03-9.37-11.11-12.86-20.3-11.52
				c-13.84,2.01-30.68,3.72-46.16,4.8c-15.6,1.09-31.23,1.71-46.86,1.99c-32.02,0.58-64.05-0.25-96.05-1.29
				c-32.06-1.04-64.11-2.31-96.18-2.61c-31.95-0.3-63.87,0.78-95.81,1.15c-17.56,0.2-35.13,0.16-52.68-0.54
				c-17.15-0.68-36.54-2.2-51.85-4.42c-8.5-1.24-18.15,2.1-20.3,11.52C6917.8,7306.04,6921.97,7317.19,6931.11,7318.52
				L6931.11,7318.52z"/>
		</g>
	</g>
	<g>
		<g>
			<path class="st3" d="M6922.01,7363.46c72.1-6.15,144.54-8.09,216.86-5.7c36.11,1.19,72.16,3.5,108.14,6.77
				c33.86,3.08,67.73,6.67,101.75,7.37c38.95,0.81,78.47-2.42,115.82-14.01c8.23-2.55,14.33-11.63,11.52-20.3
				c-2.68-8.28-11.47-14.26-20.3-11.52c-32.61,10.12-62.54,13.02-96.82,12.95c-34.02-0.08-67.91-3.41-101.75-6.55
				c-71-6.59-142.2-9.74-213.51-8.38c-40.63,0.77-81.23,2.92-121.72,6.37c-8.58,0.73-16.92,7.06-16.5,16.5
				C6905.88,7355.28,6912.8,7364.25,6922.01,7363.46L6922.01,7363.46z"/>
		</g>
	</g>
	<g>
		<g>
			<path class="st3" d="M7492.44,7379.16c-76.12-2.75-152.25-5.5-228.37-8.25c-38.23-1.38-76.46-2.76-114.68-4.14
				c-37.33-1.35-74.68-3.17-112.04-3.22c-41.99-0.05-84.18,2.69-125.25,11.91c-8.43,1.89-14.18,12.1-11.52,20.3
				c2.86,8.84,11.26,13.55,20.3,11.52c9.03-2.03,18.12-3.76,27.27-5.17c4.53-0.7,6.03-0.91,9.82-1.37c4.75-0.58,9.5-1.09,14.26-1.53
				c18.14-1.69,36.35-2.43,54.56-2.61c36.89-0.36,73.79,1.41,110.65,2.74c75.79,2.74,151.58,5.48,227.37,8.22
				c42.55,1.54,85.1,3.08,127.65,4.61c8.63,0.31,16.89-7.81,16.5-16.5C7508.53,7386.45,7501.69,7379.49,7492.44,7379.16
				L7492.44,7379.16z"/>
		</g>
	</g>
	<g>
		<g>
			<path class="st3" d="M6925.8,7446.28c71.53-4.21,143.22-3.54,214.83-1.88c72,1.67,144,3.73,215.99,5.62
				c40.54,1.07,81.08,2.13,121.62,3.2c8.64,0.23,16.89-7.75,16.5-16.5c-0.41-9.13-7.25-16.26-16.5-16.5
				c-72.11-1.9-144.22-3.79-216.33-5.69c-71.77-1.89-143.57-4.37-215.38-4.43c-40.27-0.03-80.53,0.81-120.73,3.18
				c-8.6,0.51-16.92,7.23-16.5,16.5C6909.68,7438.29,6916.57,7446.83,6925.8,7446.28L6925.8,7446.28z"/>
		</g>
	</g>
	<g>
		
			<linearGradient id="SVGID_2_" gradientUnits="userSpaceOnUse" x1="6471.2769" y1="7250.0737" x2="6528.0967" y2="7250.0737" gradientTransform="matrix(0.5 -0.866 0.866 0.5 -2815.7207 9197.0283)">
			<stop  offset="4.466925e-03" style="stop-color:#39B54A"/>
			<stop  offset="1" style="stop-color:#006837"/>
		</linearGradient>
		<path class="st4" d="M6690.22,7174.57c8.72-10.45,24.19-13.31,36.68-6.1c13.93,8.04,18.87,25.57,11.03,39.14
			c-8.68,15.03-28.34,15.52-39.41,10.02c-3.9-1.94-6.6-4.55-8.29-6.52"/>
		<linearGradient id="SVGID_3_" gradientUnits="userSpaceOnUse" x1="6730.4312" y1="7155.8818" x2="6757.5386" y2="7206.3311">
			<stop  offset="4.466925e-03" style="stop-color:#39B54A"/>
			<stop  offset="1" style="stop-color:#006837"/>
		</linearGradient>
		<ellipse class="st5" cx="6741.09" cy="7175.72" rx="16.22" ry="49.4"/>
		<linearGradient id="SVGID_4_" gradientUnits="userSpaceOnUse" x1="6751.9409" y1="7179.5347" x2="6778.9033" y2="7132.8345">
			<stop  offset="4.466925e-03" style="stop-color:#39B54A"/>
			<stop  offset="1" style="stop-color:#006837"/>
		</linearGradient>
		<ellipse class="st6" cx="6765.42" cy="7156.18" rx="22.12" ry="28.39"/>
		<linearGradient id="SVGID_5_" gradientUnits="userSpaceOnUse" x1="6776.5278" y1="7224.7495" x2="6808.876" y2="7168.7212">
			<stop  offset="4.466925e-03" style="stop-color:#39B54A"/>
			<stop  offset="1" style="stop-color:#006837"/>
		</linearGradient>
		<ellipse class="st7" cx="6792.7" cy="7196.74" rx="43.5" ry="27.65"/>
		<linearGradient id="SVGID_6_" gradientUnits="userSpaceOnUse" x1="6834.6016" y1="7211.7114" x2="6854.0225" y2="7178.0728">
			<stop  offset="4.466925e-03" style="stop-color:#39B54A"/>
			<stop  offset="1" style="stop-color:#006837"/>
		</linearGradient>
		<ellipse class="st8" cx="6844.31" cy="7194.89" rx="22.12" ry="18.43"/>
		<linearGradient id="SVGID_7_" gradientUnits="userSpaceOnUse" x1="6858.252" y1="7206.3911" x2="6894.5161" y2="7143.5796">
			<stop  offset="4.466925e-03" style="stop-color:#39B54A"/>
			<stop  offset="1" style="stop-color:#006837"/>
		</linearGradient>
		<ellipse class="st9" cx="6876.38" cy="7174.99" rx="29.12" ry="38.34"/>
		<linearGradient id="SVGID_8_" gradientUnits="userSpaceOnUse" x1="6947.8403" y1="7209.4053" x2="6975.2407" y2="7161.9463">
			<stop  offset="4.466925e-03" style="stop-color:#39B54A"/>
			<stop  offset="1" style="stop-color:#006837"/>
		</linearGradient>
		<ellipse class="st10" cx="6961.54" cy="7185.68" rx="21.38" ry="29.12"/>
		<linearGradient id="SVGID_9_" gradientUnits="userSpaceOnUse" x1="6985.1133" y1="7220.8438" x2="7003.5864" y2="7188.8472">
			<stop  offset="4.466925e-03" style="stop-color:#39B54A"/>
			<stop  offset="1" style="stop-color:#006837"/>
		</linearGradient>
		<ellipse class="st11" cx="6994.35" cy="7204.85" rx="23.22" ry="16.59"/>
		<linearGradient id="SVGID_10_" gradientUnits="userSpaceOnUse" x1="7014.7563" y1="7219.7114" x2="7047.6724" y2="7162.6997">
			<stop  offset="4.466925e-03" style="stop-color:#39B54A"/>
			<stop  offset="1" style="stop-color:#006837"/>
		</linearGradient>
		<ellipse class="st12" cx="7031.21" cy="7191.21" rx="23.96" ry="35.39"/>
		<linearGradient id="SVGID_11_" gradientUnits="userSpaceOnUse" x1="7061.4341" y1="7232.8369" x2="7086.5195" y2="7189.3877">
			<stop  offset="4.466925e-03" style="stop-color:#39B54A"/>
			<stop  offset="1" style="stop-color:#006837"/>
		</linearGradient>
		<ellipse class="st13" cx="7073.98" cy="7211.11" rx="42.39" ry="15.48"/>
		<linearGradient id="SVGID_12_" gradientUnits="userSpaceOnUse" x1="7084.894" y1="7201.707" x2="7113.1953" y2="7152.687">
			<stop  offset="4.466925e-03" style="stop-color:#39B54A"/>
			<stop  offset="1" style="stop-color:#006837"/>
		</linearGradient>
		<ellipse class="st14" cx="7099.04" cy="7177.2" rx="29.12" ry="28.02"/>
		
			<linearGradient id="SVGID_13_" gradientUnits="userSpaceOnUse" x1="7191.7983" y1="7197.1812" x2="7215.7725" y2="7155.6577" gradientTransform="matrix(0.866 0.5 -0.5 0.866 4477.7163 -2616.064)">
			<stop  offset="4.466925e-03" style="stop-color:#39B54A"/>
			<stop  offset="1" style="stop-color:#006837"/>
		</linearGradient>
		<path class="st15" d="M7106.46,7188.26c-6.52,11.28-2.08,26.04,9.91,32.97s26.99,3.39,33.51-7.9c6.52-11.28,2.08-26.04-9.91-32.97
			S7112.97,7176.97,7106.46,7188.26z"/>
		<linearGradient id="SVGID_14_" gradientUnits="userSpaceOnUse" x1="7149.9897" y1="7206.5713" x2="7195.5566" y2="7180.2632">
			<stop  offset="4.466925e-03" style="stop-color:#39B54A"/>
			<stop  offset="1" style="stop-color:#006837"/>
		</linearGradient>
		<ellipse class="st16" cx="7172.77" cy="7193.42" rx="25.44" ry="28.75"/>
		<linearGradient id="SVGID_15_" gradientUnits="userSpaceOnUse" x1="7190.0522" y1="7214.5269" x2="7249.1299" y2="7180.418">
			<stop  offset="4.466925e-03" style="stop-color:#39B54A"/>
			<stop  offset="1" style="stop-color:#006837"/>
		</linearGradient>
		<ellipse class="st17" cx="7219.59" cy="7197.47" rx="36.86" ry="23.96"/>
		<linearGradient id="SVGID_16_" gradientUnits="userSpaceOnUse" x1="7221.6821" y1="7176.3291" x2="7278.6948" y2="7143.4126">
			<stop  offset="4.466925e-03" style="stop-color:#39B54A"/>
			<stop  offset="1" style="stop-color:#006837"/>
		</linearGradient>
		<ellipse class="st18" cx="7250.19" cy="7159.87" rx="34.28" ry="28.39"/>
		<linearGradient id="SVGID_17_" gradientUnits="userSpaceOnUse" x1="7249.6338" y1="7209.0732" x2="7289.8193" y2="7185.8721">
			<stop  offset="4.466925e-03" style="stop-color:#39B54A"/>
			<stop  offset="1" style="stop-color:#006837"/>
		</linearGradient>
		<ellipse class="st19" cx="7269.73" cy="7197.47" rx="22.12" ry="26.17"/>
		<linearGradient id="SVGID_18_" gradientUnits="userSpaceOnUse" x1="7346.4795" y1="7211.856" x2="7380.9814" y2="7191.9365">
			<stop  offset="4.466925e-03" style="stop-color:#39B54A"/>
			<stop  offset="1" style="stop-color:#006837"/>
		</linearGradient>
		<ellipse class="st20" cx="7363.73" cy="7201.9" rx="19.54" ry="21.01"/>
		<linearGradient id="SVGID_19_" gradientUnits="userSpaceOnUse" x1="7286.6348" y1="7211.4648" x2="7342.7671" y2="7179.0566">
			<stop  offset="4.466925e-03" style="stop-color:#39B54A"/>
			<stop  offset="1" style="stop-color:#006837"/>
		</linearGradient>
		<ellipse class="st21" cx="7314.7" cy="7195.26" rx="35.39" ry="21.01"/>
		<linearGradient id="SVGID_20_" gradientUnits="userSpaceOnUse" x1="7352.2275" y1="7174.1021" x2="7395.1401" y2="7149.3262">
			<stop  offset="4.466925e-03" style="stop-color:#39B54A"/>
			<stop  offset="1" style="stop-color:#006837"/>
		</linearGradient>
		<ellipse class="st22" cx="7373.68" cy="7161.71" rx="23.59" ry="28.02"/>
		<linearGradient id="SVGID_21_" gradientUnits="userSpaceOnUse" x1="7372.6167" y1="7214.9712" x2="7420.4634" y2="7187.3467">
			<stop  offset="4.466925e-03" style="stop-color:#39B54A"/>
			<stop  offset="1" style="stop-color:#006837"/>
		</linearGradient>
		<ellipse class="st23" cx="7396.54" cy="7201.16" rx="29.49" ry="21.01"/>
		<linearGradient id="SVGID_22_" gradientUnits="userSpaceOnUse" x1="7403.3281" y1="7199.0688" x2="7456.1074" y2="7168.5967">
			<stop  offset="4.466925e-03" style="stop-color:#39B54A"/>
			<stop  offset="1" style="stop-color:#006837"/>
		</linearGradient>
		<ellipse class="st24" cx="7429.72" cy="7183.83" rx="28.02" ry="36.86"/>
		<linearGradient id="SVGID_23_" gradientUnits="userSpaceOnUse" x1="7452.9321" y1="7213.0654" x2="7463.2749" y2="7195.1509">
			<stop  offset="4.466925e-03" style="stop-color:#39B54A"/>
			<stop  offset="1" style="stop-color:#006837"/>
		</linearGradient>
		<ellipse class="st25" cx="7458.1" cy="7204.11" rx="11.43" ry="9.95"/>
		<linearGradient id="SVGID_24_" gradientUnits="userSpaceOnUse" x1="7525.4404" y1="7208.5361" x2="7549.2827" y2="7167.2397">
			<stop  offset="4.466925e-03" style="stop-color:#39B54A"/>
			<stop  offset="1" style="stop-color:#006837"/>
		</linearGradient>
		<ellipse class="st26" cx="7537.36" cy="7187.89" rx="14.75" ry="26.17"/>
		<linearGradient id="SVGID_25_" gradientUnits="userSpaceOnUse" x1="7591.1074" y1="7223.1714" x2="7617.8022" y2="7176.9346">
			<stop  offset="4.466925e-03" style="stop-color:#39B54A"/>
			<stop  offset="1" style="stop-color:#006837"/>
		</linearGradient>
		<ellipse class="st27" cx="7604.45" cy="7200.05" rx="15.48" ry="29.49"/>
		<linearGradient id="SVGID_26_" gradientUnits="userSpaceOnUse" x1="7632.0498" y1="7224.4351" x2="7657.2241" y2="7180.832">
			<stop  offset="4.466925e-03" style="stop-color:#39B54A"/>
			<stop  offset="1" style="stop-color:#006837"/>
		</linearGradient>
		<ellipse class="st28" cx="7644.64" cy="7202.63" rx="39.44" ry="18.06"/>
		<linearGradient id="SVGID_27_" gradientUnits="userSpaceOnUse" x1="7525.0054" y1="7218.8545" x2="7541.6079" y2="7190.0986">
			<stop  offset="4.466925e-03" style="stop-color:#39B54A"/>
			<stop  offset="1" style="stop-color:#006837"/>
		</linearGradient>
		<ellipse class="st29" cx="7533.31" cy="7204.48" rx="23.96" ry="13.27"/>
		<linearGradient id="SVGID_28_" gradientUnits="userSpaceOnUse" x1="7557.9395" y1="7219.2773" x2="7575.0298" y2="7189.6763">
			<stop  offset="4.466925e-03" style="stop-color:#39B54A"/>
			<stop  offset="1" style="stop-color:#006837"/>
		</linearGradient>
		<ellipse class="st30" cx="7566.48" cy="7204.48" rx="15.11" ry="17.69"/>
		<linearGradient id="SVGID_29_" gradientUnits="userSpaceOnUse" x1="7578.9111" y1="7213.9707" x2="7589.4478" y2="7195.7202">
			<stop  offset="4.466925e-03" style="stop-color:#39B54A"/>
			<stop  offset="1" style="stop-color:#006837"/>
		</linearGradient>
		<ellipse class="st31" cx="7584.18" cy="7204.85" rx="15.11" ry="8.48"/>
		<linearGradient id="SVGID_30_" gradientUnits="userSpaceOnUse" x1="7678.5337" y1="7211.0659" x2="7703.9746" y2="7167.0015">
			<stop  offset="4.466925e-03" style="stop-color:#39B54A"/>
			<stop  offset="1" style="stop-color:#006837"/>
		</linearGradient>
		<path class="st32" d="M7708.69,7208.4c-4.49,3.98-10.39,6.39-16.86,6.39c-14.05,0-25.44-11.39-25.44-25.44
			s11.39-25.44,25.44-25.44c6.53,0,12.48,2.46,16.98,6.5"/>
		<linearGradient id="SVGID_31_" gradientUnits="userSpaceOnUse" x1="7671.1387" y1="7201.1621" x2="7685.8872" y2="7175.6172">
			<stop  offset="4.466925e-03" style="stop-color:#39B54A"/>
			<stop  offset="1" style="stop-color:#006837"/>
		</linearGradient>
		<circle class="st33" cx="7678.51" cy="7188.39" r="14.75"/>
		<linearGradient id="SVGID_32_" gradientUnits="userSpaceOnUse" x1="7671.8306" y1="7219.5093" x2="7687.4858" y2="7192.3936">
			<stop  offset="4.466925e-03" style="stop-color:#39B54A"/>
			<stop  offset="1" style="stop-color:#006837"/>
		</linearGradient>
		<ellipse class="st34" cx="7679.66" cy="7205.95" rx="26.54" ry="9.58"/>
	</g>
	<g>
		
			<linearGradient id="SVGID_33_" gradientUnits="userSpaceOnUse" x1="7413.2974" y1="7218.334" x2="7451.6362" y2="7218.334" gradientTransform="matrix(-1 0 0 1 14929.3408 0)">
			<stop  offset="4.466648e-03" style="stop-color:#808080"/>
			<stop  offset="1" style="stop-color:#E6E6E6"/>
		</linearGradient>
		<polyline class="st35" points="7516.04,7160.51 7516.04,7277.66 7477.7,7277.66 7477.7,7160.23 7514.28,7159.01 		"/>
		
			<linearGradient id="SVGID_34_" gradientUnits="userSpaceOnUse" x1="7321.5049" y1="7303.8301" x2="7453.1108" y2="7303.8301" gradientTransform="matrix(-1 0 0 1 14929.3408 0)">
			<stop  offset="4.466648e-03" style="stop-color:#808080"/>
			<stop  offset="1" style="stop-color:#E6E6E6"/>
		</linearGradient>
		<path class="st36" d="M7605.99,7397.1l-129.76-118.7c0-22.61,0-45.22,0-67.83c43.87,38.95,87.74,77.91,131.61,116.86
			L7605.99,7397.1z"/>
		
			<linearGradient id="SVGID_35_" gradientUnits="userSpaceOnUse" x1="7346.5229" y1="7261.2021" x2="7485.1226" y2="7261.2021" gradientTransform="matrix(-1.0584 0.1096 0.1097 1.0597 14609.6982 -1240.3375)">
			<stop  offset="4.466648e-03" style="stop-color:#808080"/>
			<stop  offset="1" style="stop-color:#E6E6E6"/>
		</linearGradient>
		<path class="st37" d="M7516.04,7209.09c-12.78,0.49-25.56,0.98-38.34,1.47c40.73,38.75,81.46,77.49,122.19,116.23
			c12.35-3.35,24.71-6.71,37.06-10.07C7596.65,7280.85,7556.35,7244.97,7516.04,7209.09z"/>
		
			<linearGradient id="SVGID_36_" gradientUnits="userSpaceOnUse" x1="7267.3145" y1="7338.4824" x2="7322.6108" y2="7338.4824" gradientTransform="matrix(-1 0 0 1 14929.3408 0)">
			<stop  offset="4.466648e-03" style="stop-color:#808080"/>
			<stop  offset="1" style="stop-color:#E6E6E6"/>
		</linearGradient>
		<polygon class="st38" points="7662.03,7279.13 7662.03,7397.83 7606.73,7397.83 7606.73,7280.41 		"/>
		
			<linearGradient id="SVGID_37_" gradientUnits="userSpaceOnUse" x1="7450.8521" y1="7209.3633" x2="7475.2295" y2="7209.3633" gradientTransform="matrix(-1 0 0 1 14929.3408 0)">
			<stop  offset="4.466648e-03" style="stop-color:#808080"/>
			<stop  offset="1" style="stop-color:#E6E6E6"/>
		</linearGradient>
		<path class="st39" d="M7476.17,7278.94c-7.35-7.23-14.7-14.45-22.06-21.68v-117.48l24.38,20.72c-0.12,19.27-0.37,38.76-0.75,58.46
			C7477.34,7239.19,7476.82,7259.18,7476.17,7278.94z"/>
		
			<linearGradient id="SVGID_38_" gradientUnits="userSpaceOnUse" x1="7321.8267" y1="7328.8115" x2="7346.2041" y2="7328.8115" gradientTransform="matrix(-1 0 0 1 14929.3408 0)">
			<stop  offset="4.466648e-03" style="stop-color:#808080"/>
			<stop  offset="1" style="stop-color:#E6E6E6"/>
		</linearGradient>
		<path class="st40" d="M7606.85,7397.63l-23.72-20.16v-117.48l24.38,20.72C7607.51,7280.71,7605.73,7397.63,7606.85,7397.63z"/>
		
			<linearGradient id="SVGID_39_" gradientUnits="userSpaceOnUse" x1="7267.3145" y1="7270.6523" x2="7346.2041" y2="7270.6523" gradientTransform="matrix(-1 0 0 1 14929.3408 0)">
			<stop  offset="4.466648e-03" style="stop-color:#808080"/>
			<stop  offset="1" style="stop-color:#E6E6E6"/>
		</linearGradient>
		<path class="st41" d="M7662.03,7279.13c-18.19,0.74-36.37,1.47-54.56,2.21c-8.11-7.12-16.22-14.23-24.33-21.35l56.77-0.03
			C7643.57,7262.36,7659.2,7275.94,7662.03,7279.13z"/>
		
			<linearGradient id="SVGID_40_" gradientUnits="userSpaceOnUse" x1="7413.2974" y1="7150.4741" x2="7475.2295" y2="7150.4741" gradientTransform="matrix(-1 0 0 1 14929.3408 0)">
			<stop  offset="4.466648e-03" style="stop-color:#808080"/>
			<stop  offset="1" style="stop-color:#E6E6E6"/>
		</linearGradient>
		<path class="st42" d="M7516.04,7160.43c-12.53,0.25-25.07,0.49-37.6,0.74c-8.11-7.13-16.22-14.25-24.33-21.38
			c13.03,0,26.05,0,39.08,0C7500.81,7146.67,7508.42,7153.55,7516.04,7160.43z"/>
		
			<linearGradient id="SVGID_41_" gradientUnits="userSpaceOnUse" x1="7389.3286" y1="7311.9902" x2="7414.772" y2="7311.9902" gradientTransform="matrix(-1 0 0 1 14929.3408 0)">
			<stop  offset="4.466648e-03" style="stop-color:#808080"/>
			<stop  offset="1" style="stop-color:#000000"/>
		</linearGradient>
		<path class="st43" d="M7514.57,7313.78c7.13,6.39,14.25,12.78,21.38,19.17c4.56-13.22,4.39-23.42,3.69-29.49
			c-0.98-8.47-3.2-10.85-5.16-11.8c-3.47-1.67-7.57,0.45-8.11,0.74c-1.84,0.98-3.55,2.73-8.11,12.53
			C7517.26,7307.07,7515.94,7310.08,7514.57,7313.78z"/>
	</g>
	<g>
		<linearGradient id="SVGID_42_" gradientUnits="userSpaceOnUse" x1="6891.4355" y1="7218.334" x2="6929.7744" y2="7218.334">
			<stop  offset="4.466648e-03" style="stop-color:#808080"/>
			<stop  offset="1" style="stop-color:#E6E6E6"/>
		</linearGradient>
		<polyline class="st44" points="6891.44,7160.51 6891.44,7277.66 6929.77,7277.66 6929.77,7160.23 6893.2,7159.01 		"/>
		<linearGradient id="SVGID_43_" gradientUnits="userSpaceOnUse" x1="6799.6436" y1="7303.8301" x2="6931.249" y2="7303.8301">
			<stop  offset="4.466648e-03" style="stop-color:#808080"/>
			<stop  offset="1" style="stop-color:#E6E6E6"/>
		</linearGradient>
		<path class="st45" d="M6801.49,7397.1l129.76-118.7c0-22.61,0-45.22,0-67.83c-43.87,38.95-87.74,77.91-131.61,116.86
			L6801.49,7397.1z"/>
		
			<linearGradient id="SVGID_44_" gradientUnits="userSpaceOnUse" x1="6858.6724" y1="7311.6494" x2="6997.2715" y2="7311.6494" gradientTransform="matrix(1.0584 0.1096 -0.1097 1.0597 319.6418 -1240.3375)">
			<stop  offset="4.466648e-03" style="stop-color:#808080"/>
			<stop  offset="1" style="stop-color:#E6E6E6"/>
		</linearGradient>
		<path class="st46" d="M6891.44,7209.09c12.78,0.49,25.56,0.98,38.34,1.47c-40.73,38.75-81.46,77.49-122.19,116.23
			c-12.35-3.35-24.71-6.71-37.06-10.07C6810.83,7280.85,6851.13,7244.97,6891.44,7209.09z"/>
		<linearGradient id="SVGID_45_" gradientUnits="userSpaceOnUse" x1="6745.4526" y1="7338.4824" x2="6800.7495" y2="7338.4824">
			<stop  offset="4.466648e-03" style="stop-color:#808080"/>
			<stop  offset="1" style="stop-color:#E6E6E6"/>
		</linearGradient>
		<polygon class="st47" points="6745.45,7279.13 6745.45,7397.83 6800.75,7397.83 6800.75,7280.41 		"/>
		<linearGradient id="SVGID_46_" gradientUnits="userSpaceOnUse" x1="6928.9902" y1="7209.3633" x2="6953.3677" y2="7209.3633">
			<stop  offset="4.466648e-03" style="stop-color:#808080"/>
			<stop  offset="1" style="stop-color:#E6E6E6"/>
		</linearGradient>
		<path class="st48" d="M6931.31,7278.94c7.35-7.23,14.7-14.45,22.06-21.68v-117.48l-24.38,20.72c0.12,19.27,0.37,38.76,0.75,58.46
			C6930.14,7239.19,6930.66,7259.18,6931.31,7278.94z"/>
		<linearGradient id="SVGID_47_" gradientUnits="userSpaceOnUse" x1="6799.9648" y1="7328.8115" x2="6824.4053" y2="7328.8115">
			<stop  offset="4.466648e-03" style="stop-color:#808080"/>
			<stop  offset="1" style="stop-color:#E6E6E6"/>
		</linearGradient>
		<path class="st49" d="M6800.62,7397.63c7.93-7.12,15.85-14.24,23.78-21.37c-0.02-38.76-0.04-77.51-0.06-116.27l-24.38,20.72
			C6799.96,7280.71,6801.75,7397.63,6800.62,7397.63z"/>
		<linearGradient id="SVGID_48_" gradientUnits="userSpaceOnUse" x1="6745.4526" y1="7270.6523" x2="6824.3428" y2="7270.6523">
			<stop  offset="4.466648e-03" style="stop-color:#808080"/>
			<stop  offset="1" style="stop-color:#E6E6E6"/>
		</linearGradient>
		<path class="st50" d="M6745.45,7279.13c18.19,0.74,36.37,1.47,54.56,2.21c8.11-7.12,16.22-14.23,24.33-21.35l-56.77-0.03
			C6763.91,7262.36,6748.27,7275.94,6745.45,7279.13z"/>
		<linearGradient id="SVGID_49_" gradientUnits="userSpaceOnUse" x1="6891.4355" y1="7150.4741" x2="6953.3677" y2="7150.4741">
			<stop  offset="4.466648e-03" style="stop-color:#808080"/>
			<stop  offset="1" style="stop-color:#E6E6E6"/>
		</linearGradient>
		<path class="st51" d="M6891.44,7160.43c12.53,0.25,25.07,0.49,37.6,0.74c8.11-7.13,16.22-14.25,24.33-21.38
			c-13.03,0-26.05,0-39.08,0C6906.67,7146.67,6899.05,7153.55,6891.44,7160.43z"/>
		<linearGradient id="SVGID_50_" gradientUnits="userSpaceOnUse" x1="6867.4668" y1="7311.9902" x2="6892.9102" y2="7311.9902">
			<stop  offset="4.466648e-03" style="stop-color:#808080"/>
			<stop  offset="1" style="stop-color:#000000"/>
		</linearGradient>
		<path class="st52" d="M6892.91,7313.78c-7.13,6.39-14.25,12.78-21.38,19.17c-4.56-13.22-4.39-23.42-3.69-29.49
			c0.98-8.47,3.2-10.85,5.16-11.8c3.47-1.67,7.57,0.45,8.11,0.74c1.84,0.98,3.55,2.73,8.11,12.53
			C6890.22,7307.07,6891.54,7310.08,6892.91,7313.78z"/>
	</g>
	<g>
		<g>
			<rect x="6999.48" y="7250.93" width="31.1" height="23.92"/>
			<rect x="7108.31" y="7250.93" width="31.1" height="23.92"/>
			<rect x="7053.9" y="7250.93" width="31.1" height="23.92"/>
			<rect x="7162.73" y="7250.93" width="31.1" height="23.92"/>
			<rect x="7217.15" y="7250.93" width="31.1" height="23.92"/>
			<rect x="7271.57" y="7250.93" width="31.1" height="23.92"/>
			<rect x="7325.99" y="7250.93" width="31.1" height="23.92"/>
			<rect x="7380.42" y="7250.93" width="31.1" height="23.92"/>
		</g>
		<rect x="6953.06" y="7252.13" class="st53" width="28.22" height="21.71"/>
		<rect x="6953.06" y="7294.16" class="st53" width="28.22" height="21.71"/>
		<rect x="7424.3" y="7251.4" class="st53" width="28.22" height="21.71"/>
		<rect x="7424.3" y="7292.68" class="st53" width="28.22" height="21.71"/>
		<rect x="7424.3" y="7333.97" class="st53" width="28.22" height="21.71"/>
		<g>
			<rect x="6999.48" y="7291.44" width="31.1" height="23.92"/>
			<rect x="7108.31" y="7291.44" width="31.1" height="23.92"/>
			<rect x="7053.9" y="7291.44" width="31.1" height="23.92"/>
			<rect x="7162.73" y="7291.44" width="31.1" height="23.92"/>
			<rect x="7217.15" y="7291.44" width="31.1" height="23.92"/>
			<rect x="7271.57" y="7291.44" width="31.1" height="23.92"/>
			<rect x="7325.99" y="7291.44" width="31.1" height="23.92"/>
			<rect x="7380.42" y="7291.44" width="31.1" height="23.92"/>
		</g>
		<g>
			<rect x="6999.48" y="7331.96" width="31.1" height="23.92"/>
			<rect x="7108.31" y="7331.96" width="31.1" height="23.92"/>
			<rect x="7053.9" y="7331.96" width="31.1" height="23.92"/>
			<rect x="7162.73" y="7331.96" width="31.1" height="23.92"/>
			<rect x="7217.15" y="7331.96" width="31.1" height="23.92"/>
			<rect x="7271.57" y="7331.96" width="31.1" height="23.92"/>
			<rect x="7325.99" y="7331.96" width="31.1" height="23.92"/>
			<rect x="7380.42" y="7331.96" width="31.1" height="23.92"/>
		</g>
		<g>
			<rect x="6999.48" y="7372.48" width="31.1" height="23.92"/>
			<rect x="7108.31" y="7372.48" width="31.1" height="23.92"/>
			<rect x="7053.9" y="7372.48" width="31.1" height="23.92"/>
			<rect x="7162.73" y="7372.48" width="31.1" height="23.92"/>
			<rect x="7217.15" y="7372.48" width="31.1" height="23.92"/>
			<rect x="7271.57" y="7372.48" width="31.1" height="23.92"/>
			<rect x="7325.99" y="7372.48" width="31.1" height="23.92"/>
			<rect x="7380.42" y="7372.48" width="31.1" height="23.92"/>
		</g>
		<g>
			<rect x="6999.48" y="7412.99" width="31.1" height="23.92"/>
			<rect x="7108.31" y="7412.99" width="31.1" height="23.92"/>
			<rect x="7053.9" y="7412.99" width="31.1" height="23.92"/>
			<rect x="7162.73" y="7412.99" width="31.1" height="23.92"/>
			<rect x="7217.15" y="7412.99" width="31.1" height="23.92"/>
			<rect x="7271.57" y="7412.99" width="31.1" height="23.92"/>
			<rect x="7325.99" y="7412.99" width="31.1" height="23.92"/>
			<rect x="7380.42" y="7412.99" width="31.1" height="23.92"/>
		</g>
		<rect x="6953.06" y="7332.65" class="st53" width="28.22" height="21.71"/>
		<rect x="6953.06" y="7373.21" class="st53" width="28.22" height="21.71"/>
		<rect x="6953.06" y="7418.18" class="st53" width="28.22" height="21.71"/>
		<rect x="7424.3" y="7377.03" class="st53" width="28.22" height="21.71"/>
		<rect x="7424.3" y="7416.11" class="st53" width="28.22" height="21.71"/>
	</g>
</g>
</svg>
