<?xml version="1.0" encoding="utf-8"?>
<!-- Generator: Adobe Illustrator 25.2.0, SVG Export Plug-In . SVG Version: 6.00 Build 0)  -->
<svg version="1.1" xmlns="http://www.w3.org/2000/svg" xmlns:xlink="http://www.w3.org/1999/xlink" x="0px" y="0px"
	 viewBox="0 0 1920 1080" style="enable-background:new 0 0 1920 1080;" xml:space="preserve">
<style type="text/css">
	.st0{fill:url(#SVGID_1_);}
	.st1{fill:#FFFFFF;}
	.st2{fill:#332D12;stroke:#E51A4F;stroke-miterlimit:10;}
	.st3{fill:#EACC4E;}
	.st4{fill:url(#SVGID_2_);}
	.st5{fill:url(#SVGID_3_);}
	.st6{fill:url(#SVGID_4_);}
	.st7{fill:url(#SVGID_5_);}
	.st8{fill:url(#SVGID_6_);}
	.st9{fill:url(#SVGID_7_);}
	.st10{fill:url(#SVGID_8_);}
	.st11{fill:url(#SVGID_9_);}
	.st12{fill:url(#SVGID_10_);}
	.st13{fill:url(#SVGID_11_);}
	.st14{fill:url(#SVGID_12_);}
	.st15{fill:url(#SVGID_13_);}
	.st16{fill:url(#SVGID_14_);}
	.st17{fill:url(#SVGID_15_);}
	.st18{fill:url(#SVGID_16_);}
	.st19{fill:url(#SVGID_17_);}
	.st20{fill:url(#SVGID_18_);}
	.st21{fill:url(#SVGID_19_);}
	.st22{fill:url(#SVGID_20_);}
	.st23{fill:url(#SVGID_21_);}
	.st24{fill:url(#SVGID_22_);}
	.st25{fill:url(#SVGID_23_);}
	.st26{fill:url(#SVGID_24_);}
	.st27{fill:url(#SVGID_25_);}
	.st28{fill:url(#SVGID_26_);}
	.st29{fill:url(#SVGID_27_);}
	.st30{fill:url(#SVGID_28_);}
	.st31{fill:url(#SVGID_29_);}
	.st32{fill:url(#SVGID_30_);}
	.st33{fill:url(#SVGID_31_);}
	.st34{fill:url(#SVGID_32_);}
	.st35{fill:url(#SVGID_33_);}
	.st36{fill:url(#SVGID_34_);}
	.st37{fill:url(#SVGID_35_);}
	.st38{fill:url(#SVGID_36_);}
	.st39{fill:url(#SVGID_37_);}
	.st40{fill:url(#SVGID_38_);}
	.st41{fill:url(#SVGID_39_);}
	.st42{fill:url(#SVGID_40_);}
	.st43{fill:url(#SVGID_41_);}
	.st44{fill:url(#SVGID_42_);}
	.st45{fill:url(#SVGID_43_);}
	.st46{fill:url(#SVGID_44_);}
	.st47{fill:url(#SVGID_45_);}
	.st48{fill:url(#SVGID_46_);}
	.st49{fill:url(#SVGID_47_);}
	.st50{fill:url(#SVGID_48_);}
	.st51{fill:url(#SVGID_49_);}
	.st52{fill:url(#SVGID_50_);}
	.st53{fill:#E51A4F;}
	.st54{display:none;}
	.st55{display:inline;}
	.st56{fill:url(#SVGID_51_);}
	.st57{fill:#F7E4AD;}
	.st58{fill:#020100;}
	.st59{fill:#070604;}
	.st60{fill:#07492E;}
	.st61{fill:#564211;}
	.st62{fill:url(#SVGID_52_);}
	.st63{fill:#877612;}
	.st64{fill:url(#SVGID_53_);}
	.st65{fill:#B3B7B6;}
	.st66{fill:#332A04;}
	.st67{fill:#7A5426;}
	.st68{fill:url(#SVGID_54_);}
	.st69{fill:#EDEBAE;}
	.st70{fill:url(#SVGID_55_);}
	.st71{fill:#493C05;stroke:#B3B7B6;stroke-miterlimit:10;}
	.st72{fill:url(#SVGID_56_);}
	.st73{fill:#CACECC;}
	.st74{fill:#A7AAA8;}
	.st75{fill:#676D6A;}
	.st76{fill:url(#SVGID_57_);}
	.st77{fill:url(#SVGID_58_);}
	.st78{fill:#FCFCFC;}
	.st79{fill:#676D6A;stroke:#000000;stroke-miterlimit:10;}
	.st80{fill:url(#SVGID_59_);}
	.st81{fill:url(#SVGID_60_);}
	.st82{fill:#444707;}
	.st83{fill:url(#SVGID_61_);}
</style>
<g id="Vrstva_2">
	<g>
		<linearGradient id="SVGID_1_" gradientUnits="userSpaceOnUse" x1="705.4106" y1="830.7118" x2="1214.5894" y2="-51.2118">
			<stop  offset="4.466094e-03" style="stop-color:#3FA9F5"/>
			<stop  offset="1" style="stop-color:#0071BC"/>
		</linearGradient>
		<rect x="269" y="200.75" class="st0" width="1382" height="378"/>
		<path class="st1" d="M711.25,443.75c50.94-2.25,63.52-26.52,92-17c20.23,6.76,38.23,27.15,35,41c-1.15,4.95-5.97,13.16-76,27
			c-74.2,14.67-85.66,8.79-92,3c-14.06-12.83-17.86-38.79-8-50C670.48,438.38,683.24,444.99,711.25,443.75z"/>
		<path class="st1" d="M1281.25,434.75c8.1,13.43-5,41.63-24,52c-19.44,10.62-35.45-2.68-102-14c-34.29-5.84-43.54-4.6-44-8
			C1109.37,450.82,1261.35,401.76,1281.25,434.75z"/>
		<rect x="269" y="551.25" class="st2" width="1382" height="328"/>
		<g>
			<g>
				<path class="st3" d="M651.05,638.52c81.61,1.75,163.22,3.51,244.83,5.26c80.68,1.73,161.48,4.58,242.18,2.09
					c46.32-1.43,92.5-4.97,138.4-11.4c8.58-1.2,14.02-12.58,11.52-20.3c-3.05-9.41-11.1-12.81-20.3-11.52
					c-4.21,0.59-7.15,0.98-12.17,1.6c-5.2,0.64-10.4,1.25-15.6,1.82c-10.08,1.1-20.18,2.05-30.29,2.88
					c-19.9,1.63-39.83,2.76-59.78,3.52c-39.96,1.52-79.97,1.54-119.95,1.01c-80.58-1.07-161.16-3.27-241.72-5
					c-45.71-0.98-91.41-1.96-137.12-2.95c-8.63-0.19-16.89,7.72-16.5,16.5C634.96,631.12,641.8,638.32,651.05,638.52L651.05,638.52z
					"/>
			</g>
		</g>
		<g>
			<g>
				<path class="st3" d="M597.54,695.76c88.27,12.9,177.17,6.33,265.97,6.47c87.64,0.14,175.16,6.37,262.81,5.57
					c50.38-0.46,100.64-3.52,150.52-10.79c8.57-1.25,14.03-12.55,11.52-20.3c-3.03-9.37-11.11-12.86-20.3-11.52
					c-83.19,12.13-171.93,10.47-257.39,7.69c-43.49-1.41-86.98-3.13-130.5-3.56c-43.41-0.43-86.79,1.05-130.19,1.55
					c-24.1,0.28-48.21,0.22-72.3-0.75c-23.7-0.96-49.53-3-71.37-6.19c-8.5-1.24-18.15,2.1-20.3,11.52
					C584.23,683.29,588.4,694.43,597.54,695.76L597.54,695.76z"/>
			</g>
		</g>
		<g>
			<g>
				<path class="st3" d="M583.63,756.51c97.95-8.37,196.37-10.98,294.62-7.72c48.53,1.61,96.99,4.71,145.34,9.1
					c46.01,4.17,92.02,9.08,138.25,10.06c52.52,1.12,105.77-3.1,156.13-18.78c8.23-2.56,14.33-11.62,11.52-20.3
					c-2.68-8.28-11.47-14.27-20.3-11.52c-44.11,13.73-86.16,17.86-132.46,17.77c-46.22-0.08-92.28-4.6-138.26-8.87
					c-96.72-8.98-193.7-13.25-290.84-11.37c-54.75,1.06-109.45,3.96-164.01,8.62c-8.58,0.73-16.92,7.06-16.5,16.5
					C567.5,748.32,574.42,757.3,583.63,756.51L583.63,756.51z"/>
			</g>
		</g>
		<g>
			<g>
				<path class="st3" d="M1357.32,789.55c-103.29-3.73-206.58-7.47-309.87-11.2c-51.48-1.86-102.96-3.72-154.44-5.58
					c-50.46-1.82-100.95-4.28-151.45-4.4c-56.93-0.13-114.14,3.41-169.81,15.94c-8.43,1.9-14.18,12.1-11.52,20.3
					c2.86,8.84,11.27,13.56,20.3,11.52c24.72-5.56,47.18-8.95,71.54-11.2c24.62-2.27,49.34-3.27,74.05-3.51
					c50.33-0.48,100.67,1.95,150.95,3.77c102.29,3.7,204.59,7.39,306.88,11.09c57.79,2.09,115.58,4.18,173.37,6.27
					c8.64,0.31,16.89-7.81,16.5-16.5C1373.41,796.85,1366.57,789.89,1357.32,789.55L1357.32,789.55z"/>
			</g>
		</g>
		<g>
			<g>
				<path class="st3" d="M588.77,868.84c97.31-5.74,194.85-4.79,292.26-2.53c97.43,2.26,194.85,5.05,292.28,7.61
					c54.92,1.44,109.84,2.89,164.75,4.33c8.64,0.23,16.89-7.75,16.5-16.5c-0.41-9.13-7.25-16.26-16.5-16.5
					c-97.85-2.57-195.71-5.14-293.56-7.72c-97.23-2.56-194.49-5.92-291.77-6.01c-54.68-0.05-109.37,1.09-163.96,4.31
					c-8.6,0.51-16.92,7.23-16.5,16.5C572.65,860.84,579.54,869.38,588.77,868.84L588.77,868.84z"/>
			</g>
		</g>
		<g>
			
				<linearGradient id="SVGID_2_" gradientUnits="userSpaceOnUse" x1="136.9076" y1="439.2793" x2="213.9736" y2="439.2793" gradientTransform="matrix(0.5 -0.866 0.866 0.5 -168.1746 463.7131)">
				<stop  offset="4.466925e-03" style="stop-color:#39B54A"/>
				<stop  offset="1" style="stop-color:#006837"/>
			</linearGradient>
			<path class="st4" d="M269.25,506.19c11.82-14.18,32.81-18.06,49.75-8.28c18.89,10.91,25.59,34.68,14.96,53.09
				c-11.77,20.39-38.44,21.06-53.46,13.59c-5.29-2.63-8.95-6.17-11.25-8.84"/>
			<linearGradient id="SVGID_3_" gradientUnits="userSpaceOnUse" x1="323.7908" y1="480.8398" x2="360.5568" y2="549.2654">
				<stop  offset="4.466925e-03" style="stop-color:#39B54A"/>
				<stop  offset="1" style="stop-color:#006837"/>
			</linearGradient>
			<ellipse class="st5" cx="338.25" cy="507.75" rx="22" ry="67"/>
			<linearGradient id="SVGID_4_" gradientUnits="userSpaceOnUse" x1="352.9651" y1="512.9203" x2="389.5349" y2="449.5797">
				<stop  offset="4.466925e-03" style="stop-color:#39B54A"/>
				<stop  offset="1" style="stop-color:#006837"/>
			</linearGradient>
			<ellipse class="st6" cx="371.25" cy="481.25" rx="30" ry="38.5"/>
			<linearGradient id="SVGID_5_" gradientUnits="userSpaceOnUse" x1="386.3128" y1="574.2463" x2="430.1872" y2="498.2536">
				<stop  offset="4.466925e-03" style="stop-color:#39B54A"/>
				<stop  offset="1" style="stop-color:#006837"/>
			</linearGradient>
			<ellipse class="st7" cx="408.25" cy="536.25" rx="59" ry="37.5"/>
			<linearGradient id="SVGID_6_" gradientUnits="userSpaceOnUse" x1="465.0793" y1="556.5624" x2="491.4207" y2="510.9376">
				<stop  offset="4.466925e-03" style="stop-color:#39B54A"/>
				<stop  offset="1" style="stop-color:#006837"/>
			</linearGradient>
			<ellipse class="st8" cx="478.25" cy="533.75" rx="30" ry="25"/>
			<linearGradient id="SVGID_7_" gradientUnits="userSpaceOnUse" x1="497.1569" y1="549.3465" x2="546.3431" y2="464.1535">
				<stop  offset="4.466925e-03" style="stop-color:#39B54A"/>
				<stop  offset="1" style="stop-color:#006837"/>
			</linearGradient>
			<ellipse class="st9" cx="521.75" cy="506.75" rx="39.5" ry="52"/>
			<linearGradient id="SVGID_8_" gradientUnits="userSpaceOnUse" x1="618.6681" y1="553.4348" x2="655.8319" y2="489.0652">
				<stop  offset="4.466925e-03" style="stop-color:#39B54A"/>
				<stop  offset="1" style="stop-color:#006837"/>
			</linearGradient>
			<ellipse class="st10" cx="637.25" cy="521.25" rx="29" ry="39.5"/>
			<linearGradient id="SVGID_9_" gradientUnits="userSpaceOnUse" x1="669.2221" y1="568.949" x2="694.2779" y2="525.551">
				<stop  offset="4.466925e-03" style="stop-color:#39B54A"/>
				<stop  offset="1" style="stop-color:#006837"/>
			</linearGradient>
			<ellipse class="st11" cx="681.75" cy="547.25" rx="31.5" ry="22.5"/>
			<linearGradient id="SVGID_10_" gradientUnits="userSpaceOnUse" x1="709.4277" y1="567.4133" x2="754.0723" y2="490.0867">
				<stop  offset="4.466925e-03" style="stop-color:#39B54A"/>
				<stop  offset="1" style="stop-color:#006837"/>
			</linearGradient>
			<ellipse class="st12" cx="731.75" cy="528.75" rx="32.5" ry="48"/>
			<linearGradient id="SVGID_11_" gradientUnits="userSpaceOnUse" x1="772.7382" y1="585.2154" x2="806.7618" y2="526.2846">
				<stop  offset="4.466925e-03" style="stop-color:#39B54A"/>
				<stop  offset="1" style="stop-color:#006837"/>
			</linearGradient>
			<ellipse class="st13" cx="789.75" cy="555.75" rx="57.5" ry="21"/>
			<linearGradient id="SVGID_12_" gradientUnits="userSpaceOnUse" x1="804.5568" y1="542.9935" x2="842.9432" y2="476.5065">
				<stop  offset="4.466925e-03" style="stop-color:#39B54A"/>
				<stop  offset="1" style="stop-color:#006837"/>
			</linearGradient>
			<ellipse class="st14" cx="823.75" cy="509.75" rx="39.5" ry="38"/>
			
				<linearGradient id="SVGID_13_" gradientUnits="userSpaceOnUse" x1="926.245" y1="558.1862" x2="958.7611" y2="501.8666" gradientTransform="matrix(0.866 0.5 -0.5 0.866 312.0316 -388.5179)">
				<stop  offset="4.466925e-03" style="stop-color:#39B54A"/>
				<stop  offset="1" style="stop-color:#006837"/>
			</linearGradient>
			<path class="st15" d="M833.81,524.75c-8.84,15.31-2.82,35.32,13.44,44.71c16.26,9.39,36.61,4.59,45.44-10.71
				s2.82-35.32-13.44-44.71C862.99,504.65,842.64,509.44,833.81,524.75z"/>
			<linearGradient id="SVGID_14_" gradientUnits="userSpaceOnUse" x1="892.8481" y1="549.5912" x2="954.6519" y2="513.9088">
				<stop  offset="4.466925e-03" style="stop-color:#39B54A"/>
				<stop  offset="1" style="stop-color:#006837"/>
			</linearGradient>
			<ellipse class="st16" cx="923.75" cy="531.75" rx="34.5" ry="39"/>
			<linearGradient id="SVGID_15_" gradientUnits="userSpaceOnUse" x1="947.1855" y1="560.3813" x2="1027.3146" y2="514.1187">
				<stop  offset="4.466925e-03" style="stop-color:#39B54A"/>
				<stop  offset="1" style="stop-color:#006837"/>
			</linearGradient>
			<ellipse class="st17" cx="987.25" cy="537.25" rx="50" ry="32.5"/>
			<linearGradient id="SVGID_16_" gradientUnits="userSpaceOnUse" x1="990.0863" y1="508.5725" x2="1067.4137" y2="463.9275">
				<stop  offset="4.466925e-03" style="stop-color:#39B54A"/>
				<stop  offset="1" style="stop-color:#006837"/>
			</linearGradient>
			<ellipse class="st18" cx="1028.75" cy="486.25" rx="46.5" ry="38.5"/>
			<linearGradient id="SVGID_17_" gradientUnits="userSpaceOnUse" x1="1027.9977" y1="552.9841" x2="1082.5023" y2="521.5159">
				<stop  offset="4.466925e-03" style="stop-color:#39B54A"/>
				<stop  offset="1" style="stop-color:#006837"/>
			</linearGradient>
			<ellipse class="st19" cx="1055.25" cy="537.25" rx="30" ry="35.5"/>
			<linearGradient id="SVGID_18_" gradientUnits="userSpaceOnUse" x1="1159.3521" y1="556.7588" x2="1206.1479" y2="529.7412">
				<stop  offset="4.466925e-03" style="stop-color:#39B54A"/>
				<stop  offset="1" style="stop-color:#006837"/>
			</linearGradient>
			<ellipse class="st20" cx="1182.75" cy="543.25" rx="26.5" ry="28.5"/>
			<linearGradient id="SVGID_19_" gradientUnits="userSpaceOnUse" x1="1078.1831" y1="556.2279" x2="1154.3169" y2="512.2721">
				<stop  offset="4.466925e-03" style="stop-color:#39B54A"/>
				<stop  offset="1" style="stop-color:#006837"/>
			</linearGradient>
			<ellipse class="st21" cx="1116.25" cy="534.25" rx="48" ry="28.5"/>
			<linearGradient id="SVGID_20_" gradientUnits="userSpaceOnUse" x1="1167.1483" y1="505.5519" x2="1225.3517" y2="471.9481">
				<stop  offset="4.466925e-03" style="stop-color:#39B54A"/>
				<stop  offset="1" style="stop-color:#006837"/>
			</linearGradient>
			<ellipse class="st22" cx="1196.25" cy="488.75" rx="32" ry="38"/>
			<linearGradient id="SVGID_21_" gradientUnits="userSpaceOnUse" x1="1194.8024" y1="560.9836" x2="1259.6976" y2="523.5164">
				<stop  offset="4.466925e-03" style="stop-color:#39B54A"/>
				<stop  offset="1" style="stop-color:#006837"/>
			</linearGradient>
			<ellipse class="st23" cx="1227.25" cy="542.25" rx="40" ry="28.5"/>
			<linearGradient id="SVGID_22_" gradientUnits="userSpaceOnUse" x1="1236.457" y1="539.4151" x2="1308.043" y2="498.0849">
				<stop  offset="4.466925e-03" style="stop-color:#39B54A"/>
				<stop  offset="1" style="stop-color:#006837"/>
			</linearGradient>
			<ellipse class="st24" cx="1272.25" cy="518.75" rx="38" ry="50"/>
			<linearGradient id="SVGID_23_" gradientUnits="userSpaceOnUse" x1="1303.7358" y1="558.3989" x2="1317.7642" y2="534.1011">
				<stop  offset="4.466925e-03" style="stop-color:#39B54A"/>
				<stop  offset="1" style="stop-color:#006837"/>
			</linearGradient>
			<ellipse class="st25" cx="1310.75" cy="546.25" rx="15.5" ry="13.5"/>
			<linearGradient id="SVGID_24_" gradientUnits="userSpaceOnUse" x1="1402.0809" y1="552.2556" x2="1434.4191" y2="496.2444">
				<stop  offset="4.466925e-03" style="stop-color:#39B54A"/>
				<stop  offset="1" style="stop-color:#006837"/>
			</linearGradient>
			<ellipse class="st26" cx="1418.25" cy="524.25" rx="20" ry="35.5"/>
			<linearGradient id="SVGID_25_" gradientUnits="userSpaceOnUse" x1="1491.1465" y1="572.1061" x2="1527.3535" y2="509.3939">
				<stop  offset="4.466925e-03" style="stop-color:#39B54A"/>
				<stop  offset="1" style="stop-color:#006837"/>
			</linearGradient>
			<ellipse class="st27" cx="1509.25" cy="540.75" rx="21" ry="40"/>
			<linearGradient id="SVGID_26_" gradientUnits="userSpaceOnUse" x1="1546.6777" y1="573.8199" x2="1580.8223" y2="514.6801">
				<stop  offset="4.466925e-03" style="stop-color:#39B54A"/>
				<stop  offset="1" style="stop-color:#006837"/>
			</linearGradient>
			<ellipse class="st28" cx="1563.75" cy="544.25" rx="53.5" ry="24.5"/>
			<linearGradient id="SVGID_27_" gradientUnits="userSpaceOnUse" x1="1401.491" y1="566.2512" x2="1424.009" y2="527.2488">
				<stop  offset="4.466925e-03" style="stop-color:#39B54A"/>
				<stop  offset="1" style="stop-color:#006837"/>
			</linearGradient>
			<ellipse class="st29" cx="1412.75" cy="546.75" rx="32.5" ry="18"/>
			<linearGradient id="SVGID_28_" gradientUnits="userSpaceOnUse" x1="1446.1602" y1="566.8243" x2="1469.3398" y2="526.6757">
				<stop  offset="4.466925e-03" style="stop-color:#39B54A"/>
				<stop  offset="1" style="stop-color:#006837"/>
			</linearGradient>
			<ellipse class="st30" cx="1457.75" cy="546.75" rx="20.5" ry="24"/>
			<linearGradient id="SVGID_29_" gradientUnits="userSpaceOnUse" x1="1474.6042" y1="559.6269" x2="1488.8958" y2="534.8731">
				<stop  offset="4.466925e-03" style="stop-color:#39B54A"/>
				<stop  offset="1" style="stop-color:#006837"/>
			</linearGradient>
			<ellipse class="st31" cx="1481.75" cy="547.25" rx="20.5" ry="11.5"/>
			<linearGradient id="SVGID_30_" gradientUnits="userSpaceOnUse" x1="1609.7252" y1="555.6872" x2="1644.231" y2="495.9215">
				<stop  offset="4.466925e-03" style="stop-color:#39B54A"/>
				<stop  offset="1" style="stop-color:#006837"/>
			</linearGradient>
			<path class="st32" d="M1650.62,552.08c-6.09,5.4-14.1,8.67-22.87,8.67c-19.05,0-34.5-15.45-34.5-34.5s15.45-34.5,34.5-34.5
				c8.85,0,16.93,3.33,23.03,8.81"/>
			<linearGradient id="SVGID_31_" gradientUnits="userSpaceOnUse" x1="1599.6952" y1="542.2543" x2="1619.6985" y2="507.6075">
				<stop  offset="4.466925e-03" style="stop-color:#39B54A"/>
				<stop  offset="1" style="stop-color:#006837"/>
			</linearGradient>
			<circle class="st33" cx="1609.7" cy="524.93" r="20"/>
			<linearGradient id="SVGID_32_" gradientUnits="userSpaceOnUse" x1="1600.6332" y1="567.1389" x2="1621.8668" y2="530.3611">
				<stop  offset="4.466925e-03" style="stop-color:#39B54A"/>
				<stop  offset="1" style="stop-color:#006837"/>
			</linearGradient>
			<ellipse class="st34" cx="1611.25" cy="548.75" rx="36" ry="13"/>
		</g>
		<g>
			
				<linearGradient id="SVGID_33_" gradientUnits="userSpaceOnUse" x1="1061.0054" y1="565.5452" x2="1113.0054" y2="565.5452" gradientTransform="matrix(-1 0 0 1 2450.3403 0)">
				<stop  offset="4.466648e-03" style="stop-color:#808080"/>
				<stop  offset="1" style="stop-color:#E6E6E6"/>
			</linearGradient>
			<polyline class="st35" points="1389.34,487.12 1389.34,646.01 1337.34,646.01 1337.34,486.74 1386.94,485.09 			"/>
			
				<linearGradient id="SVGID_34_" gradientUnits="userSpaceOnUse" x1="936.5053" y1="681.5053" x2="1115.0054" y2="681.5053" gradientTransform="matrix(-1 0 0 1 2450.3403 0)">
				<stop  offset="4.466648e-03" style="stop-color:#808080"/>
				<stop  offset="1" style="stop-color:#E6E6E6"/>
			</linearGradient>
			<path class="st36" d="M1511.34,808.01l-176-161c0-30.67,0-61.33,0-92c59.5,52.83,119,105.67,178.5,158.5L1511.34,808.01z"/>
			
				<linearGradient id="SVGID_35_" gradientUnits="userSpaceOnUse" x1="965.348" y1="636.4052" x2="1153.3336" y2="636.4052" gradientTransform="matrix(-1.0584 0.1096 0.1097 1.0597 2497.1216 -159.2735)">
				<stop  offset="4.466648e-03" style="stop-color:#808080"/>
				<stop  offset="1" style="stop-color:#E6E6E6"/>
			</linearGradient>
			<path class="st37" d="M1389.34,553.01c-17.33,0.67-34.67,1.33-52,2c55.24,52.55,110.49,105.1,165.73,157.65
				c16.76-4.55,33.51-9.1,50.27-13.65C1498.67,650.34,1444,601.67,1389.34,553.01z"/>
			
				<linearGradient id="SVGID_36_" gradientUnits="userSpaceOnUse" x1="863.0053" y1="728.5053" x2="938.0053" y2="728.5053" gradientTransform="matrix(-1 0 0 1 2450.3403 0)">
				<stop  offset="4.466648e-03" style="stop-color:#808080"/>
				<stop  offset="1" style="stop-color:#E6E6E6"/>
			</linearGradient>
			<polygon class="st38" points="1587.34,648.01 1587.34,809.01 1512.34,809.01 1512.34,649.74 			"/>
			
				<linearGradient id="SVGID_37_" gradientUnits="userSpaceOnUse" x1="1111.9415" y1="553.3776" x2="1145.0054" y2="553.3776" gradientTransform="matrix(-1 0 0 1 2450.3403 0)">
				<stop  offset="4.466648e-03" style="stop-color:#808080"/>
				<stop  offset="1" style="stop-color:#E6E6E6"/>
			</linearGradient>
			<path class="st39" d="M1335.25,647.75c-9.97-9.8-19.94-19.6-29.91-29.4V459.01l33.06,28.1c-0.17,26.13-0.5,52.57-1.02,79.29
				C1336.84,593.83,1336.13,620.95,1335.25,647.75z"/>
			
				<linearGradient id="SVGID_38_" gradientUnits="userSpaceOnUse" x1="936.9415" y1="715.3883" x2="970.0053" y2="715.3883" gradientTransform="matrix(-1 0 0 1 2450.3403 0)">
				<stop  offset="4.466648e-03" style="stop-color:#808080"/>
				<stop  offset="1" style="stop-color:#E6E6E6"/>
			</linearGradient>
			<path class="st40" d="M1512.51,808.73l-32.17-27.34V622.05l33.06,28.1C1513.4,650.14,1510.97,808.73,1512.51,808.73z"/>
			
				<linearGradient id="SVGID_39_" gradientUnits="userSpaceOnUse" x1="863.0053" y1="636.5053" x2="970.0053" y2="636.5053" gradientTransform="matrix(-1 0 0 1 2450.3403 0)">
				<stop  offset="4.466648e-03" style="stop-color:#808080"/>
				<stop  offset="1" style="stop-color:#E6E6E6"/>
			</linearGradient>
			<path class="st41" d="M1587.34,648.01c-24.67,1-49.33,2-74,3c-11-9.65-22-19.3-33-28.96l77-0.04
				C1562.3,625.26,1583.51,643.67,1587.34,648.01z"/>
			
				<linearGradient id="SVGID_40_" gradientUnits="userSpaceOnUse" x1="1061.0054" y1="473.5053" x2="1145.0054" y2="473.5053" gradientTransform="matrix(-1 0 0 1 2450.3403 0)">
				<stop  offset="4.466648e-03" style="stop-color:#808080"/>
				<stop  offset="1" style="stop-color:#E6E6E6"/>
			</linearGradient>
			<path class="st42" d="M1389.34,487.01c-17,0.33-34,0.67-51,1c-11-9.67-22-19.33-33-29c17.67,0,35.33,0,53,0
				C1368.67,468.34,1379,477.67,1389.34,487.01z"/>
			
				<linearGradient id="SVGID_41_" gradientUnits="userSpaceOnUse" x1="1028.496" y1="692.5734" x2="1063.0054" y2="692.5734" gradientTransform="matrix(-1 0 0 1 2450.3403 0)">
				<stop  offset="4.466648e-03" style="stop-color:#808080"/>
				<stop  offset="1" style="stop-color:#000000"/>
			</linearGradient>
			<path class="st43" d="M1387.34,695.01c9.67,8.67,19.33,17.33,29,26c6.19-17.94,5.95-31.77,5-40c-1.33-11.48-4.34-14.72-7-16
				c-4.7-2.27-10.26,0.6-11,1c-2.49,1.33-4.82,3.7-11,17C1390.99,685.9,1389.2,689.98,1387.34,695.01z"/>
		</g>
		<g>
			<linearGradient id="SVGID_42_" gradientUnits="userSpaceOnUse" x1="542.1649" y1="565.5452" x2="594.1649" y2="565.5452">
				<stop  offset="4.466648e-03" style="stop-color:#808080"/>
				<stop  offset="1" style="stop-color:#E6E6E6"/>
			</linearGradient>
			<polyline class="st44" points="542.16,487.12 542.16,646.01 594.16,646.01 594.16,486.74 544.56,485.09 			"/>
			<linearGradient id="SVGID_43_" gradientUnits="userSpaceOnUse" x1="417.6649" y1="681.5053" x2="596.1649" y2="681.5053">
				<stop  offset="4.466648e-03" style="stop-color:#808080"/>
				<stop  offset="1" style="stop-color:#E6E6E6"/>
			</linearGradient>
			<path class="st45" d="M420.16,808.01l176-161c0-30.67,0-61.33,0-92c-59.5,52.83-119,105.67-178.5,158.5L420.16,808.01z"/>
			
				<linearGradient id="SVGID_44_" gradientUnits="userSpaceOnUse" x1="480.3213" y1="686.5604" x2="668.307" y2="686.5604" gradientTransform="matrix(1.0584 0.1096 -0.1097 1.0597 -46.7812 -159.2735)">
				<stop  offset="4.466648e-03" style="stop-color:#808080"/>
				<stop  offset="1" style="stop-color:#E6E6E6"/>
			</linearGradient>
			<path class="st46" d="M542.16,553.01c17.33,0.67,34.67,1.33,52,2c-55.24,52.55-110.49,105.1-165.73,157.65
				c-16.76-4.55-33.51-9.1-50.27-13.65C432.83,650.34,487.5,601.67,542.16,553.01z"/>
			<linearGradient id="SVGID_45_" gradientUnits="userSpaceOnUse" x1="344.1649" y1="728.5053" x2="419.1649" y2="728.5053">
				<stop  offset="4.466648e-03" style="stop-color:#808080"/>
				<stop  offset="1" style="stop-color:#E6E6E6"/>
			</linearGradient>
			<polygon class="st47" points="344.16,648.01 344.16,809.01 419.16,809.01 419.16,649.74 			"/>
			<linearGradient id="SVGID_46_" gradientUnits="userSpaceOnUse" x1="593.1011" y1="553.3777" x2="626.1649" y2="553.3777">
				<stop  offset="4.466648e-03" style="stop-color:#808080"/>
				<stop  offset="1" style="stop-color:#E6E6E6"/>
			</linearGradient>
			<path class="st48" d="M596.25,647.75c9.97-9.8,19.94-19.6,29.91-29.4V459.01l-33.06,28.1c0.17,26.13,0.5,52.57,1.02,79.29
				C594.66,593.83,595.37,620.95,596.25,647.75z"/>
			<linearGradient id="SVGID_47_" gradientUnits="userSpaceOnUse" x1="418.1011" y1="715.3883" x2="451.25" y2="715.3883">
				<stop  offset="4.466648e-03" style="stop-color:#808080"/>
				<stop  offset="1" style="stop-color:#E6E6E6"/>
			</linearGradient>
			<path class="st49" d="M418.99,808.73c10.75-9.66,21.5-19.32,32.26-28.98c-0.03-52.57-0.06-105.13-0.09-157.7l-33.06,28.1
				C418.1,650.14,420.53,808.73,418.99,808.73z"/>
			<linearGradient id="SVGID_48_" gradientUnits="userSpaceOnUse" x1="344.1649" y1="636.5053" x2="451.1649" y2="636.5053">
				<stop  offset="4.466648e-03" style="stop-color:#808080"/>
				<stop  offset="1" style="stop-color:#E6E6E6"/>
			</linearGradient>
			<path class="st50" d="M344.16,648.01c24.67,1,49.33,2,74,3c11-9.65,22-19.3,33-28.96l-77-0.04
				C369.2,625.26,347.99,643.67,344.16,648.01z"/>
			<linearGradient id="SVGID_49_" gradientUnits="userSpaceOnUse" x1="542.1649" y1="473.5053" x2="626.1649" y2="473.5053">
				<stop  offset="4.466648e-03" style="stop-color:#808080"/>
				<stop  offset="1" style="stop-color:#E6E6E6"/>
			</linearGradient>
			<path class="st51" d="M542.16,487.01c17,0.33,34,0.67,51,1c11-9.67,22-19.33,33-29c-17.67,0-35.33,0-53,0
				C562.83,468.34,552.5,477.67,542.16,487.01z"/>
			<linearGradient id="SVGID_50_" gradientUnits="userSpaceOnUse" x1="509.6555" y1="692.5734" x2="544.1649" y2="692.5734">
				<stop  offset="4.466648e-03" style="stop-color:#808080"/>
				<stop  offset="1" style="stop-color:#000000"/>
			</linearGradient>
			<path class="st52" d="M544.16,695.01c-9.67,8.67-19.33,17.33-29,26c-6.19-17.94-5.95-31.77-5-40c1.33-11.48,4.34-14.72,7-16
				c4.7-2.27,10.26,0.6,11,1c2.49,1.33,4.82,3.7,11,17C540.51,685.9,542.3,689.98,544.16,695.01z"/>
		</g>
		<g>
			<g>
				<rect x="688.7" y="609.75" width="42.18" height="32.44"/>
				<rect x="836.32" y="609.75" width="42.18" height="32.44"/>
				<rect x="762.51" y="609.75" width="42.18" height="32.44"/>
				<rect x="910.13" y="609.75" width="42.18" height="32.44"/>
				<rect x="983.95" y="609.75" width="42.18" height="32.44"/>
				<rect x="1057.76" y="609.75" width="42.18" height="32.44"/>
				<rect x="1131.57" y="609.75" width="42.18" height="32.44"/>
				<rect x="1205.38" y="609.75" width="42.18" height="32.44"/>
			</g>
			<rect x="625.74" y="611.39" class="st53" width="38.28" height="29.45"/>
			<rect x="625.74" y="668.39" class="st53" width="38.28" height="29.45"/>
			<rect x="1264.91" y="610.39" class="st53" width="38.28" height="29.45"/>
			<rect x="1264.91" y="666.39" class="st53" width="38.28" height="29.45"/>
			<rect x="1264.91" y="722.39" class="st53" width="38.28" height="29.45"/>
			<g>
				<rect x="688.7" y="664.7" width="42.18" height="32.44"/>
				<rect x="836.32" y="664.7" width="42.18" height="32.44"/>
				<rect x="762.51" y="664.7" width="42.18" height="32.44"/>
				<rect x="910.13" y="664.7" width="42.18" height="32.44"/>
				<rect x="983.95" y="664.7" width="42.18" height="32.44"/>
				<rect x="1057.76" y="664.7" width="42.18" height="32.44"/>
				<rect x="1131.57" y="664.7" width="42.18" height="32.44"/>
				<rect x="1205.38" y="664.7" width="42.18" height="32.44"/>
			</g>
			<g>
				<rect x="688.7" y="719.66" width="42.18" height="32.44"/>
				<rect x="836.32" y="719.66" width="42.18" height="32.44"/>
				<rect x="762.51" y="719.66" width="42.18" height="32.44"/>
				<rect x="910.13" y="719.66" width="42.18" height="32.44"/>
				<rect x="983.95" y="719.66" width="42.18" height="32.44"/>
				<rect x="1057.76" y="719.66" width="42.18" height="32.44"/>
				<rect x="1131.57" y="719.66" width="42.18" height="32.44"/>
				<rect x="1205.38" y="719.66" width="42.18" height="32.44"/>
			</g>
			<g>
				<rect x="688.7" y="774.61" width="42.18" height="32.44"/>
				<rect x="836.32" y="774.61" width="42.18" height="32.44"/>
				<rect x="762.51" y="774.61" width="42.18" height="32.44"/>
				<rect x="910.13" y="774.61" width="42.18" height="32.44"/>
				<rect x="983.95" y="774.61" width="42.18" height="32.44"/>
				<rect x="1057.76" y="774.61" width="42.18" height="32.44"/>
				<rect x="1131.57" y="774.61" width="42.18" height="32.44"/>
				<rect x="1205.38" y="774.61" width="42.18" height="32.44"/>
			</g>
			<g>
				<rect x="688.7" y="829.57" width="42.18" height="32.44"/>
				<rect x="836.32" y="829.57" width="42.18" height="32.44"/>
				<rect x="762.51" y="829.57" width="42.18" height="32.44"/>
				<rect x="910.13" y="829.57" width="42.18" height="32.44"/>
				<rect x="983.95" y="829.57" width="42.18" height="32.44"/>
				<rect x="1057.76" y="829.57" width="42.18" height="32.44"/>
				<rect x="1131.57" y="829.57" width="42.18" height="32.44"/>
				<rect x="1205.38" y="829.57" width="42.18" height="32.44"/>
			</g>
			<rect x="625.74" y="720.6" class="st53" width="38.28" height="29.45"/>
			<rect x="625.74" y="775.6" class="st53" width="38.28" height="29.45"/>
			<rect x="625.74" y="836.6" class="st53" width="38.28" height="29.45"/>
			<rect x="1264.91" y="780.79" class="st53" width="38.28" height="29.45"/>
			<rect x="1264.91" y="833.79" class="st53" width="38.28" height="29.45"/>
		</g>
	</g>
</g>
<g id="Vrstva_1" class="st54">
	<g class="st55">
		<g>
			<linearGradient id="SVGID_51_" gradientUnits="userSpaceOnUse" x1="800.8044" y1="46.0277" x2="820.3363" y2="55.9852">
				<stop  offset="4.467756e-03" style="stop-color:#F7E4AD"/>
				<stop  offset="1" style="stop-color:#CCB37D"/>
			</linearGradient>
			<circle class="st56" cx="813.5" cy="52.5" r="15.5"/>
		</g>
		<path d="M822.1,56.84c-0.1,0.84,0.21,1.65,0.83,2.08c0.87,0.59,2.28,0.35,3.07-0.75"/>
		<path d="M824.3,63.64c-0.65,0.16-1.42,0.3-2.3,0.36c-0.74,0.05-1.42,0.04-2,0c-0.33-0.33-0.67-0.67-1-1v-1L824.3,63.64z"/>
		<path class="st57" d="M817.75,79.2l-2.62,5.63c3.38,1.78,7.32,3.93,11.7,6.41c7.84,4.46,10.78,6.46,13.25,5.18
			c1.85-0.96,3.08-3.55,2.62-5.63c-0.61-2.75-3.98-3.81-14.11-7.54C823.65,81.44,819.79,79.97,817.75,79.2z"/>
		<path class="st58" d="M811.24,104.72l-7.6-0.76c-0.7,4.64-1.59,10.08-2.71,16.17c-2,10.9-3.13,15.11-0.65,17.47
			c1.86,1.76,5.36,2.13,7.6,0.76c2.95-1.82,2.81-6.16,3.04-19.42C811.02,112.48,811.16,107.4,811.24,104.72z"/>
		<path class="st59" d="M825.35,103.38l-7.56,1.09c0.43,4.67,0.87,10.17,1.25,16.35c0.67,11.07,0.59,15.43,3.56,17.12
			c2.23,1.26,5.72,0.78,7.56-1.09c2.43-2.47,1.25-6.65-1.71-19.58C827,110.96,825.92,106,825.35,103.38z"/>
		<path class="st60" d="M803,107c-0.33-11-0.67-22-1-33c2.35-2.21,4.71-4.41,7.06-6.62l9.19-0.26L826,75v31
			C818.33,106.33,810.67,106.67,803,107z"/>
		<g>
			<g>
				<g>
					<path class="st61" d="M835.42,51.53c-0.55,6.62-0.63,14.72,5.67,18.8c5.76,3.73,12.92,0.21,16.63-4.68
						c2.36-3.11,3.78-6.79,5.17-10.41c0.69-1.8-2.21-2.58-2.89-0.8c-2.32,6.05-5.82,14.44-13.57,14.43c-3.35,0-5.86-2.36-7.14-5.3
						c-1.63-3.76-1.2-8.07-0.87-12.03C838.58,49.6,835.58,49.61,835.42,51.53L835.42,51.53z"/>
				</g>
			</g>
			<g>
				<g>
					<path class="st61" d="M848.27,52.58c-2.87,16.87-6.89,33.55-12.03,49.88c-1.46,4.63-3.01,9.23-4.65,13.81
						c-0.65,1.82,2.25,2.61,2.89,0.8c5.77-16.12,10.44-32.62,13.96-49.37c1-4.75,1.9-9.52,2.72-14.31
						C851.49,51.49,848.6,50.68,848.27,52.58L848.27,52.58z"/>
				</g>
			</g>
		</g>
		
			<linearGradient id="SVGID_52_" gradientUnits="userSpaceOnUse" x1="921.9109" y1="119.1064" x2="925.4854" y2="112.7234" gradientTransform="matrix(0.9695 -0.2452 0.2452 0.9695 -92.3447 192.4212)">
			<stop  offset="4.467756e-03" style="stop-color:#F7E4AD"/>
			<stop  offset="0.1676" style="stop-color:#EDD8A2"/>
			<stop  offset="0.4266" style="stop-color:#E2CC96"/>
			<stop  offset="0.6817" style="stop-color:#DEC892"/>
			<stop  offset="0.7108" style="stop-color:#DCC690"/>
			<stop  offset="1" style="stop-color:#CCB37D"/>
		</linearGradient>
		<path class="st62" d="M816.23,73.14l-1.09,6.92c4.21,0.88,9.15,1.98,14.66,3.31c9.88,2.4,13.68,3.65,15.96,1.49
			c1.71-1.61,2.23-4.8,1.09-6.92c-1.51-2.79-5.49-2.89-17.63-3.78C823.32,73.73,818.68,73.35,816.23,73.14z"/>
		<path class="st63" d="M786,56c4-1.17,8-2.33,12-3.5c0-0.14,0-0.31,0-0.5c0.15-5.8,5.6-14.68,15-15c8.04-0.28,15.12,5.85,16,14
			c3.67,1,7.33,2,11,3C822,54.67,804,55.33,786,56z"/>
		<path class="st60" d="M817,71c0.42,0,0.71,1.01,1,2c1.31,4.53-1.46,8.28-2,9c-0.52,0.71-0.79,1.06-1,1
			C813.83,82.66,815.57,70.99,817,71z"/>
	</g>
	<g class="st55">
		<g>
			<linearGradient id="SVGID_53_" gradientUnits="userSpaceOnUse" x1="919.8594" y1="43.9682" x2="939.3913" y2="53.9257">
				<stop  offset="4.467756e-03" style="stop-color:#F7E4AD"/>
				<stop  offset="1" style="stop-color:#CCB37D"/>
			</linearGradient>
			<circle class="st64" cx="932.55" cy="50.44" r="15.5"/>
		</g>
		<path d="M941.15,54.78c-0.1,0.84,0.21,1.65,0.83,2.08c0.87,0.59,2.28,0.35,3.07-0.75"/>
		<path d="M943.35,61.58c-0.65,0.16-1.42,0.3-2.3,0.36c-0.74,0.05-1.42,0.04-2,0c-0.33-0.33-0.67-0.67-1-1v-1L943.35,61.58z"/>
		<g>
			<polygon class="st65" points="976.96,58.76 972.31,68.47 965.54,61.11 957.74,61.5 962.39,51.78 966.39,57.61 			"/>
			<g>
				<g>
					<path class="st66" d="M966.5,54.36c-1.85,5.31-3.7,10.62-5.56,15.93c-1.8,5.13-3.66,10.25-6.1,15.12
						c-0.86,1.72,1.73,3.24,2.59,1.51c2.48-4.96,4.41-10.16,6.25-15.39c1.91-5.45,3.81-10.92,5.71-16.37
						C970.03,53.33,967.13,52.54,966.5,54.36L966.5,54.36z"/>
				</g>
			</g>
		</g>
		<path class="st57" d="M935.8,71.14l-2.62,5.63c3.38,1.78,7.32,3.93,11.7,6.41c7.84,4.46,10.78,6.46,13.25,5.18
			c1.85-0.96,3.08-3.55,2.62-5.63c-0.61-2.75-3.98-3.81-14.11-7.54C941.71,73.38,937.84,71.91,935.8,71.14z"/>
		<path class="st58" d="M930.29,102.66l-7.6-0.76c-0.7,4.64-1.59,10.08-2.71,16.17c-2,10.9-3.13,15.11-0.65,17.47
			c1.86,1.76,5.36,2.13,7.6,0.76c2.95-1.82,2.81-6.16,3.04-19.42C930.08,110.42,930.22,105.34,930.29,102.66z"/>
		<path class="st59" d="M944.4,101.32l-7.56,1.09c0.43,4.67,0.87,10.17,1.25,16.35c0.67,11.07,0.59,15.43,3.56,17.12
			c2.23,1.26,5.72,0.78,7.56-1.09c2.43-2.47,1.25-6.65-1.71-19.58C946.06,108.9,944.97,103.94,944.4,101.32z"/>
		<path class="st67" d="M922.05,104.94c-0.33-11-0.67-22-1-33c2.35-2.21,4.71-4.41,7.06-6.62l9.19-0.26l7.74,7.87v31
			C937.39,104.27,929.72,104.61,922.05,104.94z"/>
		
			<linearGradient id="SVGID_54_" gradientUnits="userSpaceOnUse" x1="629.7854" y1="150.5407" x2="633.3599" y2="144.1577" gradientTransform="matrix(0.7106 0.7036 -0.7036 0.7106 595.1727 -458.4766)">
			<stop  offset="4.467756e-03" style="stop-color:#F7E4AD"/>
			<stop  offset="0.1676" style="stop-color:#EDD8A2"/>
			<stop  offset="0.4266" style="stop-color:#E2CC96"/>
			<stop  offset="0.6817" style="stop-color:#DEC892"/>
			<stop  offset="0.7108" style="stop-color:#DCC690"/>
			<stop  offset="1" style="stop-color:#CCB37D"/>
		</linearGradient>
		<path class="st68" d="M936.75,74.82l-6.48,2.64c1.42,4.06,3.03,8.86,4.73,14.27c3.05,9.7,3.94,13.6,6.96,14.44
			c2.26,0.63,5.26-0.57,6.48-2.64c1.61-2.74-0.36-6.2-5.86-17.05C939.9,81.2,937.83,77.03,936.75,74.82z"/>
		<path class="st67" d="M938.22,73.15c0.29,0.31-0.23,1.21-0.75,2.11c-2.35,4.09-6.98,4.68-7.87,4.8c-0.87,0.11-1.31,0.17-1.41-0.03
			C927.62,78.96,937.24,72.11,938.22,73.15z"/>
		<path class="st69" d="M947.72,21.87c-0.75,0.06,0.65,6.45-3,13c-1.4,2.52-3.13,4.31-4.5,5.5c0.83,1.17,1.67,2.33,2.5,3.5
			c1.83-1.46,5.15-4.57,6.5-9.5C950.97,27.96,948.46,21.81,947.72,21.87z"/>
		<linearGradient id="SVGID_55_" gradientUnits="userSpaceOnUse" x1="914.4848" y1="43.0172" x2="950.5698" y2="43.0172">
			<stop  offset="4.466648e-03" style="stop-color:#808080"/>
			<stop  offset="1" style="stop-color:#E6E6E6"/>
		</linearGradient>
		<path class="st70" d="M914.52,52.13c-0.1-1.69-0.05-4.79,1.49-8.11c3.75-8.12,12.7-9.76,13.4-9.87
			c6.28-1.04,11.07,1.59,12.17,2.23c1.26,0.73,5.32,3.3,7.56,8.54c1.2,2.82,1.43,5.36,1.44,6.92
			C938.55,51.94,926.53,52.03,914.52,52.13z"/>
		<path class="st69" d="M929.5,22.5c0.75,0.06-0.65,6.45,3,13c1.4,2.52,3.13,4.31,4.5,5.5c-0.83,1.17-1.67,2.33-2.5,3.5
			c-1.83-1.46-5.15-4.57-6.5-9.5C926.25,28.59,928.75,22.44,929.5,22.5z"/>
		<g>
			<circle class="st71" cx="938" cy="91" r="16"/>
			<circle class="st65" cx="938" cy="91" r="2"/>
		</g>
	</g>
	<g class="st55">
		<g>
			<linearGradient id="SVGID_56_" gradientUnits="userSpaceOnUse" x1="1011.5189" y1="45.7129" x2="1031.0509" y2="55.6704">
				<stop  offset="4.467756e-03" style="stop-color:#F7E4AD"/>
				<stop  offset="1" style="stop-color:#CCB37D"/>
			</linearGradient>
			<circle class="st72" cx="1024.21" cy="52.19" r="15.5"/>
		</g>
		<path d="M1032.81,56.52c-0.1,0.84,0.21,1.65,0.83,2.08c0.87,0.59,2.28,0.35,3.07-0.75"/>
		<path d="M1035.01,63.32c-0.65,0.16-1.42,0.3-2.3,0.36c-0.74,0.05-1.42,0.04-2,0c-0.33-0.33-0.67-0.67-1-1v-1L1035.01,63.32z"/>
		<g>
			<polyline class="st73" points="1052.41,76.96 1049.49,76.26 1057.25,43.7 1059.06,42.57 1060.17,44.39 1052.41,76.96 			"/>
			
				<rect x="1048.83" y="77.51" transform="matrix(0.9727 0.2319 -0.2319 0.9727 47.226 -241.2885)" class="st73" width="2.5" height="5.5"/>
			
				<rect x="1046.33" y="76.1" transform="matrix(0.9727 0.2319 -0.2319 0.9727 46.5135 -241.5494)" class="st74" width="9" height="2"/>
		</g>
		<path class="st57" d="M1027.42,73.46l-1.87,5.93c3.58,1.33,7.77,2.94,12.43,4.84c8.35,3.41,11.52,5,13.81,3.42
			c1.71-1.19,2.59-3.92,1.87-5.93c-0.96-2.65-4.44-3.26-14.97-5.64C1033.57,74.92,1029.54,73.97,1027.42,73.46z"/>
		<path class="st58" d="M1021.95,104.41l-7.6-0.76c-0.7,4.64-1.59,10.08-2.71,16.17c-2,10.9-3.13,15.11-0.65,17.47
			c1.86,1.76,5.36,2.13,7.6,0.76c2.95-1.82,2.81-6.16,3.04-19.42C1021.74,112.17,1021.88,107.09,1021.95,104.41z"/>
		<path class="st59" d="M1036.06,103.06l-7.56,1.09c0.43,4.67,0.87,10.17,1.25,16.35c0.67,11.07,0.59,15.43,3.56,17.12
			c2.23,1.26,5.72,0.78,7.56-1.09c2.43-2.47,1.25-6.65-1.71-19.58C1037.72,110.65,1036.63,105.68,1036.06,103.06z"/>
		<path class="st75" d="M1013.71,106.69c-0.33-11-0.67-22-1-33c2.35-2.21,4.71-4.41,7.06-6.62l9.19-0.26l7.74,7.87v31
			C1029.05,106.02,1021.38,106.35,1013.71,106.69z"/>
		
			<linearGradient id="SVGID_57_" gradientUnits="userSpaceOnUse" x1="678.2418" y1="226.122" x2="681.8163" y2="219.7391" gradientTransform="matrix(0.5991 0.8006 -0.8006 0.5991 800.0137 -587.556)">
			<stop  offset="4.467756e-03" style="stop-color:#F7E4AD"/>
			<stop  offset="0.1676" style="stop-color:#EDD8A2"/>
			<stop  offset="0.4266" style="stop-color:#E2CC96"/>
			<stop  offset="0.6817" style="stop-color:#DEC892"/>
			<stop  offset="0.7108" style="stop-color:#DCC690"/>
			<stop  offset="1" style="stop-color:#CCB37D"/>
		</linearGradient>
		<path class="st76" d="M1027.82,74.32l-6.8,1.66c0.8,4.23,1.69,9.21,2.58,14.81c1.59,10.04,1.89,14.03,4.76,15.31
			c2.14,0.96,5.29,0.21,6.8-1.66c2-2.47,0.55-6.18-3.29-17.73C1030,81.1,1028.57,76.66,1027.82,74.32z"/>
		<path class="st75" d="M1029.96,73.93c0.15,0.39-0.67,1.04-1.48,1.67c-3.71,2.91-8.23,1.72-9.1,1.49c-0.85-0.22-1.28-0.34-1.3-0.56
			C1017.96,75.33,1029.44,72.6,1029.96,73.93z"/>
		<linearGradient id="SVGID_58_" gradientUnits="userSpaceOnUse" x1="1007.9886" y1="50.9966" x2="1041.8654" y2="50.9966">
			<stop  offset="4.466648e-03" style="stop-color:#808080"/>
			<stop  offset="1" style="stop-color:#E6E6E6"/>
		</linearGradient>
		<path class="st77" d="M1009,60c-1.06-2.09-1.03-4.16-1-7c0.03-2.18,0.19-6.59,3-11c0.66-1.04,2.14-3.3,5-5c3.32-1.97,6.51-2,8-2
			c0.68,0,4.12,0.05,8,2c0.59,0.29,4.7,2.41,7,6c5.09,7.94,2.54,20.08-1,21c-0.45,0.12-0.85,0.03-1,0c2.38-5.38,2.77-9.78,1-11
			c-1.11-0.76-2.79-0.09-3,0c-4.25,1.78-2.2,8.65-6,12C1024.33,69.12,1012.33,66.56,1009,60z"/>
		<g>
			<path class="st75" d="M1039,75v27.16l-13.5,9.84l-13.5-9.84c0-9.05,0-18.11,0-27.16C1012,75,1030.43,75,1039,75z"/>
			<g>
				<g>
					<path class="st78" d="M1024.32,76c-0.16,11.67-0.32,23.33-0.47,35c-0.03,1.93,2.97,1.93,3,0c0.16-11.67,0.32-23.33,0.47-35
						C1027.34,74.07,1024.34,74.07,1024.32,76L1024.32,76z"/>
				</g>
			</g>
			<g>
				<g>
					<path class="st78" d="M1011.97,91.47c9.02,0.28,18.04,0.56,27.06,0.84c1.93,0.06,1.93-2.94,0-3
						c-9.02-0.28-18.04-0.56-27.06-0.84C1010.04,88.41,1010.04,91.41,1011.97,91.47L1011.97,91.47z"/>
				</g>
			</g>
			<path class="st79" d="M1011.15,74.33c0,9.41,0,18.83,0,28.24l14.43,10.23l14.43-10.23V74.33
				C1030.84,74.33,1011.15,74.33,1011.15,74.33z M1039.42,102.21l-13.84,9.81l-13.84-9.81c0-9.03,0-18.07,0-27.1c0,0,18.9,0,27.69,0
				V102.21z"/>
		</g>
		
			<rect x="1050.49" y="79.09" transform="matrix(0.9727 0.2319 -0.2319 0.9727 47.0816 -241.4035)" class="st73" width="0" height="1"/>
	</g>
	<g class="st55">
		<linearGradient id="SVGID_59_" gradientUnits="userSpaceOnUse" x1="1139.9022" y1="28.9022" x2="1111.6895" y2="57.115">
			<stop  offset="4.467479e-03" style="stop-color:#39B54A"/>
			<stop  offset="1" style="stop-color:#006837"/>
		</linearGradient>
		<circle class="st80" cx="1125.31" cy="43.49" r="17.49"/>
		<path d="M1131.37,42.55c-0.21,1.75,0.44,3.45,1.74,4.33c1.83,1.24,4.76,0.72,6.41-1.56"/>
		<path d="M1138.49,54.7c-1.1,0.27-2.42,0.51-3.92,0.62c-1.27,0.09-2.41,0.07-3.41,0c-0.57-0.57-1.14-1.14-1.7-1.7v-1.7
			L1138.49,54.7z"/>
		<linearGradient id="SVGID_60_" gradientUnits="userSpaceOnUse" x1="1154.2245" y1="67.6966" x2="1141.6288" y2="85.3137">
			<stop  offset="4.467479e-03" style="stop-color:#39B54A"/>
			<stop  offset="1" style="stop-color:#006837"/>
		</linearGradient>
		<path class="st81" d="M1130.11,73.62l-2.95,6.36c3.81,2.01,8.26,4.43,13.2,7.24c8.85,5.03,12.16,7.29,14.95,5.84
			c2.09-1.08,3.47-4.01,2.95-6.36c-0.68-3.11-4.49-4.3-15.93-8.5C1136.77,76.15,1132.41,74.5,1130.11,73.62z"/>
		<path class="st58" d="M1122.76,102.43l-8.57-0.86c-0.8,5.24-1.8,11.38-3.06,18.24c-2.26,12.3-3.54,17.06-0.74,19.71
			c2.1,1.99,6.05,2.41,8.57,0.86c3.33-2.05,3.17-6.95,3.43-21.92C1122.52,111.18,1122.67,105.45,1122.76,102.43z"/>
		<path class="st59" d="M1138.68,100.91l-8.53,1.23c0.49,5.28,0.98,11.48,1.41,18.45c0.76,12.49,0.66,17.41,4.02,19.31
			c2.51,1.43,6.46,0.88,8.53-1.23c2.74-2.79,1.41-7.51-1.93-22.1C1140.55,109.47,1139.32,103.86,1138.68,100.91z"/>
		<path class="st82" d="M1113.46,104.99c-0.38-12.41-0.75-24.83-1.13-37.24c2.66-2.49,5.31-4.98,7.97-7.47l10.37-0.29l8.74,8.88
			v34.98C1130.77,104.24,1122.12,104.62,1113.46,104.99z"/>
		<linearGradient id="SVGID_61_" gradientUnits="userSpaceOnUse" x1="1149.425" y1="64.5208" x2="1143.7229" y2="76.691">
			<stop  offset="4.467479e-03" style="stop-color:#39B54A"/>
			<stop  offset="1" style="stop-color:#006837"/>
		</linearGradient>
		<path class="st83" d="M1128.39,66.78l-1.23,7.8c4.75,1,10.33,2.23,16.55,3.74c11.15,2.7,15.44,4.11,18.01,1.69
			c1.93-1.82,2.52-5.42,1.23-7.8c-1.71-3.15-6.2-3.26-19.89-4.27C1136.4,67.45,1131.16,67.02,1128.39,66.78z"/>
		<path class="st82" d="M1129.26,64.37c0.47,0,0.8,1.14,1.13,2.26c1.48,5.11-1.65,9.34-2.26,10.16c-0.59,0.8-0.89,1.2-1.13,1.13
			C1125.68,77.53,1127.64,64.36,1129.26,64.37z"/>
	</g>
</g>
</svg>
