<svg id="Vrstva_2" data-name="Vrstva 2" xmlns="http://www.w3.org/2000/svg" xmlns:xlink="http://www.w3.org/1999/xlink" viewBox="0 0 1383 679"><defs><style>.cls-1{fill:url(#Nepojmenovaný_přechod_74);}.cls-2{fill:#fff;}.cls-3{fill:#332d12;stroke:#e51a4f;stroke-miterlimit:10;}.cls-4{fill:#eacc4e;}.cls-5{fill:url(#Nepojmenovaný_přechod_65);}.cls-6{fill:url(#Nepojmenovaný_přechod_65-2);}.cls-7{fill:url(#Nepojmenovaný_přechod_65-3);}.cls-8{fill:url(#Nepojmenovaný_přechod_65-4);}.cls-9{fill:url(#Nepojmenovaný_přechod_65-5);}.cls-10{fill:url(#Nepojmenovaný_přechod_65-6);}.cls-11{fill:url(#Nepojmenovaný_přechod_65-7);}.cls-12{fill:url(#Nepojmenovaný_přechod_65-8);}.cls-13{fill:url(#Nepojmenovaný_přechod_65-9);}.cls-14{fill:url(#Nepojmenovaný_přechod_65-10);}.cls-15{fill:url(#Nepojmenovaný_přechod_65-11);}.cls-16{fill:url(#Nepojmenovaný_přechod_65-12);}.cls-17{fill:url(#Nepojmenovaný_přechod_65-13);}.cls-18{fill:url(#Nepojmenovaný_přechod_65-14);}.cls-19{fill:url(#Nepojmenovaný_přechod_65-15);}.cls-20{fill:url(#Nepojmenovaný_přechod_65-16);}.cls-21{fill:url(#Nepojmenovaný_přechod_65-17);}.cls-22{fill:url(#Nepojmenovaný_přechod_65-18);}.cls-23{fill:url(#Nepojmenovaný_přechod_65-19);}.cls-24{fill:url(#Nepojmenovaný_přechod_65-20);}.cls-25{fill:url(#Nepojmenovaný_přechod_65-21);}.cls-26{fill:url(#Nepojmenovaný_přechod_65-22);}.cls-27{fill:url(#Nepojmenovaný_přechod_65-23);}.cls-28{fill:url(#Nepojmenovaný_přechod_65-24);}.cls-29{fill:url(#Nepojmenovaný_přechod_65-25);}.cls-30{fill:url(#Nepojmenovaný_přechod_65-26);}.cls-31{fill:url(#Nepojmenovaný_přechod_65-27);}.cls-32{fill:url(#Nepojmenovaný_přechod_65-28);}.cls-33{fill:url(#Nepojmenovaný_přechod_65-29);}.cls-34{fill:url(#Nepojmenovaný_přechod_65-30);}.cls-35{fill:url(#Nepojmenovaný_přechod_65-31);}.cls-36{fill:#e51a4f;}.cls-37{fill:url(#Nepojmenovaný_přechod_48);}.cls-38{fill:url(#Nepojmenovaný_přechod_48-2);}.cls-39{fill:url(#Nepojmenovaný_přechod_48-3);}.cls-40{fill:url(#Nepojmenovaný_přechod_48-4);}.cls-41{fill:url(#Nepojmenovaný_přechod_48-5);}.cls-42{fill:url(#Nepojmenovaný_přechod_48-6);}.cls-43{fill:url(#Nepojmenovaný_přechod_48-7);}.cls-44{fill:url(#Nepojmenovaný_přechod_48-8);}.cls-45{fill:url(#Nepojmenovaný_přechod_56);}.cls-46{fill:url(#Nepojmenovaný_přechod_48-9);}.cls-47{fill:url(#Nepojmenovaný_přechod_48-10);}.cls-48{fill:url(#Nepojmenovaný_přechod_48-11);}.cls-49{fill:url(#Nepojmenovaný_přechod_48-12);}.cls-50{fill:url(#Nepojmenovaný_přechod_48-13);}.cls-51{fill:url(#Nepojmenovaný_přechod_48-14);}.cls-52{fill:url(#Nepojmenovaný_přechod_48-15);}.cls-53{fill:url(#Nepojmenovaný_přechod_48-16);}.cls-54{fill:url(#Nepojmenovaný_přechod_56-2);}</style><linearGradient id="Nepojmenovaný_přechod_74" x1="436.91" y1="629.96" x2="946.09" y2="-251.96" gradientUnits="userSpaceOnUse"><stop offset="0" stop-color="#3fa9f5"/><stop offset="1" stop-color="#0071bc"/></linearGradient><linearGradient id="Nepojmenovaný_přechod_65" x1="136.91" y1="439.28" x2="213.97" y2="439.28" gradientTransform="translate(-168.17 463.71) rotate(-60)" gradientUnits="userSpaceOnUse"><stop offset="0" stop-color="#39b54a"/><stop offset="1" stop-color="#006837"/></linearGradient><linearGradient id="Nepojmenovaný_přechod_65-2" x1="55.29" y1="280.09" x2="92.06" y2="348.52" gradientTransform="matrix(1, 0, 0, 1, 0, 0)" xlink:href="#Nepojmenovaný_přechod_65"/><linearGradient id="Nepojmenovaný_přechod_65-3" x1="84.47" y1="312.17" x2="121.03" y2="248.83" gradientTransform="matrix(1, 0, 0, 1, 0, 0)" xlink:href="#Nepojmenovaný_přechod_65"/><linearGradient id="Nepojmenovaný_přechod_65-4" x1="117.81" y1="373.5" x2="161.69" y2="297.5" gradientTransform="matrix(1, 0, 0, 1, 0, 0)" xlink:href="#Nepojmenovaný_přechod_65"/><linearGradient id="Nepojmenovaný_přechod_65-5" x1="196.58" y1="355.81" x2="222.92" y2="310.19" gradientTransform="matrix(1, 0, 0, 1, 0, 0)" xlink:href="#Nepojmenovaný_přechod_65"/><linearGradient id="Nepojmenovaný_přechod_65-6" x1="228.66" y1="348.6" x2="277.84" y2="263.4" gradientTransform="matrix(1, 0, 0, 1, 0, 0)" xlink:href="#Nepojmenovaný_přechod_65"/><linearGradient id="Nepojmenovaný_přechod_65-7" x1="350.17" y1="352.68" x2="387.33" y2="288.32" gradientTransform="matrix(1, 0, 0, 1, 0, 0)" xlink:href="#Nepojmenovaný_přechod_65"/><linearGradient id="Nepojmenovaný_přechod_65-8" x1="400.72" y1="368.2" x2="425.78" y2="324.8" gradientTransform="matrix(1, 0, 0, 1, 0, 0)" xlink:href="#Nepojmenovaný_přechod_65"/><linearGradient id="Nepojmenovaný_přechod_65-9" x1="440.93" y1="366.66" x2="485.57" y2="289.34" gradientTransform="matrix(1, 0, 0, 1, 0, 0)" xlink:href="#Nepojmenovaný_přechod_65"/><linearGradient id="Nepojmenovaný_přechod_65-10" x1="504.24" y1="384.47" x2="538.26" y2="325.53" gradientTransform="matrix(1, 0, 0, 1, 0, 0)" xlink:href="#Nepojmenovaný_přechod_65"/><linearGradient id="Nepojmenovaný_přechod_65-11" x1="536.06" y1="342.24" x2="574.44" y2="275.76" gradientTransform="matrix(1, 0, 0, 1, 0, 0)" xlink:href="#Nepojmenovaný_přechod_65"/><linearGradient id="Nepojmenovaný_přechod_65-12" x1="926.24" y1="558.19" x2="958.76" y2="501.87" gradientTransform="translate(1393.28 -400.75) rotate(90)" xlink:href="#Nepojmenovaný_přechod_65"/><linearGradient id="Nepojmenovaný_přechod_65-13" x1="624.35" y1="348.84" x2="686.15" y2="313.16" gradientTransform="matrix(1, 0, 0, 1, 0, 0)" xlink:href="#Nepojmenovaný_přechod_65"/><linearGradient id="Nepojmenovaný_přechod_65-14" x1="678.69" y1="359.63" x2="758.81" y2="313.37" gradientTransform="matrix(1, 0, 0, 1, 0, 0)" xlink:href="#Nepojmenovaný_přechod_65"/><linearGradient id="Nepojmenovaný_přechod_65-15" x1="721.59" y1="307.82" x2="798.91" y2="263.18" gradientTransform="matrix(1, 0, 0, 1, 0, 0)" xlink:href="#Nepojmenovaný_přechod_65"/><linearGradient id="Nepojmenovaný_přechod_65-16" x1="759.5" y1="352.23" x2="814" y2="320.77" gradientTransform="matrix(1, 0, 0, 1, 0, 0)" xlink:href="#Nepojmenovaný_přechod_65"/><linearGradient id="Nepojmenovaný_přechod_65-17" x1="890.85" y1="356.01" x2="937.65" y2="328.99" gradientTransform="matrix(1, 0, 0, 1, 0, 0)" xlink:href="#Nepojmenovaný_přechod_65"/><linearGradient id="Nepojmenovaný_přechod_65-18" x1="809.68" y1="355.48" x2="885.82" y2="311.52" gradientTransform="matrix(1, 0, 0, 1, 0, 0)" xlink:href="#Nepojmenovaný_přechod_65"/><linearGradient id="Nepojmenovaný_přechod_65-19" x1="898.65" y1="304.8" x2="956.85" y2="271.2" gradientTransform="matrix(1, 0, 0, 1, 0, 0)" xlink:href="#Nepojmenovaný_přechod_65"/><linearGradient id="Nepojmenovaný_přechod_65-20" x1="926.3" y1="360.23" x2="991.2" y2="322.77" gradientTransform="matrix(1, 0, 0, 1, 0, 0)" xlink:href="#Nepojmenovaný_přechod_65"/><linearGradient id="Nepojmenovaný_přechod_65-21" x1="967.96" y1="338.67" x2="1039.54" y2="297.33" gradientTransform="matrix(1, 0, 0, 1, 0, 0)" xlink:href="#Nepojmenovaný_přechod_65"/><linearGradient id="Nepojmenovaný_přechod_65-22" x1="1035.24" y1="357.65" x2="1049.26" y2="333.35" gradientTransform="matrix(1, 0, 0, 1, 0, 0)" xlink:href="#Nepojmenovaný_přechod_65"/><linearGradient id="Nepojmenovaný_přechod_65-23" x1="1133.58" y1="351.51" x2="1165.92" y2="295.49" gradientTransform="matrix(1, 0, 0, 1, 0, 0)" xlink:href="#Nepojmenovaný_přechod_65"/><linearGradient id="Nepojmenovaný_přechod_65-24" x1="1222.65" y1="371.36" x2="1258.85" y2="308.64" gradientTransform="matrix(1, 0, 0, 1, 0, 0)" xlink:href="#Nepojmenovaný_přechod_65"/><linearGradient id="Nepojmenovaný_přechod_65-25" x1="1278.18" y1="373.07" x2="1312.32" y2="313.93" gradientTransform="matrix(1, 0, 0, 1, 0, 0)" xlink:href="#Nepojmenovaný_přechod_65"/><linearGradient id="Nepojmenovaný_přechod_65-26" x1="1132.99" y1="365.5" x2="1155.51" y2="326.5" gradientTransform="matrix(1, 0, 0, 1, 0, 0)" xlink:href="#Nepojmenovaný_přechod_65"/><linearGradient id="Nepojmenovaný_přechod_65-27" x1="1177.66" y1="366.07" x2="1200.84" y2="325.93" gradientTransform="matrix(1, 0, 0, 1, 0, 0)" xlink:href="#Nepojmenovaný_přechod_65"/><linearGradient id="Nepojmenovaný_přechod_65-28" x1="1206.1" y1="358.88" x2="1220.4" y2="334.12" gradientTransform="matrix(1, 0, 0, 1, 0, 0)" xlink:href="#Nepojmenovaný_přechod_65"/><linearGradient id="Nepojmenovaný_přechod_65-29" x1="1609.73" y1="555.69" x2="1644.23" y2="495.92" gradientTransform="matrix(1, 0, 0, 1, 0, 0)" xlink:href="#Nepojmenovaný_přechod_65"/><linearGradient id="Nepojmenovaný_přechod_65-30" x1="1331.2" y1="341.5" x2="1351.2" y2="306.86" gradientTransform="matrix(1, 0, 0, 1, 0, 0)" xlink:href="#Nepojmenovaný_přechod_65"/><linearGradient id="Nepojmenovaný_přechod_65-31" x1="1332.13" y1="366.39" x2="1353.37" y2="329.61" gradientTransform="matrix(1, 0, 0, 1, 0, 0)" xlink:href="#Nepojmenovaný_přechod_65"/><linearGradient id="Nepojmenovaný_přechod_48" x1="1061.01" y1="565.55" x2="1113.01" y2="565.55" gradientTransform="matrix(-1, 0, 0, 1, 2181.84, -200.75)" gradientUnits="userSpaceOnUse"><stop offset="0" stop-color="gray"/><stop offset="1" stop-color="#e6e6e6"/></linearGradient><linearGradient id="Nepojmenovaný_přechod_48-2" x1="936.51" y1="681.51" x2="1115.01" y2="681.51" gradientTransform="matrix(-1, 0, 0, 1, 2450.34, 0)" xlink:href="#Nepojmenovaný_přechod_48"/><linearGradient id="Nepojmenovaný_přechod_48-3" x1="965.35" y1="636.41" x2="1153.33" y2="636.41" gradientTransform="matrix(-1.06, 0.11, 0.11, 1.06, 2497.12, -159.27)" xlink:href="#Nepojmenovaný_přechod_48"/><linearGradient id="Nepojmenovaný_přechod_48-4" x1="863.01" y1="728.51" x2="938.01" y2="728.51" xlink:href="#Nepojmenovaný_přechod_48"/><linearGradient id="Nepojmenovaný_přechod_48-5" x1="1111.94" y1="553.38" x2="1145.01" y2="553.38" gradientTransform="matrix(-1, 0, 0, 1, 2450.34, 0)" xlink:href="#Nepojmenovaný_přechod_48"/><linearGradient id="Nepojmenovaný_přechod_48-6" x1="936.94" y1="715.39" x2="970.01" y2="715.39" gradientTransform="matrix(-1, 0, 0, 1, 2450.34, 0)" xlink:href="#Nepojmenovaný_přechod_48"/><linearGradient id="Nepojmenovaný_přechod_48-7" x1="863.01" y1="636.51" x2="970.01" y2="636.51" gradientTransform="matrix(-1, 0, 0, 1, 2450.34, 0)" xlink:href="#Nepojmenovaný_přechod_48"/><linearGradient id="Nepojmenovaný_přechod_48-8" x1="1061.01" y1="473.51" x2="1145.01" y2="473.51" gradientTransform="matrix(-1, 0, 0, 1, 2450.34, 0)" xlink:href="#Nepojmenovaný_přechod_48"/><linearGradient id="Nepojmenovaný_přechod_56" x1="1028.5" y1="692.57" x2="1063.01" y2="692.57" gradientTransform="matrix(-1, 0, 0, 1, 2450.34, 0)" gradientUnits="userSpaceOnUse"><stop offset="0" stop-color="gray"/><stop offset="1"/></linearGradient><linearGradient id="Nepojmenovaný_přechod_48-9" x1="273.66" y1="364.8" x2="325.66" y2="364.8" gradientTransform="matrix(1, 0, 0, 1, 0, 0)" xlink:href="#Nepojmenovaný_přechod_48"/><linearGradient id="Nepojmenovaný_přechod_48-10" x1="417.66" y1="681.51" x2="596.16" y2="681.51" gradientTransform="matrix(1, 0, 0, 1, 0, 0)" xlink:href="#Nepojmenovaný_přechod_48"/><linearGradient id="Nepojmenovaný_přechod_48-11" x1="480.32" y1="686.56" x2="668.31" y2="686.56" gradientTransform="matrix(1.06, 0.11, -0.11, 1.06, -46.78, -159.27)" xlink:href="#Nepojmenovaný_přechod_48"/><linearGradient id="Nepojmenovaný_přechod_48-12" x1="75.66" y1="527.76" x2="150.66" y2="527.76" gradientTransform="matrix(1, 0, 0, 1, 0, 0)" xlink:href="#Nepojmenovaný_přechod_48"/><linearGradient id="Nepojmenovaný_přechod_48-13" x1="593.1" y1="553.38" x2="626.16" y2="553.38" gradientTransform="matrix(1, 0, 0, 1, 0, 0)" xlink:href="#Nepojmenovaný_přechod_48"/><linearGradient id="Nepojmenovaný_přechod_48-14" x1="418.1" y1="715.39" x2="451.25" y2="715.39" gradientTransform="matrix(1, 0, 0, 1, 0, 0)" xlink:href="#Nepojmenovaný_přechod_48"/><linearGradient id="Nepojmenovaný_přechod_48-15" x1="344.16" y1="636.51" x2="451.16" y2="636.51" gradientTransform="matrix(1, 0, 0, 1, 0, 0)" xlink:href="#Nepojmenovaný_přechod_48"/><linearGradient id="Nepojmenovaný_přechod_48-16" x1="542.16" y1="473.51" x2="626.16" y2="473.51" gradientTransform="matrix(1, 0, 0, 1, 0, 0)" xlink:href="#Nepojmenovaný_přechod_48"/><linearGradient id="Nepojmenovaný_přechod_56-2" x1="509.66" y1="692.57" x2="544.16" y2="692.57" gradientTransform="matrix(1, 0, 0, 1, 0, 0)" xlink:href="#Nepojmenovaný_přechod_56"/></defs><rect class="cls-1" x="0.5" width="1382" height="378"/><path class="cls-2" d="M711.25,443.75c50.94-2.25,63.52-26.52,92-17,20.23,6.76,38.23,27.15,35,41-1.15,4.95-6,13.16-76,27-74.2,14.67-85.66,8.79-92,3-14.06-12.83-17.86-38.79-8-50C670.48,438.38,683.24,445,711.25,443.75Z" transform="translate(-268.5 -200.75)"/><path class="cls-2" d="M1281.25,434.75c8.1,13.43-5,41.63-24,52-19.44,10.62-35.45-2.68-102-14-34.29-5.84-43.54-4.6-44-8C1109.37,450.82,1261.35,401.76,1281.25,434.75Z" transform="translate(-268.5 -200.75)"/><rect class="cls-3" x="0.5" y="350.5" width="1382" height="328"/><path class="cls-4" d="M651.05,638.52l244.83,5.26c80.68,1.74,161.48,4.58,242.18,2.09a1282.29,1282.29,0,0,0,138.4-11.41c8.58-1.2,14-12.58,11.52-20.29-3-9.41-11.1-12.81-20.3-11.53-4.21.59-7.14,1-12.17,1.61q-7.79,1-15.6,1.81-15.12,1.65-30.29,2.88c-19.9,1.63-39.83,2.76-59.78,3.52-40,1.52-80,1.54-119.95,1-80.58-1.07-161.15-3.27-241.72-5l-137.12-3c-8.64-.18-16.89,7.72-16.5,16.5.41,9.1,7.25,16.3,16.5,16.5Z" transform="translate(-268.5 -200.75)"/><path class="cls-4" d="M597.54,695.76c88.27,12.9,177.17,6.34,266,6.48,87.63.14,175.15,6.36,262.8,5.57,50.38-.46,100.64-3.52,150.52-10.79,8.57-1.25,14-12.55,11.52-20.3-3-9.37-11.11-12.86-20.29-11.52-83.19,12.13-171.93,10.47-257.4,7.69-43.49-1.41-87-3.13-130.49-3.56s-86.79,1-130.19,1.55c-24.11.28-48.22.23-72.3-.75-23.71-1-49.54-3-71.37-6.19-8.5-1.24-18.15,2.1-20.3,11.53-1.78,7.82,2.39,19,11.53,20.29Z" transform="translate(-268.5 -200.75)"/><path class="cls-4" d="M583.63,756.51a2490.85,2490.85,0,0,1,294.62-7.72q72.79,2.41,145.34,9.1c46,4.17,92,9.07,138.25,10.06,52.52,1.12,105.76-3.1,156.13-18.78,8.23-2.56,14.33-11.62,11.53-20.29-2.68-8.28-11.48-14.28-20.3-11.53-44.11,13.73-86.16,17.86-132.46,17.78s-92.28-4.6-138.26-8.87c-96.72-9-193.7-13.25-290.84-11.37q-82.12,1.59-164,8.62c-8.58.73-16.92,7.06-16.5,16.5.37,8.31,7.29,17.29,16.5,16.5Z" transform="translate(-268.5 -200.75)"/><path class="cls-4" d="M1357.32,789.55l-309.87-11.2L893,772.77c-50.45-1.82-101-4.28-151.44-4.4-56.93-.13-114.15,3.41-169.81,15.94-8.43,1.9-14.18,12.1-11.53,20.3a16.88,16.88,0,0,0,20.3,11.52,544.4,544.4,0,0,1,71.53-11.2c24.62-2.27,49.34-3.27,74.06-3.5,50.33-.48,100.66,2,151,3.77L1184,816.29l173.37,6.26c8.64.31,16.89-7.81,16.5-16.5a16.85,16.85,0,0,0-16.5-16.5Z" transform="translate(-268.5 -200.75)"/><path class="cls-4" d="M588.77,868.84c97.31-5.74,194.85-4.79,292.26-2.53s194.85,5.05,292.28,7.61l164.75,4.33c8.64.23,16.89-7.75,16.5-16.5-.41-9.13-7.25-16.25-16.5-16.5l-293.56-7.71c-97.23-2.56-194.5-5.92-291.77-6-54.68,0-109.37,1.09-164,4.31-8.6.51-16.92,7.23-16.5,16.5.38,8.5,7.27,17,16.5,16.5Z" transform="translate(-268.5 -200.75)"/><path class="cls-5" d="M269.25,506.19c11.82-14.18,32.81-18.06,49.75-8.28,18.89,10.91,25.59,34.68,15,53.09-11.78,20.39-38.44,21.06-53.46,13.59a36.14,36.14,0,0,1-11.25-8.84" transform="translate(-268.5 -200.75)"/><ellipse class="cls-6" cx="69.75" cy="307" rx="22" ry="67"/><ellipse class="cls-7" cx="102.75" cy="280.5" rx="30" ry="38.5"/><ellipse class="cls-8" cx="139.75" cy="335.5" rx="59" ry="37.5"/><ellipse class="cls-9" cx="209.75" cy="333" rx="30" ry="25"/><ellipse class="cls-10" cx="253.25" cy="306" rx="39.5" ry="52"/><ellipse class="cls-11" cx="368.75" cy="320.5" rx="29" ry="39.5"/><ellipse class="cls-12" cx="413.25" cy="346.5" rx="31.5" ry="22.5"/><ellipse class="cls-13" cx="463.25" cy="328" rx="32.5" ry="48"/><ellipse class="cls-14" cx="521.25" cy="355" rx="57.5" ry="21"/><ellipse class="cls-15" cx="555.25" cy="309" rx="39.5" ry="38"/><ellipse class="cls-16" cx="863.25" cy="541.75" rx="32" ry="34" transform="translate(-306.04 817.72) rotate(-60)"/><ellipse class="cls-17" cx="655.25" cy="331" rx="34.5" ry="39"/><ellipse class="cls-18" cx="718.75" cy="336.5" rx="50" ry="32.5"/><ellipse class="cls-19" cx="760.25" cy="285.5" rx="46.5" ry="38.5"/><ellipse class="cls-20" cx="786.75" cy="336.5" rx="30" ry="35.5"/><ellipse class="cls-21" cx="914.25" cy="342.5" rx="26.5" ry="28.5"/><ellipse class="cls-22" cx="847.75" cy="333.5" rx="48" ry="28.5"/><ellipse class="cls-23" cx="927.75" cy="288" rx="32" ry="38"/><ellipse class="cls-24" cx="958.75" cy="341.5" rx="40" ry="28.5"/><ellipse class="cls-25" cx="1003.75" cy="318" rx="38" ry="50"/><ellipse class="cls-26" cx="1042.25" cy="345.5" rx="15.5" ry="13.5"/><ellipse class="cls-27" cx="1149.75" cy="323.5" rx="20" ry="35.5"/><ellipse class="cls-28" cx="1240.75" cy="340" rx="21" ry="40"/><ellipse class="cls-29" cx="1295.25" cy="343.5" rx="53.5" ry="24.5"/><ellipse class="cls-30" cx="1144.25" cy="346" rx="32.5" ry="18"/><ellipse class="cls-31" cx="1189.25" cy="346" rx="20.5" ry="24"/><ellipse class="cls-32" cx="1213.25" cy="346.5" rx="20.5" ry="11.5"/><path class="cls-33" d="M1650.62,552.08a34.5,34.5,0,1,1,.16-51.52" transform="translate(-268.5 -200.75)"/><circle class="cls-34" cx="1341.2" cy="324.18" r="20"/><ellipse class="cls-35" cx="1342.75" cy="348" rx="36" ry="13"/><rect x="420.2" y="409" width="42.18" height="32.44"/><rect x="523.54" y="409" width="42.18" height="32.44"/><rect x="626.87" y="409" width="42.18" height="32.44"/><rect x="730.21" y="409" width="42.18" height="32.44"/><rect x="833.54" y="409" width="42.18" height="32.44"/><rect x="936.88" y="409" width="42.18" height="32.44"/><rect class="cls-36" x="357.24" y="410.64" width="38.28" height="29.45"/><rect class="cls-36" x="357.24" y="467.64" width="38.28" height="29.45"/><rect class="cls-36" x="996.41" y="409.64" width="38.28" height="29.45"/><rect class="cls-36" x="996.41" y="465.64" width="38.28" height="29.45"/><rect class="cls-36" x="996.41" y="521.64" width="38.28" height="29.45"/><rect class="cls-36" x="357.24" y="519.85" width="38.28" height="29.45"/><rect class="cls-36" x="357.24" y="574.85" width="38.28" height="29.45"/><rect class="cls-36" x="357.24" y="635.85" width="38.28" height="29.45"/><rect class="cls-36" x="996.41" y="580.04" width="38.28" height="29.45"/><rect class="cls-36" x="996.41" y="633.04" width="38.28" height="29.45"/><rect x="414.05" y="470.07" width="42.18" height="32.44"/><rect x="517.39" y="470.07" width="42.18" height="32.44"/><rect x="620.72" y="470.07" width="42.18" height="32.44"/><rect x="724.06" y="470.07" width="42.18" height="32.44"/><rect x="827.39" y="470.07" width="42.18" height="32.44"/><rect x="930.73" y="470.07" width="42.18" height="32.44"/><rect x="413.05" y="516.07" width="42.18" height="32.44"/><rect x="516.39" y="514.07" width="42.18" height="32.44"/><rect x="619.72" y="515.07" width="42.18" height="32.44"/><rect x="726.06" y="521.07" width="42.18" height="32.44"/><rect x="824.39" y="532.07" width="42.18" height="32.44"/><rect x="923.73" y="532.07" width="42.18" height="32.44"/><rect x="417.05" y="570.07" width="42.18" height="32.44"/><rect x="520.39" y="571.07" width="42.18" height="32.44"/><rect x="623.72" y="574.07" width="42.18" height="32.44"/><rect x="729.06" y="576.07" width="42.18" height="32.44"/><rect x="831.39" y="582.07" width="42.18" height="32.44"/><rect x="930.73" y="584.07" width="42.18" height="32.44"/><rect x="413.05" y="637.07" width="42.18" height="32.44"/><rect x="516.39" y="637.07" width="42.18" height="32.44"/><rect x="619.72" y="637.07" width="42.18" height="32.44"/><rect x="723.06" y="637.07" width="42.18" height="32.44"/><rect x="826.39" y="637.07" width="42.18" height="32.44"/><rect x="929.73" y="637.07" width="42.18" height="32.44"/><polyline class="cls-37" points="1120.84 286.37 1120.84 445.25 1068.84 445.25 1068.84 285.99 1118.44 284.33"/><path class="cls-38" d="M1511.34,808l-176-161V555l178.5,158.5Z" transform="translate(-268.5 -200.75)"/><path class="cls-39" d="M1389.34,553l-52,2,165.72,157.65L1553.34,699Z" transform="translate(-268.5 -200.75)"/><polygon class="cls-40" points="1318.84 447.25 1318.84 608.25 1243.84 608.25 1243.84 448.99 1318.84 447.25"/><path class="cls-41" d="M1335.25,647.75l-29.91-29.4V459l33.06,28.09q-.26,39.21-1,79.29Q1336.57,607.55,1335.25,647.75Z" transform="translate(-268.5 -200.75)"/><path class="cls-42" d="M1512.51,808.73l-32.17-27.34V622.05l33.06,28.09S1511,808.73,1512.51,808.73Z" transform="translate(-268.5 -200.75)"/><path class="cls-43" d="M1587.34,648l-74,3-33-29,77,0C1562.3,625.26,1583.51,643.67,1587.34,648Z" transform="translate(-268.5 -200.75)"/><path class="cls-44" d="M1389.34,487l-51,1-33-29h53Z" transform="translate(-268.5 -200.75)"/><path class="cls-45" d="M1387.34,695l29,26c6.19-17.94,6-31.77,5-40-1.33-11.49-4.35-14.72-7-16-4.71-2.27-10.27.6-11,1-2.5,1.33-4.82,3.69-11,17C1391,685.9,1389.2,690,1387.34,695Z" transform="translate(-268.5 -200.75)"/><polyline class="cls-46" points="273.67 286.37 273.67 445.25 325.67 445.25 325.67 285.99 276.06 284.33"/><path class="cls-47" d="M420.16,808l176-161V555l-178.5,158.5Z" transform="translate(-268.5 -200.75)"/><path class="cls-48" d="M542.16,553l52,2L428.44,712.66,378.16,699Z" transform="translate(-268.5 -200.75)"/><polygon class="cls-49" points="75.67 447.25 75.67 608.25 150.66 608.25 150.66 448.99 75.67 447.25"/><path class="cls-50" d="M596.25,647.75l29.91-29.4V459L593.1,487.1q.25,39.21,1,79.29Q594.93,607.55,596.25,647.75Z" transform="translate(-268.5 -200.75)"/><path class="cls-51" d="M419,808.73l32.26-29-.09-157.7L418.1,650.14S420.53,808.73,419,808.73Z" transform="translate(-268.5 -200.75)"/><path class="cls-52" d="M344.16,648l74,3,33-29-77,0C369.2,625.26,348,643.67,344.16,648Z" transform="translate(-268.5 -200.75)"/><path class="cls-53" d="M542.16,487l51,1,33-29h-53Z" transform="translate(-268.5 -200.75)"/><path class="cls-54" d="M544.16,695l-29,26c-6.19-17.94-5.95-31.77-5-40,1.33-11.49,4.35-14.72,7-16,4.71-2.27,10.27.6,11,1,2.5,1.33,4.82,3.69,11,17C540.51,685.9,542.3,690,544.16,695Z" transform="translate(-268.5 -200.75)"/></svg>