<?xml version="1.0" encoding="utf-8"?>
<!-- Generator: Adobe Illustrator 25.2.0, SVG Export Plug-In . SVG Version: 6.00 Build 0)  -->
<svg version="1.1" id="Vrstva_1" xmlns="http://www.w3.org/2000/svg" xmlns:xlink="http://www.w3.org/1999/xlink" x="0px" y="0px"
	 viewBox="0 0 52.2 103.9" style="enable-background:new 0 0 52.2 103.9;" xml:space="preserve">
<style type="text/css">
	.st0{fill:url(#SVGID_1_);}
	.st1{fill:#CACECC;}
	.st2{fill:#A7AAA8;}
	.st3{fill:#F7E4AD;}
	.st4{fill:#020100;}
	.st5{fill:#070604;}
	.st6{fill:#676D6A;}
	.st7{fill:url(#SVGID_2_);}
	.st8{fill:url(#SVGID_3_);}
	.st9{fill:#FCFCFC;}
	.st10{fill:#676D6A;stroke:#000000;stroke-miterlimit:10;}
</style>
<linearGradient id="SVGID_1_" gradientUnits="userSpaceOnUse" x1="3.5287" y1="94.6103" x2="23.0587" y2="84.6503" gradientTransform="matrix(-1 0 0 -1 52.1869 105.3228)">
	<stop  offset="0" style="stop-color:#F7E4AD"/>
	<stop  offset="1" style="stop-color:#CCB37D"/>
</linearGradient>
<circle class="st0" cx="36" cy="17.2" r="15.5"/>
<path d="M23.5,22.8c0.7,1,2,1.3,3.1,0.8c0.6-0.5,1-1.3,0.8-2.1"/>
<path d="M30.5,26.7v1c-0.3,0.3-0.7,0.7-1,1c-0.7,0-1.3,0-2,0c-0.8-0.1-1.5-0.2-2.3-0.4L30.5,26.7z"/>
<polyline class="st1" points="7.8,42 0,9.4 1.1,7.6 2.9,8.7 10.7,41.3 7.8,42 "/>
<rect x="8.9" y="42.6" transform="matrix(0.9727 -0.2319 0.2319 0.9727 -10.2334 3.5803)" class="st1" width="2.5" height="5.5"/>
<rect x="4.9" y="41.2" transform="matrix(0.9727 -0.2319 0.2319 0.9727 -9.5208 3.322)" class="st2" width="9" height="2"/>
<path class="st3" d="M21.5,41.1c-10.6,2.4-14,3-15,5.6c-0.7,2.2,0.1,4.5,1.9,5.9c2.3,1.6,5.5,0,13.8-3.4c4.7-1.9,8.9-3.5,12.4-4.8
	l-1.9-5.9C30.6,39,26.6,39.9,21.5,41.1z"/>
<path class="st4" d="M38.5,83.6c0.2,13.3,0,17.6,3,19.4c2.4,1.3,5.5,1,7.6-0.8c2.5-2.4,1.3-6.6-0.7-17.5c-1.1-6.1-2-11.5-2.7-16.2
	l-7.6,0.8C38.3,72.1,38.4,77.2,38.5,83.6z"/>
<path class="st5" d="M21,81.9c-3,12.9-4.1,17.1-1.7,19.6c2,1.9,5.1,2.3,7.6,1.1c3-1.7,2.9-6,3.6-17.1c0.4-6.2,0.8-11.7,1.2-16.3
	l-7.6-1.1C23.5,70.7,22.5,75.6,21,81.9z"/>
<path class="st6" d="M23.5,70.7v-31l7.7-7.9l9.2,0.3l7.1,6.6c-0.3,11-0.7,22-1,33L23.5,70.7z"/>
<linearGradient id="SVGID_2_" gradientUnits="userSpaceOnUse" x1="930.0915" y1="688.173" x2="933.6715" y2="694.553" gradientTransform="matrix(-0.5992 0.8006 -0.8006 -0.5992 1143.0729 -276.3758)">
	<stop  offset="0" style="stop-color:#F7E4AD"/>
	<stop  offset="0.17" style="stop-color:#EDD8A2"/>
	<stop  offset="0.43" style="stop-color:#E2CC96"/>
	<stop  offset="0.68" style="stop-color:#DEC892"/>
	<stop  offset="0.71" style="stop-color:#DCC690"/>
	<stop  offset="1" style="stop-color:#CCB37D"/>
</linearGradient>
<path class="st7" d="M28.3,51.7C24.5,63.3,23,67,25,69.5c1.7,1.9,4.4,2.6,6.8,1.7c2.9-1.3,3.2-5.3,4.8-15.3
	c0.9-5.6,1.8-10.6,2.6-14.8l-6.8-1.7C31.6,41.7,30.2,46.1,28.3,51.7z"/>
<path class="st6" d="M42.1,41.5c0,0.2-0.4,0.3-1.3,0.6s-5.4,1.4-9.1-1.5c-0.8-0.7-1.6-1.3-1.5-1.7C30.7,37.6,42.2,40.3,42.1,41.5z"
	/>
<linearGradient id="SVGID_3_" gradientUnits="userSpaceOnUse" x1="1007.9969" y1="54.3302" x2="1041.8667" y2="54.3302" gradientTransform="matrix(-1 0 0 -1 1060.1769 70.3228)">
	<stop  offset="0" style="stop-color:#808080"/>
	<stop  offset="1" style="stop-color:#E6E6E6"/>
</linearGradient>
<path class="st8" d="M31.2,30c-3.8-3.3-1.8-10.2-6-12c-0.2-0.1-1.9-0.8-3,0c-1.8,1.2-1.4,5.6,1,11c-0.3,0.1-0.7,0.1-1,0
	c-3.5-0.9-6.1-13.1-1-21c1.8-2.5,4.2-4.6,7-6c2.5-1.3,5.2-1.9,8-2c2.8-0.1,5.6,0.6,8,2c2,1.2,3.8,3,5,5c2,3.3,3.1,7.1,3,11
	c0,2.8,0.1,4.9-1,7C47.8,31.6,35.8,34.1,31.2,30z"/>
<path class="st6" d="M48.2,40v27.2L34.7,77l-13.5-9.8V40H48.2z"/>
<path class="st9" d="M34.4,39.5c-0.8,0-1.5,0.7-1.5,1.5l0.5,35c0,0.8,0.7,1.5,1.5,1.5s1.5-0.7,1.5-1.5l-0.5-35
	C35.9,40.2,35.2,39.5,34.4,39.5z"/>
<path class="st9" d="M48.2,53.5l-27.1,0.8c-1.9,0.1-1.9,3.1,0,3l27.1-0.8C50.1,56.4,50.1,53.4,48.2,53.5z"/>
<path class="st10" d="M20.2,39.3v28.3l14.4,10.2L49,67.6V39.3H20.2z M20.8,40.1h27.7v27.1L34.6,77l-13.9-9.8L20.8,40.1z"/>
<rect x="9.7" y="44.1" class="st1" width="0" height="1"/>
</svg>
