<svg id="Vrstva_1" data-name="Vrstva 1" xmlns="http://www.w3.org/2000/svg" xmlns:xlink="http://www.w3.org/1999/xlink" viewBox="0 0 52.18 103.88"><defs><style>.cls-1{fill:url(#Nepojmenovaný_přechod_16);}.cls-2{fill:#cacecc;}.cls-3{fill:#a7aaa8;}.cls-4{fill:#f7e4ad;}.cls-5{fill:#020100;}.cls-6{fill:#070604;}.cls-11,.cls-7{fill:#676d6a;}.cls-8{fill:url(#Nepojmenovaný_přechod_20);}.cls-9{fill:url(#Nepojmenovaný_přechod_48);}.cls-10{fill:#fcfcfc;}.cls-11{stroke:#000;stroke-miterlimit:10;}</style><linearGradient id="Nepojmenovaný_přechod_16" x1="3.53" y1="10.71" x2="23.06" y2="20.67" gradientUnits="userSpaceOnUse"><stop offset="0" stop-color="#f7e4ad"/><stop offset="1" stop-color="#ccb37d"/></linearGradient><linearGradient id="Nepojmenovaný_přechod_20" x1="678.24" y1="226.12" x2="681.82" y2="219.74" gradientTransform="translate(800.01 -587.56) rotate(53.19)" gradientUnits="userSpaceOnUse"><stop offset="0" stop-color="#f7e4ad"/><stop offset="0.17" stop-color="#edd8a2"/><stop offset="0.43" stop-color="#e2cc96"/><stop offset="0.68" stop-color="#dec892"/><stop offset="0.71" stop-color="#dcc690"/><stop offset="1" stop-color="#ccb37d"/></linearGradient><linearGradient id="Nepojmenovaný_přechod_48" x1="1007.99" y1="51" x2="1041.87" y2="51" gradientUnits="userSpaceOnUse"><stop offset="0" stop-color="gray"/><stop offset="1" stop-color="#e6e6e6"/></linearGradient></defs><circle class="cls-1" cx="16.23" cy="17.19" r="15.5"/><path d="M1032.81,56.52a2.19,2.19,0,0,0,.84,2.08,2.31,2.31,0,0,0,3.07-.75" transform="translate(-1007.99 -35)"/><path d="M1035,63.32a14.2,14.2,0,0,1-2.3.37,14.78,14.78,0,0,1-2,0c-.33-.34-.66-.67-1-1v-1Z" transform="translate(-1007.99 -35)"/><polyline class="cls-2" points="44.42 41.96 41.5 41.26 49.26 8.7 51.07 7.57 52.18 9.39 44.42 41.96"/><rect class="cls-2" x="1048.83" y="77.51" width="2.5" height="5.5" transform="translate(-960.76 -276.29) rotate(13.41)"/><rect class="cls-3" x="1046.33" y="76.1" width="9" height="2" transform="translate(-961.48 -276.55) rotate(13.41)"/><path class="cls-4" d="M1027.42,73.46l-1.86,5.93c3.58,1.33,7.77,2.94,12.43,4.84,8.35,3.41,11.52,5,13.81,3.42a5.51,5.51,0,0,0,1.87-5.93c-1-2.65-4.45-3.26-15-5.64C1033.57,74.92,1029.54,74,1027.42,73.46Z" transform="translate(-1007.99 -35)"/><path class="cls-5" d="M1022,104.41l-7.59-.76c-.71,4.64-1.6,10.08-2.71,16.17-2,10.9-3.14,15.11-.66,17.47a6.76,6.76,0,0,0,7.6.76c2.95-1.82,2.81-6.16,3-19.43C1021.74,112.17,1021.88,107.09,1022,104.41Z" transform="translate(-1007.99 -35)"/><path class="cls-6" d="M1036.06,103.06l-7.55,1.09c.43,4.68.87,10.17,1.24,16.35.68,11.06.59,15.42,3.57,17.11a6.72,6.72,0,0,0,7.55-1.08c2.43-2.48,1.25-6.66-1.71-19.59C1037.72,110.65,1036.63,105.68,1036.06,103.06Z" transform="translate(-1007.99 -35)"/><path class="cls-7" d="M1013.71,106.69q-.5-16.5-1-33l7.07-6.62,9.19-.26,7.74,7.88v31Z" transform="translate(-1007.99 -35)"/><path class="cls-8" d="M1027.82,74.32,1021,76c.8,4.23,1.69,9.21,2.58,14.81,1.58,10,1.89,14,4.75,15.31a6.19,6.19,0,0,0,6.81-1.66c2-2.47.55-6.18-3.29-17.72C1030,81.1,1028.57,76.66,1027.82,74.32Z" transform="translate(-1007.99 -35)"/><path class="cls-7" d="M1030,73.93c.15.4-.67,1-1.48,1.68-3.72,2.9-8.23,1.72-9.1,1.49s-1.28-.33-1.3-.55C1018,75.33,1029.44,72.6,1030,73.93Z" transform="translate(-1007.99 -35)"/><path class="cls-9" d="M1009,60c-1.06-2.09-1-4.16-1-7a20.36,20.36,0,0,1,3-11,14.82,14.82,0,0,1,5-5,15.1,15.1,0,0,1,8-2,18.42,18.42,0,0,1,8,2,19.05,19.05,0,0,1,7,6c5.09,7.94,2.54,20.08-1,21a2.14,2.14,0,0,1-1,0c2.38-5.38,2.77-9.78,1-11-1.11-.76-2.79-.09-3,0-4.25,1.78-2.2,8.65-6,12C1024.33,69.12,1012.33,66.56,1009,60Z" transform="translate(-1007.99 -35)"/><path class="cls-7" d="M1039,75v27.16L1025.5,112l-13.5-9.84V75Z" transform="translate(-1007.99 -35)"/><path class="cls-10" d="M1024.32,76l-.48,35a1.5,1.5,0,0,0,3,0l.48-35a1.5,1.5,0,0,0-3,0Z" transform="translate(-1007.99 -35)"/><path class="cls-10" d="M1012,91.47l27.06.84c1.93.06,1.93-2.94,0-3L1012,88.47c-1.93-.06-1.93,2.94,0,3Z" transform="translate(-1007.99 -35)"/><path class="cls-11" d="M1011.15,74.33v28.25l14.42,10.23L1040,102.58V74.33Zm28.27,27.88L1025.57,112l-13.84-9.82V75.11h27.69Z" transform="translate(-1007.99 -35)"/><rect class="cls-2" x="1050.49" y="79.09" height="1" transform="translate(-960.91 -276.4) rotate(13.41)"/></svg>