<?xml version="1.0" encoding="utf-8"?>
<!-- Generator: Adobe Illustrator 25.2.0, SVG Export Plug-In . SVG Version: 6.00 Build 0)  -->
<svg version="1.1" id="Vrstva_1" xmlns="http://www.w3.org/2000/svg" xmlns:xlink="http://www.w3.org/1999/xlink" x="0px" y="0px"
	 viewBox="0 0 77 102.2" style="enable-background:new 0 0 77 102.2;" xml:space="preserve">
<style type="text/css">
	.st0{fill:url(#SVGID_1_);}
	.st1{fill:#F7E4AD;}
	.st2{fill:#020100;}
	.st3{fill:#070604;}
	.st4{fill:#07492E;}
	.st5{fill:#564211;}
	.st6{fill:url(#SVGID_2_);}
	.st7{fill:url(#SVGID_3_);}
</style>
<linearGradient id="SVGID_1_" gradientUnits="userSpaceOnUse" x1="14.7988" y1="94.2804" x2="34.3388" y2="84.3304" gradientTransform="matrix(-1 0 0 -1 76.9953 103.3228)">
	<stop  offset="0" style="stop-color:#F7E4AD"/>
	<stop  offset="1" style="stop-color:#CCB37D"/>
</linearGradient>
<circle class="st0" cx="49.5" cy="15.5" r="15.5"/>
<path d="M37,21.2c0.7,1,2,1.3,3.1,0.7c0.6-0.5,1-1.3,0.8-2.1"/>
<path d="M44,25v1l-1,1c-0.7,0-1.3,0-2,0c-0.8-0.1-1.5-0.2-2.3-0.4L44,25z"/>
<path class="st1" d="M34.4,46.3C24.3,50,20.9,51,20.3,53.8c-0.4,2.2,0.7,4.5,2.6,5.6c2.5,1.3,5.4-0.7,13.2-5.2
	c4.4-2.5,8.3-4.6,11.7-6.4l-2.6-5.6C43.2,43,39.3,44.4,34.4,46.3z"/>
<path class="st2" d="M52.1,81.9c0.2,13.3,0,17.6,3,19.4c2.4,1.3,5.5,1,7.6-0.8c2.5-2.3,1.3-6.6-0.7-17.5c-1.1-6.1-2-11.5-2.7-16.2
	l-7.6,0.8C51.8,70.4,52,75.5,52.1,81.9z"/>
<path class="st3" d="M34.6,80.3c-3,12.9-4.1,17.1-1.7,19.6c2.1,1.9,5.1,2.3,7.6,1.1c3-1.7,2.9-6,3.6-17.1c0.4-6.2,0.8-11.7,1.2-16.3
	l-7.6-1.1C37.1,69,36,74,34.6,80.3z"/>
<path class="st4" d="M37,69V38l7.7-7.9l9.2,0.2L61,37c-0.3,11-0.7,22-1,33L37,69z"/>
<path class="st5" d="M27.6,14.6c-0.2-1.9-3.2-1.9-3,0c0.3,3.9,0.8,8.2-0.9,12c-1.3,2.9-3.8,5.3-7.1,5.3C8.8,31.9,5.3,23.5,3,17.4
	c-0.7-1.8-3.6-1-2.9,0.8c1.4,3.6,2.8,7.3,5.2,10.4c3.7,4.9,10.9,8.4,16.6,4.7C28.2,29.3,28.1,21.1,27.6,14.6L27.6,14.6z"/>
<path class="st5" d="M14.7,15.6c-0.3-1.9-3.2-1.1-2.9,0.8c0.8,4.8,1.7,9.6,2.7,14.3c3.5,16.8,8.2,33.3,14,49.4
	c0.7,1.8,3.5,1,2.9-0.8c-1.6-4.6-3.2-9.2-4.6-13.8C21.6,49.1,17.6,32.5,14.7,15.6L14.7,15.6z"/>
<linearGradient id="SVGID_2_" gradientUnits="userSpaceOnUse" x1="739.1985" y1="-152.4407" x2="742.7685" y2="-146.0607" gradientTransform="matrix(-0.9695 -0.2451 0.2451 -0.9695 786.3941 78.3114)">
	<stop  offset="0" style="stop-color:#F7E4AD"/>
	<stop  offset="0.17" style="stop-color:#EDD8A2"/>
	<stop  offset="0.43" style="stop-color:#E2CC96"/>
	<stop  offset="0.68" style="stop-color:#DEC892"/>
	<stop  offset="0.71" style="stop-color:#DCC690"/>
	<stop  offset="1" style="stop-color:#CCB37D"/>
</linearGradient>
<path class="st6" d="M33.8,37.2c-12.1,0.9-16.1,1-17.6,3.8c-1.1,2.3-0.7,5,1,6.9c2.3,2.2,6.1,0.9,16-1.5c5.5-1.3,10.5-2.4,14.7-3.3
	l-1.1-6.9C44.3,36.4,39.7,36.7,33.8,37.2z"/>
<linearGradient id="SVGID_3_" gradientUnits="userSpaceOnUse" x1="766.9187" y1="16.5743" x2="817.7287" y2="62.2743" gradientTransform="matrix(-1 0 0 -1 859.9953 73.3328)">
	<stop  offset="0" style="stop-color:#FCEE21"/>
	<stop  offset="1" style="stop-color:#D8DC22"/>
</linearGradient>
<path class="st7" d="M23,17l11-3c0.9-8.1,7.8-14.2,16-14c9.4,0.3,14.8,9.2,15,15v0.5L77,19L23,17z"/>
<path class="st4" d="M48,46c-0.2,0.1-0.5-0.3-1-1s-3.3-4.5-2-9c0.3-1,0.6-2,1-2C47.4,34,49.2,45.7,48,46z"/>
</svg>
