<svg id="Vrstva_1" data-name="Vrstva 1" xmlns="http://www.w3.org/2000/svg" xmlns:xlink="http://www.w3.org/1999/xlink" viewBox="0 0 77 102.2"><defs><style>.cls-1{fill:url(#Nepojmenovaný_přechod_16);}.cls-2{fill:#f7e4ad;}.cls-3{fill:#020100;}.cls-4{fill:#070604;}.cls-5{fill:#07492e;}.cls-6{fill:#564211;}.cls-7{fill:url(#Nepojmenovaný_přechod_20);}.cls-8{fill:url(#Nepojmenovaný_přechod_19);}</style><linearGradient id="Nepojmenovaný_přechod_16" x1="14.8" y1="9.04" x2="34.34" y2="18.99" gradientUnits="userSpaceOnUse"><stop offset="0" stop-color="#f7e4ad"/><stop offset="1" stop-color="#ccb37d"/></linearGradient><linearGradient id="Nepojmenovaný_přechod_20" x1="920.72" y1="111.58" x2="924.29" y2="105.2" gradientTransform="translate(-92.34 192.42) rotate(-14.19)" gradientUnits="userSpaceOnUse"><stop offset="0" stop-color="#f7e4ad"/><stop offset="0.17" stop-color="#edd8a2"/><stop offset="0.43" stop-color="#e2cc96"/><stop offset="0.68" stop-color="#dec892"/><stop offset="0.71" stop-color="#dcc690"/><stop offset="1" stop-color="#ccb37d"/></linearGradient><linearGradient id="Nepojmenovaný_přechod_19" x1="766.92" y1="86.75" x2="817.73" y2="41.05" gradientUnits="userSpaceOnUse"><stop offset="0" stop-color="#fcee21"/><stop offset="1" stop-color="#d8dc22"/></linearGradient></defs><circle class="cls-1" cx="27.5" cy="15.51" r="15.5"/><path d="M819.1,49.84a2.16,2.16,0,0,0,.83,2.07,2.3,2.3,0,0,0,3.07-.74" transform="translate(-783 -29.99)"/><path d="M821.3,56.64A13.41,13.41,0,0,1,819,57a14.78,14.78,0,0,1-2,0l-1-1V55Z" transform="translate(-783 -29.99)"/><path class="cls-2" d="M814.75,72.2l-2.62,5.63c3.38,1.79,7.32,3.93,11.7,6.42,7.84,4.46,10.78,6.45,13.25,5.17a5.48,5.48,0,0,0,2.62-5.63c-.61-2.75-4-3.81-14.11-7.54C820.65,74.44,816.79,73,814.75,72.2Z" transform="translate(-783 -29.99)"/><path class="cls-3" d="M808.24,97.72l-7.6-.76c-.7,4.65-1.59,10.09-2.71,16.17-2,10.91-3.13,15.12-.65,17.47a6.75,6.75,0,0,0,7.59.76c3-1.82,2.82-6.16,3-19.42C808,105.48,808.16,100.4,808.24,97.72Z" transform="translate(-783 -29.99)"/><path class="cls-4" d="M822.35,96.38l-7.56,1.09c.43,4.67.88,10.17,1.25,16.34.67,11.07.59,15.43,3.56,17.12a6.76,6.76,0,0,0,7.56-1.09c2.42-2.47,1.25-6.65-1.72-19.58C824,104,822.92,99,822.35,96.38Z" transform="translate(-783 -29.99)"/><path class="cls-5" d="M800,100q-.5-16.5-1-33l7.06-6.62,9.2-.25L823,68V99Z" transform="translate(-783 -29.99)"/><path class="cls-6" d="M832.42,44.53c-.55,6.61-.63,14.72,5.67,18.79,5.76,3.73,12.91.21,16.63-4.68,2.37-3.11,3.78-6.79,5.17-10.41.69-1.8-2.21-2.58-2.89-.79-2.33,6.05-5.82,14.43-13.57,14.42-3.35,0-5.86-2.36-7.14-5.3-1.64-3.76-1.2-8.07-.87-12,.16-1.93-2.84-1.92-3,0Z" transform="translate(-783 -29.99)"/><path class="cls-6" d="M845.27,45.58a374.61,374.61,0,0,1-12,49.88q-2.19,6.95-4.64,13.8c-.66,1.82,2.24,2.61,2.89.8a376,376,0,0,0,14-49.37q1.5-7.12,2.72-14.31c.32-1.89-2.57-2.7-2.9-.8Z" transform="translate(-783 -29.99)"/><path class="cls-7" d="M813.23,66.14l-1.09,6.91c4.22.89,9.15,2,14.67,3.32,9.88,2.39,13.67,3.64,16,1.49A6.16,6.16,0,0,0,843.85,71c-1.51-2.8-5.49-2.89-17.62-3.78C820.32,66.73,815.68,66.35,813.23,66.14Z" transform="translate(-783 -29.99)"/><path class="cls-8" d="M783,49l12-3.5V45c.15-5.8,5.6-14.68,15-15a15.7,15.7,0,0,1,16,14l11,3Z" transform="translate(-783 -29.99)"/><path class="cls-5" d="M814,64c.42,0,.71,1,1,2,1.31,4.53-1.46,8.28-2,9s-.79,1.06-1,1C810.83,75.66,812.57,64,814,64Z" transform="translate(-783 -29.99)"/></svg>