<?xml version="1.0" encoding="utf-8"?>
<!-- Generator: Adobe Illustrator 25.2.0, SVG Export Plug-In . SVG Version: 6.00 Build 0)  -->
<svg version="1.1" id="Vrstva_1" xmlns="http://www.w3.org/2000/svg" xmlns:xlink="http://www.w3.org/1999/xlink" x="0px" y="0px"
	 viewBox="0 0 55.8 115.3" style="enable-background:new 0 0 55.8 115.3;" xml:space="preserve">
<style type="text/css">
	.st0{fill:url(#SVGID_1_);}
	.st1{fill:url(#SVGID_2_);}
	.st2{fill:#020100;}
	.st3{fill:#070604;}
	.st4{fill:#444707;}
	.st5{fill:url(#SVGID_3_);}
</style>
<linearGradient id="SVGID_1_" gradientUnits="userSpaceOnUse" x1="32.08" y1="112.4228" x2="3.87" y2="84.2128" gradientTransform="matrix(-1 0 0 -1 55.7889 115.3228)">
	<stop  offset="0" style="stop-color:#39B54A"/>
	<stop  offset="1" style="stop-color:#006837"/>
</linearGradient>
<circle class="st0" cx="38.3" cy="17.5" r="17.5"/>
<path d="M24.1,19.3c1.7,2.3,4.6,2.8,6.4,1.6c1.3-1,2-2.7,1.7-4.3"/>
<path d="M34.1,25.9v1.7l-1.7,1.7c-1.1,0.1-2.3,0.1-3.4,0c-1.3-0.1-2.6-0.3-3.9-0.6L34.1,25.9z"/>
<linearGradient id="SVGID_2_" gradientUnits="userSpaceOnUse" x1="1154.2291" y1="47.6163" x2="1141.6392" y2="30.0063" gradientTransform="matrix(-1 0 0 -1 1163.6088 89.3228)">
	<stop  offset="0" style="stop-color:#39B54A"/>
	<stop  offset="1" style="stop-color:#006837"/>
</linearGradient>
<path class="st1" d="M21.2,52.2C9.8,56.4,6,57.6,5.3,60.7c-0.4,2.5,0.8,5.1,3,6.4c2.8,1.4,6.2-0.8,15-5.8c4.9-2.8,9.4-5.2,13.2-7.2
	l-3-6.4C31.2,48.5,26.8,50.1,21.2,52.2z"/>
<path class="st2" d="M41.2,92.5c0.2,14.9,0.1,19.9,3.4,21.9c2.8,1.5,6.2,1.2,8.6-0.9c2.8-2.7,1.5-7.4-0.7-19.7
	c-1.3-6.9-2.3-13-3.1-18.2l-8.6,0.9C40.9,79.4,41.1,85.2,41.2,92.5z"/>
<path class="st3" d="M21.4,90.6c-3.3,14.6-4.7,19.3-1.9,22.1c2.3,2.1,5.7,2.6,8.5,1.2c3.3-1.9,3.2-6.8,4-19.3
	c0.4-7,0.9-13.2,1.4-18.4l-8.5-1.2C24.3,77.9,23.1,83.5,21.4,90.6z"/>
<path class="st4" d="M24.2,77.9v-35l8.7-8.9l10.4,0.3l8,7.5c-0.4,12.4-0.8,24.8-1.1,37.2L24.2,77.9z"/>
<linearGradient id="SVGID_3_" gradientUnits="userSpaceOnUse" x1="1149.4097" y1="50.8124" x2="1143.6996" y2="38.6424" gradientTransform="matrix(-1 0 0 -1 1163.6088 89.3228)">
	<stop  offset="0" style="stop-color:#39B54A"/>
	<stop  offset="1" style="stop-color:#006837"/>
</linearGradient>
<path class="st5" d="M20.6,41.9c-13.7,1-18.2,1.1-19.9,4.3c-1.2,2.6-0.8,5.7,1.2,7.8c2.6,2.4,6.8,1,18-1.7
	c6.2-1.5,11.8-2.8,16.5-3.8l-1.2-7.8C32.4,41,27.2,41.4,20.6,41.9z"/>
<path class="st4" d="M36.6,51.9c-0.2,0.1-0.5-0.3-1.1-1.1s-3.7-5-2.3-10.2c0.3-1.1,0.7-2.3,1.1-2.3C36,38.4,37.9,51.5,36.6,51.9z"/>
</svg>
