<svg id="Vrstva_1" data-name="Vrstva 1" xmlns="http://www.w3.org/2000/svg" xmlns:xlink="http://www.w3.org/1999/xlink" viewBox="0 0 55.82 115.33"><defs><style>.cls-1{fill:url(#Nepojmenovaný_přechod_34);}.cls-2{fill:url(#Nepojmenovaný_přechod_34-2);}.cls-3{fill:#020100;}.cls-4{fill:#070604;}.cls-5{fill:#444707;}.cls-6{fill:url(#Nepojmenovaný_přechod_34-3);}</style><linearGradient id="Nepojmenovaný_přechod_34" x1="32.08" y1="2.9" x2="3.87" y2="31.11" gradientUnits="userSpaceOnUse"><stop offset="0" stop-color="#39b54a"/><stop offset="1" stop-color="#006837"/></linearGradient><linearGradient id="Nepojmenovaný_přechod_34-2" x1="1154.22" y1="67.7" x2="1141.63" y2="85.31" xlink:href="#Nepojmenovaný_přechod_34"/><linearGradient id="Nepojmenovaný_přechod_34-3" x1="1149.43" y1="64.52" x2="1143.72" y2="76.69" xlink:href="#Nepojmenovaný_přechod_34"/></defs><circle class="cls-1" cx="17.49" cy="17.49" r="17.49"/><path d="M1131.37,42.55a4.54,4.54,0,0,0,1.74,4.34c1.82,1.24,4.76.72,6.41-1.57" transform="translate(-1107.82 -26)"/><path d="M1138.49,54.7a23.77,23.77,0,0,1-3.91.62,24.16,24.16,0,0,1-3.41,0l-1.71-1.7V51.91Z" transform="translate(-1107.82 -26)"/><path class="cls-2" d="M1130.11,73.62l-3,6.36c3.82,2,8.27,4.43,13.21,7.24,8.85,5,12.16,7.28,15,5.84a6.19,6.19,0,0,0,3-6.36c-.68-3.1-4.49-4.3-15.92-8.5C1136.77,76.15,1132.41,74.5,1130.11,73.62Z" transform="translate(-1107.82 -26)"/><path class="cls-3" d="M1122.76,102.43l-8.57-.86c-.79,5.24-1.8,11.38-3.06,18.24-2.26,12.31-3.54,17.06-.74,19.72a7.61,7.61,0,0,0,8.57.86c3.33-2,3.18-7,3.43-21.92C1122.52,111.18,1122.67,105.45,1122.76,102.43Z" transform="translate(-1107.82 -26)"/><path class="cls-4" d="M1138.68,100.91l-8.52,1.22c.48,5.28,1,11.48,1.4,18.45.76,12.49.67,17.41,4,19.32a7.63,7.63,0,0,0,8.53-1.23c2.74-2.79,1.41-7.51-1.93-22.1C1140.55,109.47,1139.32,103.86,1138.68,100.91Z" transform="translate(-1107.82 -26)"/><path class="cls-5" d="M1113.46,105q-.56-18.61-1.13-37.24l8-7.46,10.37-.29,8.74,8.88v35Z" transform="translate(-1107.82 -26)"/><path class="cls-6" d="M1128.39,66.78l-1.22,7.8c4.75,1,10.32,2.24,16.54,3.75,11.15,2.7,15.44,4.11,18,1.68a7,7,0,0,0,1.22-7.8c-1.7-3.15-6.2-3.26-19.89-4.27C1136.4,67.45,1131.16,67,1128.39,66.78Z" transform="translate(-1107.82 -26)"/><path class="cls-5" d="M1129.26,64.37c.48,0,.81,1.14,1.13,2.26,1.48,5.11-1.65,9.34-2.26,10.15s-.88,1.2-1.12,1.13C1125.68,77.53,1127.64,64.36,1129.26,64.37Z" transform="translate(-1107.82 -26)"/></svg>