<svg xmlns="http://www.w3.org/2000/svg" xmlns:xlink="http://www.w3.org/1999/xlink" viewBox="0 0 1383 679"><defs><style>.cls-1{fill:url(#Nepojmenovaný_přechod_74);}.cls-2{fill:#fff;}.cls-3{fill:#332d12;stroke:#e51a4f;stroke-miterlimit:10;}.cls-4{fill:#eacc4e;}.cls-5{fill:url(#Nepojmenovaný_přechod_65);}.cls-6{fill:url(#Nepojmenovaný_přechod_65-2);}.cls-7{fill:url(#Nepojmenovaný_přechod_65-3);}.cls-8{fill:url(#Nepojmenovaný_přechod_65-4);}.cls-9{fill:url(#Nepojmenovaný_přechod_65-5);}.cls-10{fill:url(#Nepojmenovaný_přechod_65-6);}.cls-11{fill:url(#Nepojmenovaný_přechod_65-7);}.cls-12{fill:url(#Nepojmenovaný_přechod_65-8);}.cls-13{fill:url(#Nepojmenovaný_přechod_65-9);}.cls-14{fill:url(#Nepojmenovaný_přechod_65-10);}.cls-15{fill:url(#Nepojmenovaný_přechod_65-11);}.cls-16{fill:url(#Nepojmenovaný_přechod_65-12);}.cls-17{fill:url(#Nepojmenovaný_přechod_65-13);}.cls-18{fill:url(#Nepojmenovaný_přechod_65-14);}.cls-19{fill:url(#Nepojmenovaný_přechod_65-15);}.cls-20{fill:url(#Nepojmenovaný_přechod_65-16);}.cls-21{fill:url(#Nepojmenovaný_přechod_65-17);}.cls-22{fill:url(#Nepojmenovaný_přechod_65-18);}.cls-23{fill:url(#Nepojmenovaný_přechod_65-19);}.cls-24{fill:url(#Nepojmenovaný_přechod_65-20);}.cls-25{fill:url(#Nepojmenovaný_přechod_65-21);}.cls-26{fill:url(#Nepojmenovaný_přechod_65-22);}.cls-27{fill:url(#Nepojmenovaný_přechod_65-23);}.cls-28{fill:url(#Nepojmenovaný_přechod_65-24);}.cls-29{fill:url(#Nepojmenovaný_přechod_65-25);}.cls-30{fill:url(#Nepojmenovaný_přechod_65-26);}.cls-31{fill:url(#Nepojmenovaný_přechod_65-27);}.cls-32{fill:url(#Nepojmenovaný_přechod_65-28);}.cls-33{fill:url(#Nepojmenovaný_přechod_65-29);}.cls-34{fill:url(#Nepojmenovaný_přechod_65-30);}.cls-35{fill:url(#Nepojmenovaný_přechod_65-31);}.cls-36{fill:url(#Nepojmenovaný_přechod_48);}.cls-37{fill:url(#Nepojmenovaný_přechod_48-2);}.cls-38{fill:url(#Nepojmenovaný_přechod_48-3);}.cls-39{fill:url(#Nepojmenovaný_přechod_48-4);}.cls-40{fill:url(#Nepojmenovaný_přechod_48-5);}.cls-41{fill:url(#Nepojmenovaný_přechod_48-6);}.cls-42{fill:url(#Nepojmenovaný_přechod_48-7);}.cls-43{fill:url(#Nepojmenovaný_přechod_48-8);}.cls-44{fill:url(#Nepojmenovaný_přechod_56);}.cls-45{fill:url(#Nepojmenovaný_přechod_48-9);}.cls-46{fill:url(#Nepojmenovaný_přechod_48-10);}.cls-47{fill:url(#Nepojmenovaný_přechod_48-11);}.cls-48{fill:url(#Nepojmenovaný_přechod_48-12);}.cls-49{fill:url(#Nepojmenovaný_přechod_48-13);}.cls-50{fill:url(#Nepojmenovaný_přechod_48-14);}.cls-51{fill:url(#Nepojmenovaný_přechod_48-15);}.cls-52{fill:url(#Nepojmenovaný_přechod_48-16);}.cls-53{fill:url(#Nepojmenovaný_přechod_56-2);}.cls-54{fill:#e51a4f;}</style><linearGradient id="Nepojmenovaný_přechod_74" x1="436.91" y1="629.96" x2="946.09" y2="-251.96" gradientUnits="userSpaceOnUse"><stop offset="0" stop-color="#3fa9f5"/><stop offset="1" stop-color="#0071bc"/></linearGradient><linearGradient id="Nepojmenovaný_přechod_65" x1="-131.59" y1="238.53" x2="-54.53" y2="238.53" gradientTransform="translate(-128.57 130.81) rotate(-60)" gradientUnits="userSpaceOnUse"><stop offset="0" stop-color="#39b54a"/><stop offset="1" stop-color="#006837"/></linearGradient><linearGradient id="Nepojmenovaný_přechod_65-2" x1="55.29" y1="280.09" x2="92.06" y2="348.52" gradientTransform="matrix(1, 0, 0, 1, 0, 0)" xlink:href="#Nepojmenovaný_přechod_65"/><linearGradient id="Nepojmenovaný_přechod_65-3" x1="84.47" y1="312.17" x2="121.03" y2="248.83" gradientTransform="matrix(1, 0, 0, 1, 0, 0)" xlink:href="#Nepojmenovaný_přechod_65"/><linearGradient id="Nepojmenovaný_přechod_65-4" x1="117.81" y1="373.5" x2="161.69" y2="297.5" gradientTransform="matrix(1, 0, 0, 1, 0, 0)" xlink:href="#Nepojmenovaný_přechod_65"/><linearGradient id="Nepojmenovaný_přechod_65-5" x1="196.58" y1="355.81" x2="222.92" y2="310.19" gradientTransform="matrix(1, 0, 0, 1, 0, 0)" xlink:href="#Nepojmenovaný_přechod_65"/><linearGradient id="Nepojmenovaný_přechod_65-6" x1="228.66" y1="348.6" x2="277.84" y2="263.4" gradientTransform="matrix(1, 0, 0, 1, 0, 0)" xlink:href="#Nepojmenovaný_přechod_65"/><linearGradient id="Nepojmenovaný_přechod_65-7" x1="350.17" y1="352.68" x2="387.33" y2="288.32" gradientTransform="matrix(1, 0, 0, 1, 0, 0)" xlink:href="#Nepojmenovaný_přechod_65"/><linearGradient id="Nepojmenovaný_přechod_65-8" x1="400.72" y1="368.2" x2="425.78" y2="324.8" gradientTransform="matrix(1, 0, 0, 1, 0, 0)" xlink:href="#Nepojmenovaný_přechod_65"/><linearGradient id="Nepojmenovaný_přechod_65-9" x1="440.93" y1="366.66" x2="485.57" y2="289.34" gradientTransform="matrix(1, 0, 0, 1, 0, 0)" xlink:href="#Nepojmenovaný_přechod_65"/><linearGradient id="Nepojmenovaný_přechod_65-10" x1="504.24" y1="384.47" x2="538.26" y2="325.53" gradientTransform="matrix(1, 0, 0, 1, 0, 0)" xlink:href="#Nepojmenovaný_přechod_65"/><linearGradient id="Nepojmenovaný_přechod_65-11" x1="536.06" y1="342.24" x2="574.44" y2="275.76" gradientTransform="matrix(1, 0, 0, 1, 0, 0)" xlink:href="#Nepojmenovaný_přechod_65"/><linearGradient id="Nepojmenovaný_přechod_65-12" x1="657.74" y1="357.44" x2="690.26" y2="301.12" gradientTransform="translate(924.03 -333) rotate(90)" xlink:href="#Nepojmenovaný_přechod_65"/><linearGradient id="Nepojmenovaný_přechod_65-13" x1="624.35" y1="348.84" x2="686.15" y2="313.16" gradientTransform="matrix(1, 0, 0, 1, 0, 0)" xlink:href="#Nepojmenovaný_přechod_65"/><linearGradient id="Nepojmenovaný_přechod_65-14" x1="678.69" y1="359.63" x2="758.81" y2="313.37" gradientTransform="matrix(1, 0, 0, 1, 0, 0)" xlink:href="#Nepojmenovaný_přechod_65"/><linearGradient id="Nepojmenovaný_přechod_65-15" x1="721.59" y1="307.82" x2="798.91" y2="263.18" gradientTransform="matrix(1, 0, 0, 1, 0, 0)" xlink:href="#Nepojmenovaný_přechod_65"/><linearGradient id="Nepojmenovaný_přechod_65-16" x1="759.5" y1="352.23" x2="814" y2="320.77" gradientTransform="matrix(1, 0, 0, 1, 0, 0)" xlink:href="#Nepojmenovaný_přechod_65"/><linearGradient id="Nepojmenovaný_přechod_65-17" x1="890.85" y1="356.01" x2="937.65" y2="328.99" gradientTransform="matrix(1, 0, 0, 1, 0, 0)" xlink:href="#Nepojmenovaný_přechod_65"/><linearGradient id="Nepojmenovaný_přechod_65-18" x1="809.68" y1="355.48" x2="885.82" y2="311.52" gradientTransform="matrix(1, 0, 0, 1, 0, 0)" xlink:href="#Nepojmenovaný_přechod_65"/><linearGradient id="Nepojmenovaný_přechod_65-19" x1="898.65" y1="304.8" x2="956.85" y2="271.2" gradientTransform="matrix(1, 0, 0, 1, 0, 0)" xlink:href="#Nepojmenovaný_přechod_65"/><linearGradient id="Nepojmenovaný_přechod_65-20" x1="926.3" y1="360.23" x2="991.2" y2="322.77" gradientTransform="matrix(1, 0, 0, 1, 0, 0)" xlink:href="#Nepojmenovaný_přechod_65"/><linearGradient id="Nepojmenovaný_přechod_65-21" x1="967.96" y1="338.67" x2="1039.54" y2="297.33" gradientTransform="matrix(1, 0, 0, 1, 0, 0)" xlink:href="#Nepojmenovaný_přechod_65"/><linearGradient id="Nepojmenovaný_přechod_65-22" x1="1035.24" y1="357.65" x2="1049.26" y2="333.35" gradientTransform="matrix(1, 0, 0, 1, 0, 0)" xlink:href="#Nepojmenovaný_přechod_65"/><linearGradient id="Nepojmenovaný_přechod_65-23" x1="1133.58" y1="351.51" x2="1165.92" y2="295.49" gradientTransform="matrix(1, 0, 0, 1, 0, 0)" xlink:href="#Nepojmenovaný_přechod_65"/><linearGradient id="Nepojmenovaný_přechod_65-24" x1="1222.65" y1="371.36" x2="1258.85" y2="308.64" gradientTransform="matrix(1, 0, 0, 1, 0, 0)" xlink:href="#Nepojmenovaný_přechod_65"/><linearGradient id="Nepojmenovaný_přechod_65-25" x1="1278.18" y1="373.07" x2="1312.32" y2="313.93" gradientTransform="matrix(1, 0, 0, 1, 0, 0)" xlink:href="#Nepojmenovaný_přechod_65"/><linearGradient id="Nepojmenovaný_přechod_65-26" x1="1132.99" y1="365.5" x2="1155.51" y2="326.5" gradientTransform="matrix(1, 0, 0, 1, 0, 0)" xlink:href="#Nepojmenovaný_přechod_65"/><linearGradient id="Nepojmenovaný_přechod_65-27" x1="1177.66" y1="366.07" x2="1200.84" y2="325.93" gradientTransform="matrix(1, 0, 0, 1, 0, 0)" xlink:href="#Nepojmenovaný_přechod_65"/><linearGradient id="Nepojmenovaný_přechod_65-28" x1="1206.1" y1="358.88" x2="1220.4" y2="334.12" gradientTransform="matrix(1, 0, 0, 1, 0, 0)" xlink:href="#Nepojmenovaný_přechod_65"/><linearGradient id="Nepojmenovaný_přechod_65-29" x1="1341.23" y1="354.94" x2="1375.73" y2="295.17" gradientTransform="matrix(1, 0, 0, 1, 0, 0)" xlink:href="#Nepojmenovaný_přechod_65"/><linearGradient id="Nepojmenovaný_přechod_65-30" x1="1331.2" y1="341.5" x2="1351.2" y2="306.86" gradientTransform="matrix(1, 0, 0, 1, 0, 0)" xlink:href="#Nepojmenovaný_přechod_65"/><linearGradient id="Nepojmenovaný_přechod_65-31" x1="1332.13" y1="366.39" x2="1353.37" y2="329.61" gradientTransform="matrix(1, 0, 0, 1, 0, 0)" xlink:href="#Nepojmenovaný_přechod_65"/><linearGradient id="Nepojmenovaný_přechod_48" x1="792.51" y1="364.8" x2="844.51" y2="364.8" gradientTransform="matrix(-1, 0, 0, 1, 1913.34, 0)" gradientUnits="userSpaceOnUse"><stop offset="0" stop-color="gray"/><stop offset="1" stop-color="#e6e6e6"/></linearGradient><linearGradient id="Nepojmenovaný_přechod_48-2" x1="668.01" y1="480.76" x2="846.51" y2="480.76" xlink:href="#Nepojmenovaný_přechod_48"/><linearGradient id="Nepojmenovaný_přechod_48-3" x1="696.85" y1="435.66" x2="884.83" y2="435.66" gradientTransform="matrix(-1.06, 0.11, 0.11, 1.06, 1966.47, -117.87)" xlink:href="#Nepojmenovaný_přechod_48"/><linearGradient id="Nepojmenovaný_přechod_48-4" x1="594.51" y1="527.76" x2="669.51" y2="527.76" xlink:href="#Nepojmenovaný_přechod_48"/><linearGradient id="Nepojmenovaný_přechod_48-5" x1="843.44" y1="352.63" x2="876.51" y2="352.63" xlink:href="#Nepojmenovaný_přechod_48"/><linearGradient id="Nepojmenovaný_přechod_48-6" x1="668.44" y1="514.64" x2="701.51" y2="514.64" xlink:href="#Nepojmenovaný_přechod_48"/><linearGradient id="Nepojmenovaný_přechod_48-7" x1="594.51" y1="435.76" x2="701.51" y2="435.76" xlink:href="#Nepojmenovaný_přechod_48"/><linearGradient id="Nepojmenovaný_přechod_48-8" x1="792.51" y1="272.76" x2="876.51" y2="272.76" xlink:href="#Nepojmenovaný_přechod_48"/><linearGradient id="Nepojmenovaný_přechod_56" x1="760" y1="491.82" x2="794.51" y2="491.82" gradientTransform="matrix(-1, 0, 0, 1, 1913.34, 0)" gradientUnits="userSpaceOnUse"><stop offset="0" stop-color="gray"/><stop offset="1"/></linearGradient><linearGradient id="Nepojmenovaný_přechod_48-9" x1="273.66" y1="364.8" x2="325.66" y2="364.8" gradientTransform="matrix(1, 0, 0, 1, 0, 0)" xlink:href="#Nepojmenovaný_přechod_48"/><linearGradient id="Nepojmenovaný_přechod_48-10" x1="149.16" y1="480.76" x2="327.66" y2="480.76" gradientTransform="matrix(1, 0, 0, 1, 0, 0)" xlink:href="#Nepojmenovaný_přechod_48"/><linearGradient id="Nepojmenovaný_přechod_48-11" x1="211.82" y1="485.81" x2="399.81" y2="485.81" gradientTransform="matrix(1.06, 0.11, -0.11, 1.06, -53.13, -117.87)" xlink:href="#Nepojmenovaný_přechod_48"/><linearGradient id="Nepojmenovaný_přechod_48-12" x1="75.66" y1="527.76" x2="150.66" y2="527.76" gradientTransform="matrix(1, 0, 0, 1, 0, 0)" xlink:href="#Nepojmenovaný_přechod_48"/><linearGradient id="Nepojmenovaný_přechod_48-13" x1="324.6" y1="352.63" x2="357.66" y2="352.63" gradientTransform="matrix(1, 0, 0, 1, 0, 0)" xlink:href="#Nepojmenovaný_přechod_48"/><linearGradient id="Nepojmenovaný_přechod_48-14" x1="149.6" y1="514.64" x2="182.75" y2="514.64" gradientTransform="matrix(1, 0, 0, 1, 0, 0)" xlink:href="#Nepojmenovaný_přechod_48"/><linearGradient id="Nepojmenovaný_přechod_48-15" x1="75.66" y1="435.76" x2="182.66" y2="435.76" gradientTransform="matrix(1, 0, 0, 1, 0, 0)" xlink:href="#Nepojmenovaný_přechod_48"/><linearGradient id="Nepojmenovaný_přechod_48-16" x1="273.66" y1="272.76" x2="357.66" y2="272.76" gradientTransform="matrix(1, 0, 0, 1, 0, 0)" xlink:href="#Nepojmenovaný_přechod_48"/><linearGradient id="Nepojmenovaný_přechod_56-2" x1="241.16" y1="491.82" x2="275.66" y2="491.82" gradientTransform="matrix(1, 0, 0, 1, 0, 0)" xlink:href="#Nepojmenovaný_přechod_56"/></defs><g id="Vrstva_2" data-name="Vrstva 2"><g id="Vrstva_2-2" data-name="Vrstva 2"><rect class="cls-1" x="0.5" width="1382" height="378"/><path class="cls-2" d="M442.75,243c50.94-2.25,63.52-26.52,92-17,20.23,6.76,38.23,27.15,35,41-1.15,4.95-6,13.16-76,27-74.2,14.67-85.66,8.79-92,3-14.06-12.83-17.86-38.79-8-50C402,237.63,414.74,244.24,442.75,243Z"/><path class="cls-2" d="M1012.75,234c8.1,13.43-5,41.63-24,52-19.44,10.62-35.45-2.68-102-14-34.29-5.84-43.54-4.6-44-8C840.87,250.07,992.85,201,1012.75,234Z"/><rect class="cls-3" x="0.5" y="350.5" width="1382" height="328"/><path class="cls-4" d="M382.55,437.77,627.38,443c80.68,1.74,161.48,4.58,242.18,2.09A1282.29,1282.29,0,0,0,1008,433.71c8.58-1.2,14-12.58,11.52-20.29-3-9.41-11.1-12.81-20.3-11.53-4.21.59-7.14,1-12.17,1.61q-7.78,1-15.6,1.81-15.12,1.65-30.29,2.88c-19.9,1.63-39.83,2.76-59.78,3.52-40,1.52-80,1.54-120,1-80.58-1.07-161.15-3.27-241.72-5l-137.12-3c-8.64-.18-16.89,7.72-16.5,16.5.41,9.1,7.25,16.3,16.5,16.5Z"/><path class="cls-4" d="M329,495c88.27,12.9,177.17,6.34,266,6.48,87.63.14,175.15,6.36,262.8,5.57,50.38-.46,100.64-3.52,150.52-10.79,8.57-1.25,14-12.55,11.52-20.3-3-9.37-11.11-12.86-20.29-11.52-83.19,12.13-171.93,10.47-257.4,7.69-43.49-1.41-87-3.13-130.49-3.56s-86.79,1.05-130.19,1.55c-24.11.28-48.22.23-72.3-.75-23.71-1-49.54-3-71.37-6.19-8.5-1.24-18.15,2.1-20.3,11.53-1.78,7.82,2.39,19,11.53,20.29Z"/><path class="cls-4" d="M315.13,555.76A2490.85,2490.85,0,0,1,609.75,548q72.79,2.41,145.34,9.1c46,4.17,92,9.07,138.25,10.06,52.52,1.12,105.76-3.1,156.13-18.78,8.23-2.56,14.33-11.62,11.53-20.29-2.68-8.28-11.48-14.28-20.3-11.53-44.11,13.73-86.16,17.86-132.46,17.78S816,529.78,770,525.51c-96.72-9-193.7-13.25-290.84-11.37q-82.12,1.59-164,8.62c-8.58.73-16.92,7.06-16.5,16.5.37,8.31,7.29,17.29,16.5,16.5Z"/><path class="cls-4" d="M1088.82,588.8,779,577.6,624.51,572c-50.45-1.82-101-4.28-151.44-4.4-56.93-.13-114.15,3.41-169.81,15.94-8.43,1.9-14.18,12.1-11.53,20.3A16.88,16.88,0,0,0,312,615.38a544.4,544.4,0,0,1,71.53-11.2c24.62-2.27,49.34-3.27,74.06-3.5,50.33-.48,100.66,2,151,3.77l306.88,11.09,173.37,6.26c8.64.31,16.89-7.81,16.5-16.5a16.85,16.85,0,0,0-16.5-16.5Z"/><path class="cls-4" d="M320.27,668.09c97.31-5.74,194.85-4.79,292.26-2.53s194.85,5.05,292.28,7.61l164.75,4.33c8.64.23,16.89-7.75,16.5-16.5-.41-9.13-7.25-16.25-16.5-16.5L776,636.79c-97.23-2.56-194.5-5.92-291.77-6-54.68,0-109.37,1.09-164,4.31-8.6.51-16.92,7.23-16.5,16.5.38,8.5,7.27,17,16.5,16.5Z"/><path class="cls-5" d="M.75,305.44c11.82-14.18,32.81-18.06,49.75-8.28,18.89,10.91,25.59,34.68,15,53.09C53.68,370.64,27,371.31,12,363.84A36.14,36.14,0,0,1,.75,355"/><ellipse class="cls-6" cx="69.75" cy="307" rx="22" ry="67"/><ellipse class="cls-7" cx="102.75" cy="280.5" rx="30" ry="38.5"/><ellipse class="cls-8" cx="139.75" cy="335.5" rx="59" ry="37.5"/><ellipse class="cls-9" cx="209.75" cy="333" rx="30" ry="25"/><ellipse class="cls-10" cx="253.25" cy="306" rx="39.5" ry="52"/><ellipse class="cls-11" cx="368.75" cy="320.5" rx="29" ry="39.5"/><ellipse class="cls-12" cx="413.25" cy="346.5" rx="31.5" ry="22.5"/><ellipse class="cls-13" cx="463.25" cy="328" rx="32.5" ry="48"/><ellipse class="cls-14" cx="521.25" cy="355" rx="57.5" ry="21"/><ellipse class="cls-15" cx="555.25" cy="309" rx="39.5" ry="38"/><ellipse class="cls-16" cx="594.75" cy="341" rx="32" ry="34" transform="translate(2.06 685.57) rotate(-60)"/><ellipse class="cls-17" cx="655.25" cy="331" rx="34.5" ry="39"/><ellipse class="cls-18" cx="718.75" cy="336.5" rx="50" ry="32.5"/><ellipse class="cls-19" cx="760.25" cy="285.5" rx="46.5" ry="38.5"/><ellipse class="cls-20" cx="786.75" cy="336.5" rx="30" ry="35.5"/><ellipse class="cls-21" cx="914.25" cy="342.5" rx="26.5" ry="28.5"/><ellipse class="cls-22" cx="847.75" cy="333.5" rx="48" ry="28.5"/><ellipse class="cls-23" cx="927.75" cy="288" rx="32" ry="38"/><ellipse class="cls-24" cx="958.75" cy="341.5" rx="40" ry="28.5"/><ellipse class="cls-25" cx="1003.75" cy="318" rx="38" ry="50"/><ellipse class="cls-26" cx="1042.25" cy="345.5" rx="15.5" ry="13.5"/><ellipse class="cls-27" cx="1149.75" cy="323.5" rx="20" ry="35.5"/><ellipse class="cls-28" cx="1240.75" cy="340" rx="21" ry="40"/><ellipse class="cls-29" cx="1295.25" cy="343.5" rx="53.5" ry="24.5"/><ellipse class="cls-30" cx="1144.25" cy="346" rx="32.5" ry="18"/><ellipse class="cls-31" cx="1189.25" cy="346" rx="20.5" ry="24"/><ellipse class="cls-32" cx="1213.25" cy="346.5" rx="20.5" ry="11.5"/><path class="cls-33" d="M1382.12,351.33a34.5,34.5,0,1,1,.16-51.52"/><circle class="cls-34" cx="1341.2" cy="324.18" r="20"/><ellipse class="cls-35" cx="1342.75" cy="348" rx="36" ry="13"/><polyline class="cls-36" points="1120.84 286.37 1120.84 445.25 1068.84 445.25 1068.84 285.99 1118.44 284.33"/><path class="cls-37" d="M1242.84,607.26l-176-161v-92l178.5,158.5Z"/><path class="cls-38" d="M1120.84,352.26l-52,2,165.72,157.65,50.28-13.65Z"/><polygon class="cls-39" points="1318.84 447.25 1318.84 608.25 1243.84 608.25 1243.84 448.99 1318.84 447.25"/><path class="cls-40" d="M1066.75,447l-29.91-29.4V258.26l33.06,28.09q-.26,39.21-1,79.29Q1068.07,406.8,1066.75,447Z"/><path class="cls-41" d="M1244,608l-32.17-27.34V421.3l33.06,28.09S1242.47,608,1244,608Z"/><path class="cls-42" d="M1318.84,447.26l-74,3-33-29,77,0C1293.8,424.51,1315,442.92,1318.84,447.26Z"/><path class="cls-43" d="M1120.84,286.26l-51,1-33-29h53Z"/><path class="cls-44" d="M1118.84,494.26l29,26c6.19-17.94,6-31.77,5-40-1.33-11.49-4.35-14.72-7-16-4.71-2.27-10.27.6-11,1-2.5,1.33-4.82,3.69-11,17C1122.49,485.15,1120.7,489.23,1118.84,494.26Z"/><polyline class="cls-45" points="273.67 286.37 273.67 445.25 325.67 445.25 325.67 285.99 276.06 284.33"/><path class="cls-46" d="M151.66,607.26l176-161v-92l-178.5,158.5Z"/><path class="cls-47" d="M273.66,352.26l52,2L159.94,511.91l-50.28-13.65Z"/><polygon class="cls-48" points="75.67 447.25 75.67 608.25 150.66 608.25 150.66 448.99 75.67 447.25"/><path class="cls-49" d="M327.75,447l29.91-29.4V258.26L324.6,286.35q.25,39.21,1,79.29Q326.43,406.8,327.75,447Z"/><path class="cls-50" d="M150.49,608l32.26-29-.09-157.7L149.6,449.39S152,608,150.49,608Z"/><path class="cls-51" d="M75.66,447.26l74,3,33-29-77,0C100.7,424.51,79.49,442.92,75.66,447.26Z"/><path class="cls-52" d="M273.66,286.26l51,1,33-29h-53Z"/><path class="cls-53" d="M275.66,494.26l-29,26c-6.19-17.94-5.95-31.77-5-40,1.33-11.49,4.35-14.72,7-16,4.71-2.27,10.27.6,11,1,2.5,1.33,4.82,3.69,11,17C272,485.15,273.8,489.23,275.66,494.26Z"/><rect x="420.2" y="409" width="42.18" height="32.44"/><rect x="567.82" y="409" width="42.18" height="32.44"/><rect x="494.01" y="409" width="42.18" height="32.44"/><rect x="641.63" y="409" width="42.18" height="32.44"/><rect x="715.45" y="409" width="42.18" height="32.44"/><rect x="789.26" y="409" width="42.18" height="32.44"/><rect x="863.07" y="409" width="42.18" height="32.44"/><rect x="936.88" y="409" width="42.18" height="32.44"/><rect class="cls-54" x="357.24" y="410.64" width="38.28" height="29.45"/><rect class="cls-54" x="357.24" y="467.64" width="38.28" height="29.45"/><rect class="cls-54" x="996.41" y="409.64" width="38.28" height="29.45"/><rect class="cls-54" x="996.41" y="465.64" width="38.28" height="29.45"/><rect class="cls-54" x="996.41" y="521.64" width="38.28" height="29.45"/><rect x="420.2" y="463.95" width="42.18" height="32.44"/><rect x="567.82" y="463.95" width="42.18" height="32.44"/><rect x="494.01" y="463.95" width="42.18" height="32.44"/><rect x="641.63" y="463.95" width="42.18" height="32.44"/><rect x="715.45" y="463.95" width="42.18" height="32.44"/><rect x="789.26" y="463.95" width="42.18" height="32.44"/><rect x="863.07" y="463.95" width="42.18" height="32.44"/><rect x="936.88" y="463.95" width="42.18" height="32.44"/><rect x="420.2" y="518.91" width="42.18" height="32.44"/><rect x="567.82" y="518.91" width="42.18" height="32.44"/><rect x="494.01" y="518.91" width="42.18" height="32.44"/><rect x="641.63" y="518.91" width="42.18" height="32.44"/><rect x="715.45" y="518.91" width="42.18" height="32.44"/><rect x="789.26" y="518.91" width="42.18" height="32.44"/><rect x="863.07" y="518.91" width="42.18" height="32.44"/><rect x="936.88" y="518.91" width="42.18" height="32.44"/><rect x="420.2" y="573.86" width="42.18" height="32.44"/><rect x="567.82" y="573.86" width="42.18" height="32.44"/><rect x="494.01" y="573.86" width="42.18" height="32.44"/><rect x="641.63" y="573.86" width="42.18" height="32.44"/><rect x="715.45" y="573.86" width="42.18" height="32.44"/><rect x="789.26" y="573.86" width="42.18" height="32.44"/><rect x="863.07" y="573.86" width="42.18" height="32.44"/><rect x="936.88" y="573.86" width="42.18" height="32.44"/><rect x="420.2" y="628.82" width="42.18" height="32.44"/><rect x="567.82" y="628.82" width="42.18" height="32.44"/><rect x="494.01" y="628.82" width="42.18" height="32.44"/><rect x="641.63" y="628.82" width="42.18" height="32.44"/><rect x="715.45" y="628.82" width="42.18" height="32.44"/><rect x="789.26" y="628.82" width="42.18" height="32.44"/><rect x="863.07" y="628.82" width="42.18" height="32.44"/><rect x="936.88" y="628.82" width="42.18" height="32.44"/><rect class="cls-54" x="357.24" y="519.85" width="38.28" height="29.45"/><rect class="cls-54" x="357.24" y="574.85" width="38.28" height="29.45"/><rect class="cls-54" x="357.24" y="635.85" width="38.28" height="29.45"/><rect class="cls-54" x="996.41" y="580.04" width="38.28" height="29.45"/><rect class="cls-54" x="996.41" y="633.04" width="38.28" height="29.45"/></g></g></svg>